%TF.GenerationSoftware,KiCad,Pcbnew,(5.1.4)-1*%
%TF.CreationDate,2020-08-23T14:24:33+08:00*%
%TF.ProjectId,Integrated-Control-Board-RevA,496e7465-6772-4617-9465-642d436f6e74,rev?*%
%TF.SameCoordinates,Original*%
%TF.FileFunction,Soldermask,Bot*%
%TF.FilePolarity,Negative*%
%FSLAX46Y46*%
G04 Gerber Fmt 4.6, Leading zero omitted, Abs format (unit mm)*
G04 Created by KiCad (PCBNEW (5.1.4)-1) date 2020-08-23 14:24:33*
%MOMM*%
%LPD*%
G04 APERTURE LIST*
%ADD10C,0.150000*%
%ADD11C,0.350000*%
G04 APERTURE END LIST*
D10*
X243540000Y-88960000D02*
X243540000Y-112070000D01*
X243540000Y-112070000D02*
X220680000Y-112070000D01*
X220680000Y-112070000D02*
X220680000Y-88960000D01*
X220680000Y-88960000D02*
X243540000Y-88960000D01*
D11*
G36*
X235260443Y-127185519D02*
G01*
X235326627Y-127192037D01*
X235496466Y-127243557D01*
X235652991Y-127327222D01*
X235688729Y-127356552D01*
X235790186Y-127439814D01*
X235873448Y-127541271D01*
X235902778Y-127577009D01*
X235986443Y-127733534D01*
X236037963Y-127903373D01*
X236055359Y-128080000D01*
X236037963Y-128256627D01*
X235986443Y-128426466D01*
X235902778Y-128582991D01*
X235873448Y-128618729D01*
X235790186Y-128720186D01*
X235688729Y-128803448D01*
X235652991Y-128832778D01*
X235496466Y-128916443D01*
X235326627Y-128967963D01*
X235260443Y-128974481D01*
X235194260Y-128981000D01*
X233805740Y-128981000D01*
X233739557Y-128974481D01*
X233673373Y-128967963D01*
X233503534Y-128916443D01*
X233347009Y-128832778D01*
X233311271Y-128803448D01*
X233209814Y-128720186D01*
X233126552Y-128618729D01*
X233097222Y-128582991D01*
X233013557Y-128426466D01*
X232962037Y-128256627D01*
X232944641Y-128080000D01*
X232962037Y-127903373D01*
X233013557Y-127733534D01*
X233097222Y-127577009D01*
X233126552Y-127541271D01*
X233209814Y-127439814D01*
X233311271Y-127356552D01*
X233347009Y-127327222D01*
X233503534Y-127243557D01*
X233673373Y-127192037D01*
X233739557Y-127185519D01*
X233805740Y-127179000D01*
X235194260Y-127179000D01*
X235260443Y-127185519D01*
X235260443Y-127185519D01*
G37*
G36*
X197216626Y-123962037D02*
G01*
X197386465Y-124013557D01*
X197386467Y-124013558D01*
X197542989Y-124097221D01*
X197680186Y-124209814D01*
X197763448Y-124311271D01*
X197792778Y-124347009D01*
X197876443Y-124503534D01*
X197927963Y-124673373D01*
X197927963Y-124673375D01*
X197941000Y-124805740D01*
X197941000Y-126194260D01*
X197938446Y-126220186D01*
X197927963Y-126326627D01*
X197876443Y-126496466D01*
X197792778Y-126652991D01*
X197763728Y-126688388D01*
X197680186Y-126790186D01*
X197578729Y-126873448D01*
X197542991Y-126902778D01*
X197386466Y-126986443D01*
X197216627Y-127037963D01*
X197040000Y-127055359D01*
X196863374Y-127037963D01*
X196693535Y-126986443D01*
X196537010Y-126902778D01*
X196501272Y-126873448D01*
X196399815Y-126790186D01*
X196316273Y-126688388D01*
X196287223Y-126652991D01*
X196203558Y-126496466D01*
X196152038Y-126326627D01*
X196141555Y-126220186D01*
X196139001Y-126194260D01*
X196139000Y-124805741D01*
X196152037Y-124673376D01*
X196152037Y-124673374D01*
X196203557Y-124503535D01*
X196257241Y-124403100D01*
X196287221Y-124347011D01*
X196399814Y-124209814D01*
X196507091Y-124121775D01*
X196537009Y-124097222D01*
X196693534Y-124013557D01*
X196863373Y-123962037D01*
X197040000Y-123944641D01*
X197216626Y-123962037D01*
X197216626Y-123962037D01*
G37*
G36*
X213796626Y-123962037D02*
G01*
X213966465Y-124013557D01*
X213966467Y-124013558D01*
X214122989Y-124097221D01*
X214260186Y-124209814D01*
X214343448Y-124311271D01*
X214372778Y-124347009D01*
X214456443Y-124503534D01*
X214507963Y-124673373D01*
X214507963Y-124673375D01*
X214521000Y-124805740D01*
X214521000Y-126194260D01*
X214518446Y-126220186D01*
X214507963Y-126326627D01*
X214456443Y-126496466D01*
X214372778Y-126652991D01*
X214343728Y-126688388D01*
X214260186Y-126790186D01*
X214158729Y-126873448D01*
X214122991Y-126902778D01*
X213966466Y-126986443D01*
X213796627Y-127037963D01*
X213620000Y-127055359D01*
X213443374Y-127037963D01*
X213273535Y-126986443D01*
X213117010Y-126902778D01*
X213081272Y-126873448D01*
X212979815Y-126790186D01*
X212896273Y-126688388D01*
X212867223Y-126652991D01*
X212783558Y-126496466D01*
X212732038Y-126326627D01*
X212721555Y-126220186D01*
X212719001Y-126194260D01*
X212719000Y-124805741D01*
X212732037Y-124673376D01*
X212732037Y-124673374D01*
X212783557Y-124503535D01*
X212837241Y-124403100D01*
X212867221Y-124347011D01*
X212979814Y-124209814D01*
X213087091Y-124121775D01*
X213117009Y-124097222D01*
X213273534Y-124013557D01*
X213443373Y-123962037D01*
X213620000Y-123944641D01*
X213796626Y-123962037D01*
X213796626Y-123962037D01*
G37*
G36*
X211256626Y-123962037D02*
G01*
X211426465Y-124013557D01*
X211426467Y-124013558D01*
X211582989Y-124097221D01*
X211720186Y-124209814D01*
X211803448Y-124311271D01*
X211832778Y-124347009D01*
X211916443Y-124503534D01*
X211967963Y-124673373D01*
X211967963Y-124673375D01*
X211981000Y-124805740D01*
X211981000Y-126194260D01*
X211978446Y-126220186D01*
X211967963Y-126326627D01*
X211916443Y-126496466D01*
X211832778Y-126652991D01*
X211803728Y-126688388D01*
X211720186Y-126790186D01*
X211618729Y-126873448D01*
X211582991Y-126902778D01*
X211426466Y-126986443D01*
X211256627Y-127037963D01*
X211080000Y-127055359D01*
X210903374Y-127037963D01*
X210733535Y-126986443D01*
X210577010Y-126902778D01*
X210541272Y-126873448D01*
X210439815Y-126790186D01*
X210356273Y-126688388D01*
X210327223Y-126652991D01*
X210243558Y-126496466D01*
X210192038Y-126326627D01*
X210181555Y-126220186D01*
X210179001Y-126194260D01*
X210179000Y-124805741D01*
X210192037Y-124673376D01*
X210192037Y-124673374D01*
X210243557Y-124503535D01*
X210297241Y-124403100D01*
X210327221Y-124347011D01*
X210439814Y-124209814D01*
X210547091Y-124121775D01*
X210577009Y-124097222D01*
X210733534Y-124013557D01*
X210903373Y-123962037D01*
X211080000Y-123944641D01*
X211256626Y-123962037D01*
X211256626Y-123962037D01*
G37*
G36*
X208716626Y-123962037D02*
G01*
X208886465Y-124013557D01*
X208886467Y-124013558D01*
X209042989Y-124097221D01*
X209180186Y-124209814D01*
X209263448Y-124311271D01*
X209292778Y-124347009D01*
X209376443Y-124503534D01*
X209427963Y-124673373D01*
X209427963Y-124673375D01*
X209441000Y-124805740D01*
X209441000Y-126194260D01*
X209438446Y-126220186D01*
X209427963Y-126326627D01*
X209376443Y-126496466D01*
X209292778Y-126652991D01*
X209263728Y-126688388D01*
X209180186Y-126790186D01*
X209078729Y-126873448D01*
X209042991Y-126902778D01*
X208886466Y-126986443D01*
X208716627Y-127037963D01*
X208540000Y-127055359D01*
X208363374Y-127037963D01*
X208193535Y-126986443D01*
X208037010Y-126902778D01*
X208001272Y-126873448D01*
X207899815Y-126790186D01*
X207816273Y-126688388D01*
X207787223Y-126652991D01*
X207703558Y-126496466D01*
X207652038Y-126326627D01*
X207641555Y-126220186D01*
X207639001Y-126194260D01*
X207639000Y-124805741D01*
X207652037Y-124673376D01*
X207652037Y-124673374D01*
X207703557Y-124503535D01*
X207757241Y-124403100D01*
X207787221Y-124347011D01*
X207899814Y-124209814D01*
X208007091Y-124121775D01*
X208037009Y-124097222D01*
X208193534Y-124013557D01*
X208363373Y-123962037D01*
X208540000Y-123944641D01*
X208716626Y-123962037D01*
X208716626Y-123962037D01*
G37*
G36*
X199756626Y-123962037D02*
G01*
X199926465Y-124013557D01*
X199926467Y-124013558D01*
X200082989Y-124097221D01*
X200220186Y-124209814D01*
X200303448Y-124311271D01*
X200332778Y-124347009D01*
X200416443Y-124503534D01*
X200467963Y-124673373D01*
X200467963Y-124673375D01*
X200481000Y-124805740D01*
X200481000Y-126194260D01*
X200478446Y-126220186D01*
X200467963Y-126326627D01*
X200416443Y-126496466D01*
X200332778Y-126652991D01*
X200303728Y-126688388D01*
X200220186Y-126790186D01*
X200118729Y-126873448D01*
X200082991Y-126902778D01*
X199926466Y-126986443D01*
X199756627Y-127037963D01*
X199580000Y-127055359D01*
X199403374Y-127037963D01*
X199233535Y-126986443D01*
X199077010Y-126902778D01*
X199041272Y-126873448D01*
X198939815Y-126790186D01*
X198856273Y-126688388D01*
X198827223Y-126652991D01*
X198743558Y-126496466D01*
X198692038Y-126326627D01*
X198681555Y-126220186D01*
X198679001Y-126194260D01*
X198679000Y-124805741D01*
X198692037Y-124673376D01*
X198692037Y-124673374D01*
X198743557Y-124503535D01*
X198797241Y-124403100D01*
X198827221Y-124347011D01*
X198939814Y-124209814D01*
X199047091Y-124121775D01*
X199077009Y-124097222D01*
X199233534Y-124013557D01*
X199403373Y-123962037D01*
X199580000Y-123944641D01*
X199756626Y-123962037D01*
X199756626Y-123962037D01*
G37*
G36*
X195088578Y-123957048D02*
G01*
X195161249Y-123979093D01*
X195228225Y-124014892D01*
X195286930Y-124063070D01*
X195335108Y-124121775D01*
X195370907Y-124188751D01*
X195392952Y-124261422D01*
X195401000Y-124343140D01*
X195401000Y-126656860D01*
X195392952Y-126738578D01*
X195370907Y-126811249D01*
X195335108Y-126878225D01*
X195286930Y-126936930D01*
X195228225Y-126985108D01*
X195161249Y-127020907D01*
X195088578Y-127042952D01*
X195006860Y-127051000D01*
X193993140Y-127051000D01*
X193911422Y-127042952D01*
X193838751Y-127020907D01*
X193771775Y-126985108D01*
X193713070Y-126936930D01*
X193664892Y-126878225D01*
X193629093Y-126811249D01*
X193607048Y-126738578D01*
X193599000Y-126656860D01*
X193599000Y-124343140D01*
X193607048Y-124261422D01*
X193629093Y-124188751D01*
X193664892Y-124121775D01*
X193713070Y-124063070D01*
X193771775Y-124014892D01*
X193838751Y-123979093D01*
X193911422Y-123957048D01*
X193993140Y-123949000D01*
X195006860Y-123949000D01*
X195088578Y-123957048D01*
X195088578Y-123957048D01*
G37*
G36*
X206588578Y-123957048D02*
G01*
X206661249Y-123979093D01*
X206728225Y-124014892D01*
X206786930Y-124063070D01*
X206835108Y-124121775D01*
X206870907Y-124188751D01*
X206892952Y-124261422D01*
X206901000Y-124343140D01*
X206901000Y-126656860D01*
X206892952Y-126738578D01*
X206870907Y-126811249D01*
X206835108Y-126878225D01*
X206786930Y-126936930D01*
X206728225Y-126985108D01*
X206661249Y-127020907D01*
X206588578Y-127042952D01*
X206506860Y-127051000D01*
X205493140Y-127051000D01*
X205411422Y-127042952D01*
X205338751Y-127020907D01*
X205271775Y-126985108D01*
X205213070Y-126936930D01*
X205164892Y-126878225D01*
X205129093Y-126811249D01*
X205107048Y-126738578D01*
X205099000Y-126656860D01*
X205099000Y-124343140D01*
X205107048Y-124261422D01*
X205129093Y-124188751D01*
X205164892Y-124121775D01*
X205213070Y-124063070D01*
X205271775Y-124014892D01*
X205338751Y-123979093D01*
X205411422Y-123957048D01*
X205493140Y-123949000D01*
X206506860Y-123949000D01*
X206588578Y-123957048D01*
X206588578Y-123957048D01*
G37*
G36*
X186760442Y-124685518D02*
G01*
X186826627Y-124692037D01*
X186996466Y-124743557D01*
X187152991Y-124827222D01*
X187181964Y-124851000D01*
X187290186Y-124939814D01*
X187369951Y-125037009D01*
X187402778Y-125077009D01*
X187486443Y-125233534D01*
X187537963Y-125403373D01*
X187555359Y-125580000D01*
X187537963Y-125756627D01*
X187486443Y-125926466D01*
X187402778Y-126082991D01*
X187373448Y-126118729D01*
X187290186Y-126220186D01*
X187201731Y-126292778D01*
X187152991Y-126332778D01*
X186996466Y-126416443D01*
X186826627Y-126467963D01*
X186760442Y-126474482D01*
X186694260Y-126481000D01*
X185305740Y-126481000D01*
X185239558Y-126474482D01*
X185173373Y-126467963D01*
X185003534Y-126416443D01*
X184847009Y-126332778D01*
X184798269Y-126292778D01*
X184709814Y-126220186D01*
X184626552Y-126118729D01*
X184597222Y-126082991D01*
X184513557Y-125926466D01*
X184462037Y-125756627D01*
X184444641Y-125580000D01*
X184462037Y-125403373D01*
X184513557Y-125233534D01*
X184597222Y-125077009D01*
X184630049Y-125037009D01*
X184709814Y-124939814D01*
X184818036Y-124851000D01*
X184847009Y-124827222D01*
X185003534Y-124743557D01*
X185173373Y-124692037D01*
X185239558Y-124685518D01*
X185305740Y-124679000D01*
X186694260Y-124679000D01*
X186760442Y-124685518D01*
X186760442Y-124685518D01*
G37*
G36*
X235260443Y-124645519D02*
G01*
X235326627Y-124652037D01*
X235496466Y-124703557D01*
X235652991Y-124787222D01*
X235688729Y-124816552D01*
X235790186Y-124899814D01*
X235869951Y-124997009D01*
X235902778Y-125037009D01*
X235986443Y-125193534D01*
X236037963Y-125363373D01*
X236055359Y-125540000D01*
X236037963Y-125716627D01*
X235986443Y-125886466D01*
X235902778Y-126042991D01*
X235873448Y-126078729D01*
X235790186Y-126180186D01*
X235701731Y-126252778D01*
X235652991Y-126292778D01*
X235496466Y-126376443D01*
X235326627Y-126427963D01*
X235260443Y-126434481D01*
X235194260Y-126441000D01*
X233805740Y-126441000D01*
X233739557Y-126434481D01*
X233673373Y-126427963D01*
X233503534Y-126376443D01*
X233347009Y-126292778D01*
X233298269Y-126252778D01*
X233209814Y-126180186D01*
X233126552Y-126078729D01*
X233097222Y-126042991D01*
X233013557Y-125886466D01*
X232962037Y-125716627D01*
X232944641Y-125540000D01*
X232962037Y-125363373D01*
X233013557Y-125193534D01*
X233097222Y-125037009D01*
X233130049Y-124997009D01*
X233209814Y-124899814D01*
X233311271Y-124816552D01*
X233347009Y-124787222D01*
X233503534Y-124703557D01*
X233673373Y-124652037D01*
X233739557Y-124645519D01*
X233805740Y-124639000D01*
X235194260Y-124639000D01*
X235260443Y-124645519D01*
X235260443Y-124645519D01*
G37*
G36*
X167760443Y-124645519D02*
G01*
X167826627Y-124652037D01*
X167996466Y-124703557D01*
X168152991Y-124787222D01*
X168188729Y-124816552D01*
X168290186Y-124899814D01*
X168369951Y-124997009D01*
X168402778Y-125037009D01*
X168486443Y-125193534D01*
X168537963Y-125363373D01*
X168555359Y-125540000D01*
X168537963Y-125716627D01*
X168486443Y-125886466D01*
X168402778Y-126042991D01*
X168373448Y-126078729D01*
X168290186Y-126180186D01*
X168201731Y-126252778D01*
X168152991Y-126292778D01*
X167996466Y-126376443D01*
X167826627Y-126427963D01*
X167760443Y-126434481D01*
X167694260Y-126441000D01*
X166305740Y-126441000D01*
X166239557Y-126434481D01*
X166173373Y-126427963D01*
X166003534Y-126376443D01*
X165847009Y-126292778D01*
X165798269Y-126252778D01*
X165709814Y-126180186D01*
X165626552Y-126078729D01*
X165597222Y-126042991D01*
X165513557Y-125886466D01*
X165462037Y-125716627D01*
X165444641Y-125540000D01*
X165462037Y-125363373D01*
X165513557Y-125193534D01*
X165597222Y-125037009D01*
X165630049Y-124997009D01*
X165709814Y-124899814D01*
X165811271Y-124816552D01*
X165847009Y-124787222D01*
X166003534Y-124703557D01*
X166173373Y-124652037D01*
X166239557Y-124645519D01*
X166305740Y-124639000D01*
X167694260Y-124639000D01*
X167760443Y-124645519D01*
X167760443Y-124645519D01*
G37*
G36*
X224060443Y-124605519D02*
G01*
X224126627Y-124612037D01*
X224296466Y-124663557D01*
X224452991Y-124747222D01*
X224461430Y-124754148D01*
X224590186Y-124859814D01*
X224655839Y-124939814D01*
X224702778Y-124997009D01*
X224786443Y-125153534D01*
X224837963Y-125323373D01*
X224855359Y-125500000D01*
X224837963Y-125676627D01*
X224786443Y-125846466D01*
X224702778Y-126002991D01*
X224673448Y-126038729D01*
X224590186Y-126140186D01*
X224492705Y-126220185D01*
X224452991Y-126252778D01*
X224296466Y-126336443D01*
X224126627Y-126387963D01*
X224060443Y-126394481D01*
X223994260Y-126401000D01*
X222605740Y-126401000D01*
X222539557Y-126394481D01*
X222473373Y-126387963D01*
X222303534Y-126336443D01*
X222147009Y-126252778D01*
X222107295Y-126220185D01*
X222009814Y-126140186D01*
X221926552Y-126038729D01*
X221897222Y-126002991D01*
X221813557Y-125846466D01*
X221762037Y-125676627D01*
X221744641Y-125500000D01*
X221762037Y-125323373D01*
X221813557Y-125153534D01*
X221897222Y-124997009D01*
X221944161Y-124939814D01*
X222009814Y-124859814D01*
X222138570Y-124754148D01*
X222147009Y-124747222D01*
X222303534Y-124663557D01*
X222473373Y-124612037D01*
X222539557Y-124605519D01*
X222605740Y-124599000D01*
X223994260Y-124599000D01*
X224060443Y-124605519D01*
X224060443Y-124605519D01*
G37*
G36*
X179248228Y-123181703D02*
G01*
X179403100Y-123245853D01*
X179542481Y-123338985D01*
X179661015Y-123457519D01*
X179754147Y-123596900D01*
X179818297Y-123751772D01*
X179851000Y-123916184D01*
X179851000Y-124083816D01*
X179818297Y-124248228D01*
X179754147Y-124403100D01*
X179661015Y-124542481D01*
X179542481Y-124661015D01*
X179403100Y-124754147D01*
X179248228Y-124818297D01*
X179083816Y-124851000D01*
X178916184Y-124851000D01*
X178751772Y-124818297D01*
X178596900Y-124754147D01*
X178457519Y-124661015D01*
X178338985Y-124542481D01*
X178245853Y-124403100D01*
X178181703Y-124248228D01*
X178149000Y-124083816D01*
X178149000Y-123916184D01*
X178181703Y-123751772D01*
X178245853Y-123596900D01*
X178338985Y-123457519D01*
X178457519Y-123338985D01*
X178596900Y-123245853D01*
X178751772Y-123181703D01*
X178916184Y-123149000D01*
X179083816Y-123149000D01*
X179248228Y-123181703D01*
X179248228Y-123181703D01*
G37*
G36*
X174851000Y-124851000D02*
G01*
X173149000Y-124851000D01*
X173149000Y-123149000D01*
X174851000Y-123149000D01*
X174851000Y-124851000D01*
X174851000Y-124851000D01*
G37*
G36*
X186760443Y-122145519D02*
G01*
X186826627Y-122152037D01*
X186996466Y-122203557D01*
X186996468Y-122203558D01*
X187047711Y-122230948D01*
X187152991Y-122287222D01*
X187188729Y-122316552D01*
X187290186Y-122399814D01*
X187369951Y-122497009D01*
X187402778Y-122537009D01*
X187486443Y-122693534D01*
X187537963Y-122863373D01*
X187555359Y-123040000D01*
X187537963Y-123216627D01*
X187498576Y-123346468D01*
X187486442Y-123386468D01*
X187452216Y-123450500D01*
X187402778Y-123542991D01*
X187373448Y-123578729D01*
X187290186Y-123680186D01*
X187208857Y-123746930D01*
X187152991Y-123792778D01*
X186996466Y-123876443D01*
X186826627Y-123927963D01*
X186760442Y-123934482D01*
X186694260Y-123941000D01*
X185305740Y-123941000D01*
X185239558Y-123934482D01*
X185173373Y-123927963D01*
X185003534Y-123876443D01*
X184847009Y-123792778D01*
X184791143Y-123746930D01*
X184709814Y-123680186D01*
X184626552Y-123578729D01*
X184597222Y-123542991D01*
X184547784Y-123450500D01*
X184513558Y-123386468D01*
X184501424Y-123346468D01*
X184462037Y-123216627D01*
X184444641Y-123040000D01*
X184462037Y-122863373D01*
X184513557Y-122693534D01*
X184597222Y-122537009D01*
X184630049Y-122497009D01*
X184709814Y-122399814D01*
X184811271Y-122316552D01*
X184847009Y-122287222D01*
X184952289Y-122230948D01*
X185003532Y-122203558D01*
X185003534Y-122203557D01*
X185173373Y-122152037D01*
X185239557Y-122145519D01*
X185305740Y-122139000D01*
X186694260Y-122139000D01*
X186760443Y-122145519D01*
X186760443Y-122145519D01*
G37*
G36*
X168238578Y-122107048D02*
G01*
X168311249Y-122129093D01*
X168378225Y-122164892D01*
X168436930Y-122213070D01*
X168485108Y-122271775D01*
X168520907Y-122338751D01*
X168542952Y-122411422D01*
X168551000Y-122493140D01*
X168551000Y-123506860D01*
X168542952Y-123588578D01*
X168520907Y-123661249D01*
X168485108Y-123728225D01*
X168436930Y-123786930D01*
X168378225Y-123835108D01*
X168311249Y-123870907D01*
X168238578Y-123892952D01*
X168156860Y-123901000D01*
X165843140Y-123901000D01*
X165761422Y-123892952D01*
X165688751Y-123870907D01*
X165621775Y-123835108D01*
X165563070Y-123786930D01*
X165514892Y-123728225D01*
X165479093Y-123661249D01*
X165457048Y-123588578D01*
X165449000Y-123506860D01*
X165449000Y-122493140D01*
X165457048Y-122411422D01*
X165479093Y-122338751D01*
X165514892Y-122271775D01*
X165563070Y-122213070D01*
X165621775Y-122164892D01*
X165688751Y-122129093D01*
X165761422Y-122107048D01*
X165843140Y-122099000D01*
X168156860Y-122099000D01*
X168238578Y-122107048D01*
X168238578Y-122107048D01*
G37*
G36*
X235260442Y-122105518D02*
G01*
X235326627Y-122112037D01*
X235496466Y-122163557D01*
X235496468Y-122163558D01*
X235517730Y-122174923D01*
X235652991Y-122247222D01*
X235682909Y-122271775D01*
X235790186Y-122359814D01*
X235873448Y-122461271D01*
X235902778Y-122497009D01*
X235986443Y-122653534D01*
X236037963Y-122823373D01*
X236055359Y-123000000D01*
X236037963Y-123176627D01*
X235986443Y-123346466D01*
X235902778Y-123502991D01*
X235873728Y-123538388D01*
X235790186Y-123640186D01*
X235688729Y-123723448D01*
X235652991Y-123752778D01*
X235496466Y-123836443D01*
X235326627Y-123887963D01*
X235282145Y-123892344D01*
X235194260Y-123901000D01*
X233805740Y-123901000D01*
X233717855Y-123892344D01*
X233673373Y-123887963D01*
X233503534Y-123836443D01*
X233347009Y-123752778D01*
X233311271Y-123723448D01*
X233209814Y-123640186D01*
X233126272Y-123538388D01*
X233097222Y-123502991D01*
X233013557Y-123346466D01*
X232962037Y-123176627D01*
X232944641Y-123000000D01*
X232962037Y-122823373D01*
X233013557Y-122653534D01*
X233097222Y-122497009D01*
X233126552Y-122461271D01*
X233209814Y-122359814D01*
X233317091Y-122271775D01*
X233347009Y-122247222D01*
X233482270Y-122174923D01*
X233503532Y-122163558D01*
X233503534Y-122163557D01*
X233673373Y-122112037D01*
X233739558Y-122105518D01*
X233805740Y-122099000D01*
X235194260Y-122099000D01*
X235260442Y-122105518D01*
X235260442Y-122105518D01*
G37*
G36*
X224538578Y-122067048D02*
G01*
X224611249Y-122089093D01*
X224678225Y-122124892D01*
X224736930Y-122173070D01*
X224785108Y-122231775D01*
X224820907Y-122298751D01*
X224842952Y-122371422D01*
X224851000Y-122453140D01*
X224851000Y-123466860D01*
X224842952Y-123548578D01*
X224820907Y-123621249D01*
X224785108Y-123688225D01*
X224736930Y-123746930D01*
X224678225Y-123795108D01*
X224611249Y-123830907D01*
X224538578Y-123852952D01*
X224456860Y-123861000D01*
X222143140Y-123861000D01*
X222061422Y-123852952D01*
X221988751Y-123830907D01*
X221921775Y-123795108D01*
X221863070Y-123746930D01*
X221814892Y-123688225D01*
X221779093Y-123621249D01*
X221757048Y-123548578D01*
X221749000Y-123466860D01*
X221749000Y-122453140D01*
X221757048Y-122371422D01*
X221779093Y-122298751D01*
X221814892Y-122231775D01*
X221863070Y-122173070D01*
X221921775Y-122124892D01*
X221988751Y-122089093D01*
X222061422Y-122067048D01*
X222143140Y-122059000D01*
X224456860Y-122059000D01*
X224538578Y-122067048D01*
X224538578Y-122067048D01*
G37*
G36*
X187238578Y-119607048D02*
G01*
X187311249Y-119629093D01*
X187378225Y-119664892D01*
X187436930Y-119713070D01*
X187485108Y-119771775D01*
X187520907Y-119838751D01*
X187542952Y-119911422D01*
X187551000Y-119993140D01*
X187551000Y-121006860D01*
X187542952Y-121088578D01*
X187520907Y-121161249D01*
X187485108Y-121228225D01*
X187436930Y-121286930D01*
X187378225Y-121335108D01*
X187311249Y-121370907D01*
X187238578Y-121392952D01*
X187156860Y-121401000D01*
X184843140Y-121401000D01*
X184761422Y-121392952D01*
X184688751Y-121370907D01*
X184621775Y-121335108D01*
X184563070Y-121286930D01*
X184514892Y-121228225D01*
X184479093Y-121161249D01*
X184457048Y-121088578D01*
X184449000Y-121006860D01*
X184449000Y-119993140D01*
X184457048Y-119911422D01*
X184479093Y-119838751D01*
X184514892Y-119771775D01*
X184563070Y-119713070D01*
X184621775Y-119664892D01*
X184688751Y-119629093D01*
X184761422Y-119607048D01*
X184843140Y-119599000D01*
X187156860Y-119599000D01*
X187238578Y-119607048D01*
X187238578Y-119607048D01*
G37*
G36*
X235738578Y-119567048D02*
G01*
X235811249Y-119589093D01*
X235878225Y-119624892D01*
X235936930Y-119673070D01*
X235985108Y-119731775D01*
X236020907Y-119798751D01*
X236042952Y-119871422D01*
X236051000Y-119953140D01*
X236051000Y-120966860D01*
X236042952Y-121048578D01*
X236020907Y-121121249D01*
X235985108Y-121188225D01*
X235936930Y-121246930D01*
X235878225Y-121295108D01*
X235811249Y-121330907D01*
X235738578Y-121352952D01*
X235656860Y-121361000D01*
X233343140Y-121361000D01*
X233261422Y-121352952D01*
X233188751Y-121330907D01*
X233121775Y-121295108D01*
X233063070Y-121246930D01*
X233014892Y-121188225D01*
X232979093Y-121121249D01*
X232957048Y-121048578D01*
X232949000Y-120966860D01*
X232949000Y-119953140D01*
X232957048Y-119871422D01*
X232979093Y-119798751D01*
X233014892Y-119731775D01*
X233063070Y-119673070D01*
X233121775Y-119624892D01*
X233188751Y-119589093D01*
X233261422Y-119567048D01*
X233343140Y-119559000D01*
X235656860Y-119559000D01*
X235738578Y-119567048D01*
X235738578Y-119567048D01*
G37*
G36*
X172927395Y-111015546D02*
G01*
X173100466Y-111087234D01*
X173100467Y-111087235D01*
X173256227Y-111191310D01*
X173388690Y-111323773D01*
X173388691Y-111323775D01*
X173492766Y-111479534D01*
X173564454Y-111652605D01*
X173601000Y-111836333D01*
X173601000Y-112023667D01*
X173564454Y-112207395D01*
X173492766Y-112380466D01*
X173492765Y-112380467D01*
X173388690Y-112536227D01*
X173256227Y-112668690D01*
X173177818Y-112721081D01*
X173100466Y-112772766D01*
X172927395Y-112844454D01*
X172743667Y-112881000D01*
X172556333Y-112881000D01*
X172372605Y-112844454D01*
X172199534Y-112772766D01*
X172122182Y-112721081D01*
X172043773Y-112668690D01*
X171911310Y-112536227D01*
X171807235Y-112380467D01*
X171807234Y-112380466D01*
X171735546Y-112207395D01*
X171699000Y-112023667D01*
X171699000Y-111836333D01*
X171735546Y-111652605D01*
X171807234Y-111479534D01*
X171911309Y-111323775D01*
X171911310Y-111323773D01*
X172043773Y-111191310D01*
X172199533Y-111087235D01*
X172199534Y-111087234D01*
X172372605Y-111015546D01*
X172556333Y-110979000D01*
X172743667Y-110979000D01*
X172927395Y-111015546D01*
X172927395Y-111015546D01*
G37*
G36*
X188167395Y-111015546D02*
G01*
X188340466Y-111087234D01*
X188340467Y-111087235D01*
X188496227Y-111191310D01*
X188628690Y-111323773D01*
X188628691Y-111323775D01*
X188732766Y-111479534D01*
X188804454Y-111652605D01*
X188841000Y-111836333D01*
X188841000Y-112023667D01*
X188804454Y-112207395D01*
X188732766Y-112380466D01*
X188732765Y-112380467D01*
X188628690Y-112536227D01*
X188496227Y-112668690D01*
X188417818Y-112721081D01*
X188340466Y-112772766D01*
X188167395Y-112844454D01*
X187983667Y-112881000D01*
X187796333Y-112881000D01*
X187612605Y-112844454D01*
X187439534Y-112772766D01*
X187362182Y-112721081D01*
X187283773Y-112668690D01*
X187151310Y-112536227D01*
X187047235Y-112380467D01*
X187047234Y-112380466D01*
X186975546Y-112207395D01*
X186939000Y-112023667D01*
X186939000Y-111836333D01*
X186975546Y-111652605D01*
X187047234Y-111479534D01*
X187151309Y-111323775D01*
X187151310Y-111323773D01*
X187283773Y-111191310D01*
X187439533Y-111087235D01*
X187439534Y-111087234D01*
X187612605Y-111015546D01*
X187796333Y-110979000D01*
X187983667Y-110979000D01*
X188167395Y-111015546D01*
X188167395Y-111015546D01*
G37*
G36*
X185627395Y-111015546D02*
G01*
X185800466Y-111087234D01*
X185800467Y-111087235D01*
X185956227Y-111191310D01*
X186088690Y-111323773D01*
X186088691Y-111323775D01*
X186192766Y-111479534D01*
X186264454Y-111652605D01*
X186301000Y-111836333D01*
X186301000Y-112023667D01*
X186264454Y-112207395D01*
X186192766Y-112380466D01*
X186192765Y-112380467D01*
X186088690Y-112536227D01*
X185956227Y-112668690D01*
X185877818Y-112721081D01*
X185800466Y-112772766D01*
X185627395Y-112844454D01*
X185443667Y-112881000D01*
X185256333Y-112881000D01*
X185072605Y-112844454D01*
X184899534Y-112772766D01*
X184822182Y-112721081D01*
X184743773Y-112668690D01*
X184611310Y-112536227D01*
X184507235Y-112380467D01*
X184507234Y-112380466D01*
X184435546Y-112207395D01*
X184399000Y-112023667D01*
X184399000Y-111836333D01*
X184435546Y-111652605D01*
X184507234Y-111479534D01*
X184611309Y-111323775D01*
X184611310Y-111323773D01*
X184743773Y-111191310D01*
X184899533Y-111087235D01*
X184899534Y-111087234D01*
X185072605Y-111015546D01*
X185256333Y-110979000D01*
X185443667Y-110979000D01*
X185627395Y-111015546D01*
X185627395Y-111015546D01*
G37*
G36*
X183087395Y-111015546D02*
G01*
X183260466Y-111087234D01*
X183260467Y-111087235D01*
X183416227Y-111191310D01*
X183548690Y-111323773D01*
X183548691Y-111323775D01*
X183652766Y-111479534D01*
X183724454Y-111652605D01*
X183761000Y-111836333D01*
X183761000Y-112023667D01*
X183724454Y-112207395D01*
X183652766Y-112380466D01*
X183652765Y-112380467D01*
X183548690Y-112536227D01*
X183416227Y-112668690D01*
X183337818Y-112721081D01*
X183260466Y-112772766D01*
X183087395Y-112844454D01*
X182903667Y-112881000D01*
X182716333Y-112881000D01*
X182532605Y-112844454D01*
X182359534Y-112772766D01*
X182282182Y-112721081D01*
X182203773Y-112668690D01*
X182071310Y-112536227D01*
X181967235Y-112380467D01*
X181967234Y-112380466D01*
X181895546Y-112207395D01*
X181859000Y-112023667D01*
X181859000Y-111836333D01*
X181895546Y-111652605D01*
X181967234Y-111479534D01*
X182071309Y-111323775D01*
X182071310Y-111323773D01*
X182203773Y-111191310D01*
X182359533Y-111087235D01*
X182359534Y-111087234D01*
X182532605Y-111015546D01*
X182716333Y-110979000D01*
X182903667Y-110979000D01*
X183087395Y-111015546D01*
X183087395Y-111015546D01*
G37*
G36*
X178007395Y-111015546D02*
G01*
X178180466Y-111087234D01*
X178180467Y-111087235D01*
X178336227Y-111191310D01*
X178468690Y-111323773D01*
X178468691Y-111323775D01*
X178572766Y-111479534D01*
X178644454Y-111652605D01*
X178681000Y-111836333D01*
X178681000Y-112023667D01*
X178644454Y-112207395D01*
X178572766Y-112380466D01*
X178572765Y-112380467D01*
X178468690Y-112536227D01*
X178336227Y-112668690D01*
X178257818Y-112721081D01*
X178180466Y-112772766D01*
X178007395Y-112844454D01*
X177823667Y-112881000D01*
X177636333Y-112881000D01*
X177452605Y-112844454D01*
X177279534Y-112772766D01*
X177202182Y-112721081D01*
X177123773Y-112668690D01*
X176991310Y-112536227D01*
X176887235Y-112380467D01*
X176887234Y-112380466D01*
X176815546Y-112207395D01*
X176779000Y-112023667D01*
X176779000Y-111836333D01*
X176815546Y-111652605D01*
X176887234Y-111479534D01*
X176991309Y-111323775D01*
X176991310Y-111323773D01*
X177123773Y-111191310D01*
X177279533Y-111087235D01*
X177279534Y-111087234D01*
X177452605Y-111015546D01*
X177636333Y-110979000D01*
X177823667Y-110979000D01*
X178007395Y-111015546D01*
X178007395Y-111015546D01*
G37*
G36*
X175467395Y-111015546D02*
G01*
X175640466Y-111087234D01*
X175640467Y-111087235D01*
X175796227Y-111191310D01*
X175928690Y-111323773D01*
X175928691Y-111323775D01*
X176032766Y-111479534D01*
X176104454Y-111652605D01*
X176141000Y-111836333D01*
X176141000Y-112023667D01*
X176104454Y-112207395D01*
X176032766Y-112380466D01*
X176032765Y-112380467D01*
X175928690Y-112536227D01*
X175796227Y-112668690D01*
X175717818Y-112721081D01*
X175640466Y-112772766D01*
X175467395Y-112844454D01*
X175283667Y-112881000D01*
X175096333Y-112881000D01*
X174912605Y-112844454D01*
X174739534Y-112772766D01*
X174662182Y-112721081D01*
X174583773Y-112668690D01*
X174451310Y-112536227D01*
X174347235Y-112380467D01*
X174347234Y-112380466D01*
X174275546Y-112207395D01*
X174239000Y-112023667D01*
X174239000Y-111836333D01*
X174275546Y-111652605D01*
X174347234Y-111479534D01*
X174451309Y-111323775D01*
X174451310Y-111323773D01*
X174583773Y-111191310D01*
X174739533Y-111087235D01*
X174739534Y-111087234D01*
X174912605Y-111015546D01*
X175096333Y-110979000D01*
X175283667Y-110979000D01*
X175467395Y-111015546D01*
X175467395Y-111015546D01*
G37*
G36*
X170387395Y-111015546D02*
G01*
X170560466Y-111087234D01*
X170560467Y-111087235D01*
X170716227Y-111191310D01*
X170848690Y-111323773D01*
X170848691Y-111323775D01*
X170952766Y-111479534D01*
X171024454Y-111652605D01*
X171061000Y-111836333D01*
X171061000Y-112023667D01*
X171024454Y-112207395D01*
X170952766Y-112380466D01*
X170952765Y-112380467D01*
X170848690Y-112536227D01*
X170716227Y-112668690D01*
X170637818Y-112721081D01*
X170560466Y-112772766D01*
X170387395Y-112844454D01*
X170203667Y-112881000D01*
X170016333Y-112881000D01*
X169832605Y-112844454D01*
X169659534Y-112772766D01*
X169582182Y-112721081D01*
X169503773Y-112668690D01*
X169371310Y-112536227D01*
X169267235Y-112380467D01*
X169267234Y-112380466D01*
X169195546Y-112207395D01*
X169159000Y-112023667D01*
X169159000Y-111836333D01*
X169195546Y-111652605D01*
X169267234Y-111479534D01*
X169371309Y-111323775D01*
X169371310Y-111323773D01*
X169503773Y-111191310D01*
X169659533Y-111087235D01*
X169659534Y-111087234D01*
X169832605Y-111015546D01*
X170016333Y-110979000D01*
X170203667Y-110979000D01*
X170387395Y-111015546D01*
X170387395Y-111015546D01*
G37*
G36*
X180547395Y-111015546D02*
G01*
X180720466Y-111087234D01*
X180720467Y-111087235D01*
X180876227Y-111191310D01*
X181008690Y-111323773D01*
X181008691Y-111323775D01*
X181112766Y-111479534D01*
X181184454Y-111652605D01*
X181221000Y-111836333D01*
X181221000Y-112023667D01*
X181184454Y-112207395D01*
X181112766Y-112380466D01*
X181112765Y-112380467D01*
X181008690Y-112536227D01*
X180876227Y-112668690D01*
X180797818Y-112721081D01*
X180720466Y-112772766D01*
X180547395Y-112844454D01*
X180363667Y-112881000D01*
X180176333Y-112881000D01*
X179992605Y-112844454D01*
X179819534Y-112772766D01*
X179742182Y-112721081D01*
X179663773Y-112668690D01*
X179531310Y-112536227D01*
X179427235Y-112380467D01*
X179427234Y-112380466D01*
X179355546Y-112207395D01*
X179319000Y-112023667D01*
X179319000Y-111836333D01*
X179355546Y-111652605D01*
X179427234Y-111479534D01*
X179531309Y-111323775D01*
X179531310Y-111323773D01*
X179663773Y-111191310D01*
X179819533Y-111087235D01*
X179819534Y-111087234D01*
X179992605Y-111015546D01*
X180176333Y-110979000D01*
X180363667Y-110979000D01*
X180547395Y-111015546D01*
X180547395Y-111015546D01*
G37*
G36*
X236157142Y-108748242D02*
G01*
X236305101Y-108809529D01*
X236438255Y-108898499D01*
X236551501Y-109011745D01*
X236640471Y-109144899D01*
X236701758Y-109292858D01*
X236733000Y-109449925D01*
X236733000Y-109610075D01*
X236701758Y-109767142D01*
X236640471Y-109915101D01*
X236551501Y-110048255D01*
X236438255Y-110161501D01*
X236305101Y-110250471D01*
X236157142Y-110311758D01*
X236000075Y-110343000D01*
X235839925Y-110343000D01*
X235682858Y-110311758D01*
X235534899Y-110250471D01*
X235401745Y-110161501D01*
X235288499Y-110048255D01*
X235199529Y-109915101D01*
X235138242Y-109767142D01*
X235107000Y-109610075D01*
X235107000Y-109449925D01*
X235138242Y-109292858D01*
X235199529Y-109144899D01*
X235288499Y-109011745D01*
X235401745Y-108898499D01*
X235534899Y-108809529D01*
X235682858Y-108748242D01*
X235839925Y-108717000D01*
X236000075Y-108717000D01*
X236157142Y-108748242D01*
X236157142Y-108748242D01*
G37*
G36*
X241237142Y-108748242D02*
G01*
X241385101Y-108809529D01*
X241518255Y-108898499D01*
X241631501Y-109011745D01*
X241720471Y-109144899D01*
X241781758Y-109292858D01*
X241813000Y-109449925D01*
X241813000Y-109610075D01*
X241781758Y-109767142D01*
X241720471Y-109915101D01*
X241631501Y-110048255D01*
X241518255Y-110161501D01*
X241385101Y-110250471D01*
X241237142Y-110311758D01*
X241080075Y-110343000D01*
X240919925Y-110343000D01*
X240762858Y-110311758D01*
X240614899Y-110250471D01*
X240481745Y-110161501D01*
X240368499Y-110048255D01*
X240279529Y-109915101D01*
X240218242Y-109767142D01*
X240187000Y-109610075D01*
X240187000Y-109449925D01*
X240218242Y-109292858D01*
X240279529Y-109144899D01*
X240368499Y-109011745D01*
X240481745Y-108898499D01*
X240614899Y-108809529D01*
X240762858Y-108748242D01*
X240919925Y-108717000D01*
X241080075Y-108717000D01*
X241237142Y-108748242D01*
X241237142Y-108748242D01*
G37*
G36*
X238697142Y-108748242D02*
G01*
X238845101Y-108809529D01*
X238978255Y-108898499D01*
X239091501Y-109011745D01*
X239180471Y-109144899D01*
X239241758Y-109292858D01*
X239273000Y-109449925D01*
X239273000Y-109610075D01*
X239241758Y-109767142D01*
X239180471Y-109915101D01*
X239091501Y-110048255D01*
X238978255Y-110161501D01*
X238845101Y-110250471D01*
X238697142Y-110311758D01*
X238540075Y-110343000D01*
X238379925Y-110343000D01*
X238222858Y-110311758D01*
X238074899Y-110250471D01*
X237941745Y-110161501D01*
X237828499Y-110048255D01*
X237739529Y-109915101D01*
X237678242Y-109767142D01*
X237647000Y-109610075D01*
X237647000Y-109449925D01*
X237678242Y-109292858D01*
X237739529Y-109144899D01*
X237828499Y-109011745D01*
X237941745Y-108898499D01*
X238074899Y-108809529D01*
X238222858Y-108748242D01*
X238379925Y-108717000D01*
X238540075Y-108717000D01*
X238697142Y-108748242D01*
X238697142Y-108748242D01*
G37*
G36*
X233617142Y-108748242D02*
G01*
X233765101Y-108809529D01*
X233898255Y-108898499D01*
X234011501Y-109011745D01*
X234100471Y-109144899D01*
X234161758Y-109292858D01*
X234193000Y-109449925D01*
X234193000Y-109610075D01*
X234161758Y-109767142D01*
X234100471Y-109915101D01*
X234011501Y-110048255D01*
X233898255Y-110161501D01*
X233765101Y-110250471D01*
X233617142Y-110311758D01*
X233460075Y-110343000D01*
X233299925Y-110343000D01*
X233142858Y-110311758D01*
X232994899Y-110250471D01*
X232861745Y-110161501D01*
X232748499Y-110048255D01*
X232659529Y-109915101D01*
X232598242Y-109767142D01*
X232567000Y-109610075D01*
X232567000Y-109449925D01*
X232598242Y-109292858D01*
X232659529Y-109144899D01*
X232748499Y-109011745D01*
X232861745Y-108898499D01*
X232994899Y-108809529D01*
X233142858Y-108748242D01*
X233299925Y-108717000D01*
X233460075Y-108717000D01*
X233617142Y-108748242D01*
X233617142Y-108748242D01*
G37*
G36*
X231077142Y-108748242D02*
G01*
X231225101Y-108809529D01*
X231358255Y-108898499D01*
X231471501Y-109011745D01*
X231560471Y-109144899D01*
X231621758Y-109292858D01*
X231653000Y-109449925D01*
X231653000Y-109610075D01*
X231621758Y-109767142D01*
X231560471Y-109915101D01*
X231471501Y-110048255D01*
X231358255Y-110161501D01*
X231225101Y-110250471D01*
X231077142Y-110311758D01*
X230920075Y-110343000D01*
X230759925Y-110343000D01*
X230602858Y-110311758D01*
X230454899Y-110250471D01*
X230321745Y-110161501D01*
X230208499Y-110048255D01*
X230119529Y-109915101D01*
X230058242Y-109767142D01*
X230027000Y-109610075D01*
X230027000Y-109449925D01*
X230058242Y-109292858D01*
X230119529Y-109144899D01*
X230208499Y-109011745D01*
X230321745Y-108898499D01*
X230454899Y-108809529D01*
X230602858Y-108748242D01*
X230759925Y-108717000D01*
X230920075Y-108717000D01*
X231077142Y-108748242D01*
X231077142Y-108748242D01*
G37*
G36*
X228537142Y-108748242D02*
G01*
X228685101Y-108809529D01*
X228818255Y-108898499D01*
X228931501Y-109011745D01*
X229020471Y-109144899D01*
X229081758Y-109292858D01*
X229113000Y-109449925D01*
X229113000Y-109610075D01*
X229081758Y-109767142D01*
X229020471Y-109915101D01*
X228931501Y-110048255D01*
X228818255Y-110161501D01*
X228685101Y-110250471D01*
X228537142Y-110311758D01*
X228380075Y-110343000D01*
X228219925Y-110343000D01*
X228062858Y-110311758D01*
X227914899Y-110250471D01*
X227781745Y-110161501D01*
X227668499Y-110048255D01*
X227579529Y-109915101D01*
X227518242Y-109767142D01*
X227487000Y-109610075D01*
X227487000Y-109449925D01*
X227518242Y-109292858D01*
X227579529Y-109144899D01*
X227668499Y-109011745D01*
X227781745Y-108898499D01*
X227914899Y-108809529D01*
X228062858Y-108748242D01*
X228219925Y-108717000D01*
X228380075Y-108717000D01*
X228537142Y-108748242D01*
X228537142Y-108748242D01*
G37*
G36*
X223457142Y-108748242D02*
G01*
X223605101Y-108809529D01*
X223738255Y-108898499D01*
X223851501Y-109011745D01*
X223940471Y-109144899D01*
X224001758Y-109292858D01*
X224033000Y-109449925D01*
X224033000Y-109610075D01*
X224001758Y-109767142D01*
X223940471Y-109915101D01*
X223851501Y-110048255D01*
X223738255Y-110161501D01*
X223605101Y-110250471D01*
X223457142Y-110311758D01*
X223300075Y-110343000D01*
X223139925Y-110343000D01*
X222982858Y-110311758D01*
X222834899Y-110250471D01*
X222701745Y-110161501D01*
X222588499Y-110048255D01*
X222499529Y-109915101D01*
X222438242Y-109767142D01*
X222407000Y-109610075D01*
X222407000Y-109449925D01*
X222438242Y-109292858D01*
X222499529Y-109144899D01*
X222588499Y-109011745D01*
X222701745Y-108898499D01*
X222834899Y-108809529D01*
X222982858Y-108748242D01*
X223139925Y-108717000D01*
X223300075Y-108717000D01*
X223457142Y-108748242D01*
X223457142Y-108748242D01*
G37*
G36*
X225997142Y-108748242D02*
G01*
X226145101Y-108809529D01*
X226278255Y-108898499D01*
X226391501Y-109011745D01*
X226480471Y-109144899D01*
X226541758Y-109292858D01*
X226573000Y-109449925D01*
X226573000Y-109610075D01*
X226541758Y-109767142D01*
X226480471Y-109915101D01*
X226391501Y-110048255D01*
X226278255Y-110161501D01*
X226145101Y-110250471D01*
X225997142Y-110311758D01*
X225840075Y-110343000D01*
X225679925Y-110343000D01*
X225522858Y-110311758D01*
X225374899Y-110250471D01*
X225241745Y-110161501D01*
X225128499Y-110048255D01*
X225039529Y-109915101D01*
X224978242Y-109767142D01*
X224947000Y-109610075D01*
X224947000Y-109449925D01*
X224978242Y-109292858D01*
X225039529Y-109144899D01*
X225128499Y-109011745D01*
X225241745Y-108898499D01*
X225374899Y-108809529D01*
X225522858Y-108748242D01*
X225679925Y-108717000D01*
X225840075Y-108717000D01*
X225997142Y-108748242D01*
X225997142Y-108748242D01*
G37*
G36*
X203948228Y-92931703D02*
G01*
X204103100Y-92995853D01*
X204242481Y-93088985D01*
X204361015Y-93207519D01*
X204454147Y-93346900D01*
X204518297Y-93501772D01*
X204551000Y-93666184D01*
X204551000Y-93833816D01*
X204518297Y-93998228D01*
X204454147Y-94153100D01*
X204361015Y-94292481D01*
X204242481Y-94411015D01*
X204103100Y-94504147D01*
X203948228Y-94568297D01*
X203783816Y-94601000D01*
X203616184Y-94601000D01*
X203451772Y-94568297D01*
X203296900Y-94504147D01*
X203157519Y-94411015D01*
X203038985Y-94292481D01*
X202945853Y-94153100D01*
X202881703Y-93998228D01*
X202849000Y-93833816D01*
X202849000Y-93666184D01*
X202881703Y-93501772D01*
X202945853Y-93346900D01*
X203038985Y-93207519D01*
X203157519Y-93088985D01*
X203296900Y-92995853D01*
X203451772Y-92931703D01*
X203616184Y-92899000D01*
X203783816Y-92899000D01*
X203948228Y-92931703D01*
X203948228Y-92931703D01*
G37*
G36*
X214026823Y-92911313D02*
G01*
X214187242Y-92959976D01*
X214254361Y-92995852D01*
X214335078Y-93038996D01*
X214464659Y-93145341D01*
X214571004Y-93274922D01*
X214571005Y-93274924D01*
X214650024Y-93422758D01*
X214698687Y-93583177D01*
X214715117Y-93750000D01*
X214698687Y-93916823D01*
X214650024Y-94077242D01*
X214609477Y-94153100D01*
X214571004Y-94225078D01*
X214464659Y-94354659D01*
X214335078Y-94461004D01*
X214335076Y-94461005D01*
X214187242Y-94540024D01*
X214026823Y-94588687D01*
X213901804Y-94601000D01*
X213818196Y-94601000D01*
X213693177Y-94588687D01*
X213532758Y-94540024D01*
X213384924Y-94461005D01*
X213384922Y-94461004D01*
X213255341Y-94354659D01*
X213148996Y-94225078D01*
X213110523Y-94153100D01*
X213069976Y-94077242D01*
X213021313Y-93916823D01*
X213004883Y-93750000D01*
X213021313Y-93583177D01*
X213069976Y-93422758D01*
X213148995Y-93274924D01*
X213148996Y-93274922D01*
X213255341Y-93145341D01*
X213384922Y-93038996D01*
X213465639Y-92995852D01*
X213532758Y-92959976D01*
X213693177Y-92911313D01*
X213818196Y-92899000D01*
X213901804Y-92899000D01*
X214026823Y-92911313D01*
X214026823Y-92911313D01*
G37*
G36*
X233617142Y-90718242D02*
G01*
X233765101Y-90779529D01*
X233898255Y-90868499D01*
X234011501Y-90981745D01*
X234100471Y-91114899D01*
X234161758Y-91262858D01*
X234193000Y-91419925D01*
X234193000Y-91580075D01*
X234161758Y-91737142D01*
X234100471Y-91885101D01*
X234011501Y-92018255D01*
X233898255Y-92131501D01*
X233765101Y-92220471D01*
X233617142Y-92281758D01*
X233460075Y-92313000D01*
X233299925Y-92313000D01*
X233142858Y-92281758D01*
X232994899Y-92220471D01*
X232861745Y-92131501D01*
X232748499Y-92018255D01*
X232659529Y-91885101D01*
X232598242Y-91737142D01*
X232567000Y-91580075D01*
X232567000Y-91419925D01*
X232598242Y-91262858D01*
X232659529Y-91114899D01*
X232748499Y-90981745D01*
X232861745Y-90868499D01*
X232994899Y-90779529D01*
X233142858Y-90718242D01*
X233299925Y-90687000D01*
X233460075Y-90687000D01*
X233617142Y-90718242D01*
X233617142Y-90718242D01*
G37*
G36*
X241237142Y-90718242D02*
G01*
X241385101Y-90779529D01*
X241518255Y-90868499D01*
X241631501Y-90981745D01*
X241720471Y-91114899D01*
X241781758Y-91262858D01*
X241813000Y-91419925D01*
X241813000Y-91580075D01*
X241781758Y-91737142D01*
X241720471Y-91885101D01*
X241631501Y-92018255D01*
X241518255Y-92131501D01*
X241385101Y-92220471D01*
X241237142Y-92281758D01*
X241080075Y-92313000D01*
X240919925Y-92313000D01*
X240762858Y-92281758D01*
X240614899Y-92220471D01*
X240481745Y-92131501D01*
X240368499Y-92018255D01*
X240279529Y-91885101D01*
X240218242Y-91737142D01*
X240187000Y-91580075D01*
X240187000Y-91419925D01*
X240218242Y-91262858D01*
X240279529Y-91114899D01*
X240368499Y-90981745D01*
X240481745Y-90868499D01*
X240614899Y-90779529D01*
X240762858Y-90718242D01*
X240919925Y-90687000D01*
X241080075Y-90687000D01*
X241237142Y-90718242D01*
X241237142Y-90718242D01*
G37*
G36*
X231077142Y-90718242D02*
G01*
X231225101Y-90779529D01*
X231358255Y-90868499D01*
X231471501Y-90981745D01*
X231560471Y-91114899D01*
X231621758Y-91262858D01*
X231653000Y-91419925D01*
X231653000Y-91580075D01*
X231621758Y-91737142D01*
X231560471Y-91885101D01*
X231471501Y-92018255D01*
X231358255Y-92131501D01*
X231225101Y-92220471D01*
X231077142Y-92281758D01*
X230920075Y-92313000D01*
X230759925Y-92313000D01*
X230602858Y-92281758D01*
X230454899Y-92220471D01*
X230321745Y-92131501D01*
X230208499Y-92018255D01*
X230119529Y-91885101D01*
X230058242Y-91737142D01*
X230027000Y-91580075D01*
X230027000Y-91419925D01*
X230058242Y-91262858D01*
X230119529Y-91114899D01*
X230208499Y-90981745D01*
X230321745Y-90868499D01*
X230454899Y-90779529D01*
X230602858Y-90718242D01*
X230759925Y-90687000D01*
X230920075Y-90687000D01*
X231077142Y-90718242D01*
X231077142Y-90718242D01*
G37*
G36*
X236157142Y-90718242D02*
G01*
X236305101Y-90779529D01*
X236438255Y-90868499D01*
X236551501Y-90981745D01*
X236640471Y-91114899D01*
X236701758Y-91262858D01*
X236733000Y-91419925D01*
X236733000Y-91580075D01*
X236701758Y-91737142D01*
X236640471Y-91885101D01*
X236551501Y-92018255D01*
X236438255Y-92131501D01*
X236305101Y-92220471D01*
X236157142Y-92281758D01*
X236000075Y-92313000D01*
X235839925Y-92313000D01*
X235682858Y-92281758D01*
X235534899Y-92220471D01*
X235401745Y-92131501D01*
X235288499Y-92018255D01*
X235199529Y-91885101D01*
X235138242Y-91737142D01*
X235107000Y-91580075D01*
X235107000Y-91419925D01*
X235138242Y-91262858D01*
X235199529Y-91114899D01*
X235288499Y-90981745D01*
X235401745Y-90868499D01*
X235534899Y-90779529D01*
X235682858Y-90718242D01*
X235839925Y-90687000D01*
X236000075Y-90687000D01*
X236157142Y-90718242D01*
X236157142Y-90718242D01*
G37*
G36*
X225997142Y-90718242D02*
G01*
X226145101Y-90779529D01*
X226278255Y-90868499D01*
X226391501Y-90981745D01*
X226480471Y-91114899D01*
X226541758Y-91262858D01*
X226573000Y-91419925D01*
X226573000Y-91580075D01*
X226541758Y-91737142D01*
X226480471Y-91885101D01*
X226391501Y-92018255D01*
X226278255Y-92131501D01*
X226145101Y-92220471D01*
X225997142Y-92281758D01*
X225840075Y-92313000D01*
X225679925Y-92313000D01*
X225522858Y-92281758D01*
X225374899Y-92220471D01*
X225241745Y-92131501D01*
X225128499Y-92018255D01*
X225039529Y-91885101D01*
X224978242Y-91737142D01*
X224947000Y-91580075D01*
X224947000Y-91419925D01*
X224978242Y-91262858D01*
X225039529Y-91114899D01*
X225128499Y-90981745D01*
X225241745Y-90868499D01*
X225374899Y-90779529D01*
X225522858Y-90718242D01*
X225679925Y-90687000D01*
X225840075Y-90687000D01*
X225997142Y-90718242D01*
X225997142Y-90718242D01*
G37*
G36*
X223457142Y-90718242D02*
G01*
X223605101Y-90779529D01*
X223738255Y-90868499D01*
X223851501Y-90981745D01*
X223940471Y-91114899D01*
X224001758Y-91262858D01*
X224033000Y-91419925D01*
X224033000Y-91580075D01*
X224001758Y-91737142D01*
X223940471Y-91885101D01*
X223851501Y-92018255D01*
X223738255Y-92131501D01*
X223605101Y-92220471D01*
X223457142Y-92281758D01*
X223300075Y-92313000D01*
X223139925Y-92313000D01*
X222982858Y-92281758D01*
X222834899Y-92220471D01*
X222701745Y-92131501D01*
X222588499Y-92018255D01*
X222499529Y-91885101D01*
X222438242Y-91737142D01*
X222407000Y-91580075D01*
X222407000Y-91419925D01*
X222438242Y-91262858D01*
X222499529Y-91114899D01*
X222588499Y-90981745D01*
X222701745Y-90868499D01*
X222834899Y-90779529D01*
X222982858Y-90718242D01*
X223139925Y-90687000D01*
X223300075Y-90687000D01*
X223457142Y-90718242D01*
X223457142Y-90718242D01*
G37*
G36*
X228537142Y-90718242D02*
G01*
X228685101Y-90779529D01*
X228818255Y-90868499D01*
X228931501Y-90981745D01*
X229020471Y-91114899D01*
X229081758Y-91262858D01*
X229113000Y-91419925D01*
X229113000Y-91580075D01*
X229081758Y-91737142D01*
X229020471Y-91885101D01*
X228931501Y-92018255D01*
X228818255Y-92131501D01*
X228685101Y-92220471D01*
X228537142Y-92281758D01*
X228380075Y-92313000D01*
X228219925Y-92313000D01*
X228062858Y-92281758D01*
X227914899Y-92220471D01*
X227781745Y-92131501D01*
X227668499Y-92018255D01*
X227579529Y-91885101D01*
X227518242Y-91737142D01*
X227487000Y-91580075D01*
X227487000Y-91419925D01*
X227518242Y-91262858D01*
X227579529Y-91114899D01*
X227668499Y-90981745D01*
X227781745Y-90868499D01*
X227914899Y-90779529D01*
X228062858Y-90718242D01*
X228219925Y-90687000D01*
X228380075Y-90687000D01*
X228537142Y-90718242D01*
X228537142Y-90718242D01*
G37*
G36*
X238697142Y-90718242D02*
G01*
X238845101Y-90779529D01*
X238978255Y-90868499D01*
X239091501Y-90981745D01*
X239180471Y-91114899D01*
X239241758Y-91262858D01*
X239273000Y-91419925D01*
X239273000Y-91580075D01*
X239241758Y-91737142D01*
X239180471Y-91885101D01*
X239091501Y-92018255D01*
X238978255Y-92131501D01*
X238845101Y-92220471D01*
X238697142Y-92281758D01*
X238540075Y-92313000D01*
X238379925Y-92313000D01*
X238222858Y-92281758D01*
X238074899Y-92220471D01*
X237941745Y-92131501D01*
X237828499Y-92018255D01*
X237739529Y-91885101D01*
X237678242Y-91737142D01*
X237647000Y-91580075D01*
X237647000Y-91419925D01*
X237678242Y-91262858D01*
X237739529Y-91114899D01*
X237828499Y-90981745D01*
X237941745Y-90868499D01*
X238074899Y-90779529D01*
X238222858Y-90718242D01*
X238379925Y-90687000D01*
X238540075Y-90687000D01*
X238697142Y-90718242D01*
X238697142Y-90718242D01*
G37*
G36*
X203948228Y-88881703D02*
G01*
X204103100Y-88945853D01*
X204242481Y-89038985D01*
X204361015Y-89157519D01*
X204454147Y-89296900D01*
X204518297Y-89451772D01*
X204551000Y-89616184D01*
X204551000Y-89783816D01*
X204518297Y-89948228D01*
X204454147Y-90103100D01*
X204361015Y-90242481D01*
X204242481Y-90361015D01*
X204103100Y-90454147D01*
X203948228Y-90518297D01*
X203783816Y-90551000D01*
X203616184Y-90551000D01*
X203451772Y-90518297D01*
X203296900Y-90454147D01*
X203157519Y-90361015D01*
X203038985Y-90242481D01*
X202945853Y-90103100D01*
X202881703Y-89948228D01*
X202849000Y-89783816D01*
X202849000Y-89616184D01*
X202881703Y-89451772D01*
X202945853Y-89296900D01*
X203038985Y-89157519D01*
X203157519Y-89038985D01*
X203296900Y-88945853D01*
X203451772Y-88881703D01*
X203616184Y-88849000D01*
X203783816Y-88849000D01*
X203948228Y-88881703D01*
X203948228Y-88881703D01*
G37*
G36*
X214026823Y-88861313D02*
G01*
X214187242Y-88909976D01*
X214254361Y-88945852D01*
X214335078Y-88988996D01*
X214464659Y-89095341D01*
X214571004Y-89224922D01*
X214571005Y-89224924D01*
X214650024Y-89372758D01*
X214698687Y-89533177D01*
X214715117Y-89700000D01*
X214698687Y-89866823D01*
X214650024Y-90027242D01*
X214609477Y-90103100D01*
X214571004Y-90175078D01*
X214464659Y-90304659D01*
X214335078Y-90411004D01*
X214335076Y-90411005D01*
X214187242Y-90490024D01*
X214026823Y-90538687D01*
X213901804Y-90551000D01*
X213818196Y-90551000D01*
X213693177Y-90538687D01*
X213532758Y-90490024D01*
X213384924Y-90411005D01*
X213384922Y-90411004D01*
X213255341Y-90304659D01*
X213148996Y-90175078D01*
X213110523Y-90103100D01*
X213069976Y-90027242D01*
X213021313Y-89866823D01*
X213004883Y-89700000D01*
X213021313Y-89533177D01*
X213069976Y-89372758D01*
X213148995Y-89224924D01*
X213148996Y-89224922D01*
X213255341Y-89095341D01*
X213384922Y-88988996D01*
X213465639Y-88945852D01*
X213532758Y-88909976D01*
X213693177Y-88861313D01*
X213818196Y-88849000D01*
X213901804Y-88849000D01*
X214026823Y-88861313D01*
X214026823Y-88861313D01*
G37*
G36*
X170387395Y-88155546D02*
G01*
X170560466Y-88227234D01*
X170560467Y-88227235D01*
X170716227Y-88331310D01*
X170848690Y-88463773D01*
X170848691Y-88463775D01*
X170952766Y-88619534D01*
X171024454Y-88792605D01*
X171061000Y-88976333D01*
X171061000Y-89163667D01*
X171024454Y-89347395D01*
X170952766Y-89520466D01*
X170901081Y-89597818D01*
X170848690Y-89676227D01*
X170716227Y-89808690D01*
X170637818Y-89861081D01*
X170560466Y-89912766D01*
X170387395Y-89984454D01*
X170203667Y-90021000D01*
X170016333Y-90021000D01*
X169832605Y-89984454D01*
X169659534Y-89912766D01*
X169582182Y-89861081D01*
X169503773Y-89808690D01*
X169371310Y-89676227D01*
X169318919Y-89597818D01*
X169267234Y-89520466D01*
X169195546Y-89347395D01*
X169159000Y-89163667D01*
X169159000Y-88976333D01*
X169195546Y-88792605D01*
X169267234Y-88619534D01*
X169371309Y-88463775D01*
X169371310Y-88463773D01*
X169503773Y-88331310D01*
X169659533Y-88227235D01*
X169659534Y-88227234D01*
X169832605Y-88155546D01*
X170016333Y-88119000D01*
X170203667Y-88119000D01*
X170387395Y-88155546D01*
X170387395Y-88155546D01*
G37*
G36*
X185627395Y-88155546D02*
G01*
X185800466Y-88227234D01*
X185800467Y-88227235D01*
X185956227Y-88331310D01*
X186088690Y-88463773D01*
X186088691Y-88463775D01*
X186192766Y-88619534D01*
X186264454Y-88792605D01*
X186301000Y-88976333D01*
X186301000Y-89163667D01*
X186264454Y-89347395D01*
X186192766Y-89520466D01*
X186141081Y-89597818D01*
X186088690Y-89676227D01*
X185956227Y-89808690D01*
X185877818Y-89861081D01*
X185800466Y-89912766D01*
X185627395Y-89984454D01*
X185443667Y-90021000D01*
X185256333Y-90021000D01*
X185072605Y-89984454D01*
X184899534Y-89912766D01*
X184822182Y-89861081D01*
X184743773Y-89808690D01*
X184611310Y-89676227D01*
X184558919Y-89597818D01*
X184507234Y-89520466D01*
X184435546Y-89347395D01*
X184399000Y-89163667D01*
X184399000Y-88976333D01*
X184435546Y-88792605D01*
X184507234Y-88619534D01*
X184611309Y-88463775D01*
X184611310Y-88463773D01*
X184743773Y-88331310D01*
X184899533Y-88227235D01*
X184899534Y-88227234D01*
X185072605Y-88155546D01*
X185256333Y-88119000D01*
X185443667Y-88119000D01*
X185627395Y-88155546D01*
X185627395Y-88155546D01*
G37*
G36*
X188167395Y-88155546D02*
G01*
X188340466Y-88227234D01*
X188340467Y-88227235D01*
X188496227Y-88331310D01*
X188628690Y-88463773D01*
X188628691Y-88463775D01*
X188732766Y-88619534D01*
X188804454Y-88792605D01*
X188841000Y-88976333D01*
X188841000Y-89163667D01*
X188804454Y-89347395D01*
X188732766Y-89520466D01*
X188681081Y-89597818D01*
X188628690Y-89676227D01*
X188496227Y-89808690D01*
X188417818Y-89861081D01*
X188340466Y-89912766D01*
X188167395Y-89984454D01*
X187983667Y-90021000D01*
X187796333Y-90021000D01*
X187612605Y-89984454D01*
X187439534Y-89912766D01*
X187362182Y-89861081D01*
X187283773Y-89808690D01*
X187151310Y-89676227D01*
X187098919Y-89597818D01*
X187047234Y-89520466D01*
X186975546Y-89347395D01*
X186939000Y-89163667D01*
X186939000Y-88976333D01*
X186975546Y-88792605D01*
X187047234Y-88619534D01*
X187151309Y-88463775D01*
X187151310Y-88463773D01*
X187283773Y-88331310D01*
X187439533Y-88227235D01*
X187439534Y-88227234D01*
X187612605Y-88155546D01*
X187796333Y-88119000D01*
X187983667Y-88119000D01*
X188167395Y-88155546D01*
X188167395Y-88155546D01*
G37*
G36*
X172927395Y-88155546D02*
G01*
X173100466Y-88227234D01*
X173100467Y-88227235D01*
X173256227Y-88331310D01*
X173388690Y-88463773D01*
X173388691Y-88463775D01*
X173492766Y-88619534D01*
X173564454Y-88792605D01*
X173601000Y-88976333D01*
X173601000Y-89163667D01*
X173564454Y-89347395D01*
X173492766Y-89520466D01*
X173441081Y-89597818D01*
X173388690Y-89676227D01*
X173256227Y-89808690D01*
X173177818Y-89861081D01*
X173100466Y-89912766D01*
X172927395Y-89984454D01*
X172743667Y-90021000D01*
X172556333Y-90021000D01*
X172372605Y-89984454D01*
X172199534Y-89912766D01*
X172122182Y-89861081D01*
X172043773Y-89808690D01*
X171911310Y-89676227D01*
X171858919Y-89597818D01*
X171807234Y-89520466D01*
X171735546Y-89347395D01*
X171699000Y-89163667D01*
X171699000Y-88976333D01*
X171735546Y-88792605D01*
X171807234Y-88619534D01*
X171911309Y-88463775D01*
X171911310Y-88463773D01*
X172043773Y-88331310D01*
X172199533Y-88227235D01*
X172199534Y-88227234D01*
X172372605Y-88155546D01*
X172556333Y-88119000D01*
X172743667Y-88119000D01*
X172927395Y-88155546D01*
X172927395Y-88155546D01*
G37*
G36*
X175467395Y-88155546D02*
G01*
X175640466Y-88227234D01*
X175640467Y-88227235D01*
X175796227Y-88331310D01*
X175928690Y-88463773D01*
X175928691Y-88463775D01*
X176032766Y-88619534D01*
X176104454Y-88792605D01*
X176141000Y-88976333D01*
X176141000Y-89163667D01*
X176104454Y-89347395D01*
X176032766Y-89520466D01*
X175981081Y-89597818D01*
X175928690Y-89676227D01*
X175796227Y-89808690D01*
X175717818Y-89861081D01*
X175640466Y-89912766D01*
X175467395Y-89984454D01*
X175283667Y-90021000D01*
X175096333Y-90021000D01*
X174912605Y-89984454D01*
X174739534Y-89912766D01*
X174662182Y-89861081D01*
X174583773Y-89808690D01*
X174451310Y-89676227D01*
X174398919Y-89597818D01*
X174347234Y-89520466D01*
X174275546Y-89347395D01*
X174239000Y-89163667D01*
X174239000Y-88976333D01*
X174275546Y-88792605D01*
X174347234Y-88619534D01*
X174451309Y-88463775D01*
X174451310Y-88463773D01*
X174583773Y-88331310D01*
X174739533Y-88227235D01*
X174739534Y-88227234D01*
X174912605Y-88155546D01*
X175096333Y-88119000D01*
X175283667Y-88119000D01*
X175467395Y-88155546D01*
X175467395Y-88155546D01*
G37*
G36*
X178007395Y-88155546D02*
G01*
X178180466Y-88227234D01*
X178180467Y-88227235D01*
X178336227Y-88331310D01*
X178468690Y-88463773D01*
X178468691Y-88463775D01*
X178572766Y-88619534D01*
X178644454Y-88792605D01*
X178681000Y-88976333D01*
X178681000Y-89163667D01*
X178644454Y-89347395D01*
X178572766Y-89520466D01*
X178521081Y-89597818D01*
X178468690Y-89676227D01*
X178336227Y-89808690D01*
X178257818Y-89861081D01*
X178180466Y-89912766D01*
X178007395Y-89984454D01*
X177823667Y-90021000D01*
X177636333Y-90021000D01*
X177452605Y-89984454D01*
X177279534Y-89912766D01*
X177202182Y-89861081D01*
X177123773Y-89808690D01*
X176991310Y-89676227D01*
X176938919Y-89597818D01*
X176887234Y-89520466D01*
X176815546Y-89347395D01*
X176779000Y-89163667D01*
X176779000Y-88976333D01*
X176815546Y-88792605D01*
X176887234Y-88619534D01*
X176991309Y-88463775D01*
X176991310Y-88463773D01*
X177123773Y-88331310D01*
X177279533Y-88227235D01*
X177279534Y-88227234D01*
X177452605Y-88155546D01*
X177636333Y-88119000D01*
X177823667Y-88119000D01*
X178007395Y-88155546D01*
X178007395Y-88155546D01*
G37*
G36*
X180547395Y-88155546D02*
G01*
X180720466Y-88227234D01*
X180720467Y-88227235D01*
X180876227Y-88331310D01*
X181008690Y-88463773D01*
X181008691Y-88463775D01*
X181112766Y-88619534D01*
X181184454Y-88792605D01*
X181221000Y-88976333D01*
X181221000Y-89163667D01*
X181184454Y-89347395D01*
X181112766Y-89520466D01*
X181061081Y-89597818D01*
X181008690Y-89676227D01*
X180876227Y-89808690D01*
X180797818Y-89861081D01*
X180720466Y-89912766D01*
X180547395Y-89984454D01*
X180363667Y-90021000D01*
X180176333Y-90021000D01*
X179992605Y-89984454D01*
X179819534Y-89912766D01*
X179742182Y-89861081D01*
X179663773Y-89808690D01*
X179531310Y-89676227D01*
X179478919Y-89597818D01*
X179427234Y-89520466D01*
X179355546Y-89347395D01*
X179319000Y-89163667D01*
X179319000Y-88976333D01*
X179355546Y-88792605D01*
X179427234Y-88619534D01*
X179531309Y-88463775D01*
X179531310Y-88463773D01*
X179663773Y-88331310D01*
X179819533Y-88227235D01*
X179819534Y-88227234D01*
X179992605Y-88155546D01*
X180176333Y-88119000D01*
X180363667Y-88119000D01*
X180547395Y-88155546D01*
X180547395Y-88155546D01*
G37*
G36*
X183087395Y-88155546D02*
G01*
X183260466Y-88227234D01*
X183260467Y-88227235D01*
X183416227Y-88331310D01*
X183548690Y-88463773D01*
X183548691Y-88463775D01*
X183652766Y-88619534D01*
X183724454Y-88792605D01*
X183761000Y-88976333D01*
X183761000Y-89163667D01*
X183724454Y-89347395D01*
X183652766Y-89520466D01*
X183601081Y-89597818D01*
X183548690Y-89676227D01*
X183416227Y-89808690D01*
X183337818Y-89861081D01*
X183260466Y-89912766D01*
X183087395Y-89984454D01*
X182903667Y-90021000D01*
X182716333Y-90021000D01*
X182532605Y-89984454D01*
X182359534Y-89912766D01*
X182282182Y-89861081D01*
X182203773Y-89808690D01*
X182071310Y-89676227D01*
X182018919Y-89597818D01*
X181967234Y-89520466D01*
X181895546Y-89347395D01*
X181859000Y-89163667D01*
X181859000Y-88976333D01*
X181895546Y-88792605D01*
X181967234Y-88619534D01*
X182071309Y-88463775D01*
X182071310Y-88463773D01*
X182203773Y-88331310D01*
X182359533Y-88227235D01*
X182359534Y-88227234D01*
X182532605Y-88155546D01*
X182716333Y-88119000D01*
X182903667Y-88119000D01*
X183087395Y-88155546D01*
X183087395Y-88155546D01*
G37*
G36*
X242248228Y-84181703D02*
G01*
X242403100Y-84245853D01*
X242542481Y-84338985D01*
X242661015Y-84457519D01*
X242754147Y-84596900D01*
X242818297Y-84751772D01*
X242851000Y-84916184D01*
X242851000Y-85083816D01*
X242818297Y-85248228D01*
X242754147Y-85403100D01*
X242661015Y-85542481D01*
X242542481Y-85661015D01*
X242403100Y-85754147D01*
X242248228Y-85818297D01*
X242083816Y-85851000D01*
X241916184Y-85851000D01*
X241751772Y-85818297D01*
X241596900Y-85754147D01*
X241457519Y-85661015D01*
X241338985Y-85542481D01*
X241245853Y-85403100D01*
X241181703Y-85248228D01*
X241149000Y-85083816D01*
X241149000Y-84916184D01*
X241181703Y-84751772D01*
X241245853Y-84596900D01*
X241338985Y-84457519D01*
X241457519Y-84338985D01*
X241596900Y-84245853D01*
X241751772Y-84181703D01*
X241916184Y-84149000D01*
X242083816Y-84149000D01*
X242248228Y-84181703D01*
X242248228Y-84181703D01*
G37*
G36*
X237248228Y-84181703D02*
G01*
X237403100Y-84245853D01*
X237542481Y-84338985D01*
X237661015Y-84457519D01*
X237754147Y-84596900D01*
X237818297Y-84751772D01*
X237851000Y-84916184D01*
X237851000Y-85083816D01*
X237818297Y-85248228D01*
X237754147Y-85403100D01*
X237661015Y-85542481D01*
X237542481Y-85661015D01*
X237403100Y-85754147D01*
X237248228Y-85818297D01*
X237083816Y-85851000D01*
X236916184Y-85851000D01*
X236751772Y-85818297D01*
X236596900Y-85754147D01*
X236457519Y-85661015D01*
X236338985Y-85542481D01*
X236245853Y-85403100D01*
X236181703Y-85248228D01*
X236149000Y-85083816D01*
X236149000Y-84916184D01*
X236181703Y-84751772D01*
X236245853Y-84596900D01*
X236338985Y-84457519D01*
X236457519Y-84338985D01*
X236596900Y-84245853D01*
X236751772Y-84181703D01*
X236916184Y-84149000D01*
X237083816Y-84149000D01*
X237248228Y-84181703D01*
X237248228Y-84181703D01*
G37*
G36*
X182826823Y-82161313D02*
G01*
X182987242Y-82209976D01*
X183054361Y-82245852D01*
X183135078Y-82288996D01*
X183264659Y-82395341D01*
X183371004Y-82524922D01*
X183371005Y-82524924D01*
X183450024Y-82672758D01*
X183498687Y-82833177D01*
X183515117Y-83000000D01*
X183498687Y-83166823D01*
X183450024Y-83327242D01*
X183409477Y-83403100D01*
X183371004Y-83475078D01*
X183264659Y-83604659D01*
X183135078Y-83711004D01*
X183135076Y-83711005D01*
X182987242Y-83790024D01*
X182826823Y-83838687D01*
X182701804Y-83851000D01*
X182618196Y-83851000D01*
X182493177Y-83838687D01*
X182332758Y-83790024D01*
X182184924Y-83711005D01*
X182184922Y-83711004D01*
X182055341Y-83604659D01*
X181948996Y-83475078D01*
X181910523Y-83403100D01*
X181869976Y-83327242D01*
X181821313Y-83166823D01*
X181804883Y-83000000D01*
X181821313Y-82833177D01*
X181869976Y-82672758D01*
X181948995Y-82524924D01*
X181948996Y-82524922D01*
X182055341Y-82395341D01*
X182184922Y-82288996D01*
X182265639Y-82245852D01*
X182332758Y-82209976D01*
X182493177Y-82161313D01*
X182618196Y-82149000D01*
X182701804Y-82149000D01*
X182826823Y-82161313D01*
X182826823Y-82161313D01*
G37*
G36*
X172748228Y-82181703D02*
G01*
X172903100Y-82245853D01*
X173042481Y-82338985D01*
X173161015Y-82457519D01*
X173254147Y-82596900D01*
X173318297Y-82751772D01*
X173351000Y-82916184D01*
X173351000Y-83083816D01*
X173318297Y-83248228D01*
X173254147Y-83403100D01*
X173161015Y-83542481D01*
X173042481Y-83661015D01*
X172903100Y-83754147D01*
X172748228Y-83818297D01*
X172583816Y-83851000D01*
X172416184Y-83851000D01*
X172251772Y-83818297D01*
X172096900Y-83754147D01*
X171957519Y-83661015D01*
X171838985Y-83542481D01*
X171745853Y-83403100D01*
X171681703Y-83248228D01*
X171649000Y-83083816D01*
X171649000Y-82916184D01*
X171681703Y-82751772D01*
X171745853Y-82596900D01*
X171838985Y-82457519D01*
X171957519Y-82338985D01*
X172096900Y-82245853D01*
X172251772Y-82181703D01*
X172416184Y-82149000D01*
X172583816Y-82149000D01*
X172748228Y-82181703D01*
X172748228Y-82181703D01*
G37*
G36*
X228360442Y-78645518D02*
G01*
X228426627Y-78652037D01*
X228596466Y-78703557D01*
X228752991Y-78787222D01*
X228782268Y-78811249D01*
X228890186Y-78899814D01*
X228973448Y-79001271D01*
X229002778Y-79037009D01*
X229086443Y-79193534D01*
X229137963Y-79363373D01*
X229155359Y-79540000D01*
X229137963Y-79716627D01*
X229086443Y-79886466D01*
X229002778Y-80042991D01*
X228973448Y-80078729D01*
X228890186Y-80180186D01*
X228788729Y-80263448D01*
X228752991Y-80292778D01*
X228596466Y-80376443D01*
X228426627Y-80427963D01*
X228360442Y-80434482D01*
X228294260Y-80441000D01*
X226905740Y-80441000D01*
X226839558Y-80434482D01*
X226773373Y-80427963D01*
X226603534Y-80376443D01*
X226447009Y-80292778D01*
X226411271Y-80263448D01*
X226309814Y-80180186D01*
X226226552Y-80078729D01*
X226197222Y-80042991D01*
X226113557Y-79886466D01*
X226062037Y-79716627D01*
X226044641Y-79540000D01*
X226062037Y-79363373D01*
X226113557Y-79193534D01*
X226197222Y-79037009D01*
X226226552Y-79001271D01*
X226309814Y-78899814D01*
X226417732Y-78811249D01*
X226447009Y-78787222D01*
X226603534Y-78703557D01*
X226773373Y-78652037D01*
X226839558Y-78645518D01*
X226905740Y-78639000D01*
X228294260Y-78639000D01*
X228360442Y-78645518D01*
X228360442Y-78645518D01*
G37*
G36*
X167260442Y-78645518D02*
G01*
X167326627Y-78652037D01*
X167496466Y-78703557D01*
X167652991Y-78787222D01*
X167682268Y-78811249D01*
X167790186Y-78899814D01*
X167873448Y-79001271D01*
X167902778Y-79037009D01*
X167986443Y-79193534D01*
X168037963Y-79363373D01*
X168055359Y-79540000D01*
X168037963Y-79716627D01*
X167986443Y-79886466D01*
X167902778Y-80042991D01*
X167873448Y-80078729D01*
X167790186Y-80180186D01*
X167688729Y-80263448D01*
X167652991Y-80292778D01*
X167496466Y-80376443D01*
X167326627Y-80427963D01*
X167260442Y-80434482D01*
X167194260Y-80441000D01*
X165805740Y-80441000D01*
X165739558Y-80434482D01*
X165673373Y-80427963D01*
X165503534Y-80376443D01*
X165347009Y-80292778D01*
X165311271Y-80263448D01*
X165209814Y-80180186D01*
X165126552Y-80078729D01*
X165097222Y-80042991D01*
X165013557Y-79886466D01*
X164962037Y-79716627D01*
X164944641Y-79540000D01*
X164962037Y-79363373D01*
X165013557Y-79193534D01*
X165097222Y-79037009D01*
X165126552Y-79001271D01*
X165209814Y-78899814D01*
X165317732Y-78811249D01*
X165347009Y-78787222D01*
X165503534Y-78703557D01*
X165673373Y-78652037D01*
X165739558Y-78645518D01*
X165805740Y-78639000D01*
X167194260Y-78639000D01*
X167260442Y-78645518D01*
X167260442Y-78645518D01*
G37*
G36*
X235136627Y-75962037D02*
G01*
X235306466Y-76013557D01*
X235462991Y-76097222D01*
X235492909Y-76121775D01*
X235600186Y-76209814D01*
X235651035Y-76271775D01*
X235712778Y-76347009D01*
X235796443Y-76503534D01*
X235847963Y-76673373D01*
X235861000Y-76805742D01*
X235861000Y-78194258D01*
X235847963Y-78326627D01*
X235796443Y-78496466D01*
X235712778Y-78652991D01*
X235683728Y-78688388D01*
X235600186Y-78790186D01*
X235462989Y-78902779D01*
X235432544Y-78919052D01*
X235306465Y-78986443D01*
X235136626Y-79037963D01*
X234960000Y-79055359D01*
X234783373Y-79037963D01*
X234613534Y-78986443D01*
X234457009Y-78902778D01*
X234421271Y-78873448D01*
X234319814Y-78790186D01*
X234207221Y-78652989D01*
X234123558Y-78496467D01*
X234117069Y-78475077D01*
X234072037Y-78326626D01*
X234059000Y-78194257D01*
X234059001Y-76805742D01*
X234072038Y-76673373D01*
X234123558Y-76503534D01*
X234207223Y-76347009D01*
X234268966Y-76271775D01*
X234319815Y-76209814D01*
X234427092Y-76121775D01*
X234457010Y-76097222D01*
X234613535Y-76013557D01*
X234783374Y-75962037D01*
X234960000Y-75944641D01*
X235136627Y-75962037D01*
X235136627Y-75962037D01*
G37*
G36*
X238088578Y-75957048D02*
G01*
X238161249Y-75979093D01*
X238228225Y-76014892D01*
X238286930Y-76063070D01*
X238335108Y-76121775D01*
X238370907Y-76188751D01*
X238392952Y-76261422D01*
X238401000Y-76343140D01*
X238401000Y-78656860D01*
X238392952Y-78738578D01*
X238370907Y-78811249D01*
X238335108Y-78878225D01*
X238286930Y-78936930D01*
X238228225Y-78985108D01*
X238161249Y-79020907D01*
X238088578Y-79042952D01*
X238006860Y-79051000D01*
X236993140Y-79051000D01*
X236911422Y-79042952D01*
X236838751Y-79020907D01*
X236771775Y-78985108D01*
X236713070Y-78936930D01*
X236664892Y-78878225D01*
X236629093Y-78811249D01*
X236607048Y-78738578D01*
X236599000Y-78656860D01*
X236599000Y-76343140D01*
X236607048Y-76261422D01*
X236629093Y-76188751D01*
X236664892Y-76121775D01*
X236713070Y-76063070D01*
X236771775Y-76014892D01*
X236838751Y-75979093D01*
X236911422Y-75957048D01*
X236993140Y-75949000D01*
X238006860Y-75949000D01*
X238088578Y-75957048D01*
X238088578Y-75957048D01*
G37*
G36*
X199216626Y-75462037D02*
G01*
X199386465Y-75513557D01*
X199386467Y-75513558D01*
X199542989Y-75597221D01*
X199680186Y-75709814D01*
X199763448Y-75811271D01*
X199792778Y-75847009D01*
X199876443Y-76003534D01*
X199927963Y-76173373D01*
X199941000Y-76305742D01*
X199941000Y-77694258D01*
X199927963Y-77826627D01*
X199876443Y-77996466D01*
X199792778Y-78152991D01*
X199763728Y-78188388D01*
X199680186Y-78290186D01*
X199578729Y-78373448D01*
X199542991Y-78402778D01*
X199386466Y-78486443D01*
X199216627Y-78537963D01*
X199040000Y-78555359D01*
X198863374Y-78537963D01*
X198693535Y-78486443D01*
X198537010Y-78402778D01*
X198501272Y-78373448D01*
X198399815Y-78290186D01*
X198316273Y-78188388D01*
X198287223Y-78152991D01*
X198203558Y-77996466D01*
X198152038Y-77826627D01*
X198139001Y-77694258D01*
X198139000Y-76305743D01*
X198142346Y-76271775D01*
X198150523Y-76188751D01*
X198152037Y-76173374D01*
X198203557Y-76003535D01*
X198214377Y-75983292D01*
X198287221Y-75847011D01*
X198399814Y-75709814D01*
X198507091Y-75621775D01*
X198537009Y-75597222D01*
X198693534Y-75513557D01*
X198863373Y-75462037D01*
X199040000Y-75444641D01*
X199216626Y-75462037D01*
X199216626Y-75462037D01*
G37*
G36*
X220676626Y-75462037D02*
G01*
X220846465Y-75513557D01*
X220846467Y-75513558D01*
X221002989Y-75597221D01*
X221140186Y-75709814D01*
X221223448Y-75811271D01*
X221252778Y-75847009D01*
X221336443Y-76003534D01*
X221387963Y-76173373D01*
X221401000Y-76305742D01*
X221401000Y-77694258D01*
X221387963Y-77826627D01*
X221336443Y-77996466D01*
X221252778Y-78152991D01*
X221223728Y-78188388D01*
X221140186Y-78290186D01*
X221038729Y-78373448D01*
X221002991Y-78402778D01*
X220846466Y-78486443D01*
X220676627Y-78537963D01*
X220500000Y-78555359D01*
X220323374Y-78537963D01*
X220153535Y-78486443D01*
X219997010Y-78402778D01*
X219961272Y-78373448D01*
X219859815Y-78290186D01*
X219776273Y-78188388D01*
X219747223Y-78152991D01*
X219663558Y-77996466D01*
X219612038Y-77826627D01*
X219599001Y-77694258D01*
X219599000Y-76305743D01*
X219602346Y-76271775D01*
X219610523Y-76188751D01*
X219612037Y-76173374D01*
X219663557Y-76003535D01*
X219674377Y-75983292D01*
X219747221Y-75847011D01*
X219859814Y-75709814D01*
X219967091Y-75621775D01*
X219997009Y-75597222D01*
X220153534Y-75513557D01*
X220323373Y-75462037D01*
X220500000Y-75444641D01*
X220676626Y-75462037D01*
X220676626Y-75462037D01*
G37*
G36*
X218136626Y-75462037D02*
G01*
X218306465Y-75513557D01*
X218306467Y-75513558D01*
X218462989Y-75597221D01*
X218600186Y-75709814D01*
X218683448Y-75811271D01*
X218712778Y-75847009D01*
X218796443Y-76003534D01*
X218847963Y-76173373D01*
X218861000Y-76305742D01*
X218861000Y-77694258D01*
X218847963Y-77826627D01*
X218796443Y-77996466D01*
X218712778Y-78152991D01*
X218683728Y-78188388D01*
X218600186Y-78290186D01*
X218498729Y-78373448D01*
X218462991Y-78402778D01*
X218306466Y-78486443D01*
X218136627Y-78537963D01*
X217960000Y-78555359D01*
X217783374Y-78537963D01*
X217613535Y-78486443D01*
X217457010Y-78402778D01*
X217421272Y-78373448D01*
X217319815Y-78290186D01*
X217236273Y-78188388D01*
X217207223Y-78152991D01*
X217123558Y-77996466D01*
X217072038Y-77826627D01*
X217059001Y-77694258D01*
X217059000Y-76305743D01*
X217062346Y-76271775D01*
X217070523Y-76188751D01*
X217072037Y-76173374D01*
X217123557Y-76003535D01*
X217134377Y-75983292D01*
X217207221Y-75847011D01*
X217319814Y-75709814D01*
X217427091Y-75621775D01*
X217457009Y-75597222D01*
X217613534Y-75513557D01*
X217783373Y-75462037D01*
X217960000Y-75444641D01*
X218136626Y-75462037D01*
X218136626Y-75462037D01*
G37*
G36*
X201756626Y-75462037D02*
G01*
X201926465Y-75513557D01*
X201926467Y-75513558D01*
X202082989Y-75597221D01*
X202220186Y-75709814D01*
X202303448Y-75811271D01*
X202332778Y-75847009D01*
X202416443Y-76003534D01*
X202467963Y-76173373D01*
X202481000Y-76305742D01*
X202481000Y-77694258D01*
X202467963Y-77826627D01*
X202416443Y-77996466D01*
X202332778Y-78152991D01*
X202303728Y-78188388D01*
X202220186Y-78290186D01*
X202118729Y-78373448D01*
X202082991Y-78402778D01*
X201926466Y-78486443D01*
X201756627Y-78537963D01*
X201580000Y-78555359D01*
X201403374Y-78537963D01*
X201233535Y-78486443D01*
X201077010Y-78402778D01*
X201041272Y-78373448D01*
X200939815Y-78290186D01*
X200856273Y-78188388D01*
X200827223Y-78152991D01*
X200743558Y-77996466D01*
X200692038Y-77826627D01*
X200679001Y-77694258D01*
X200679000Y-76305743D01*
X200682346Y-76271775D01*
X200690523Y-76188751D01*
X200692037Y-76173374D01*
X200743557Y-76003535D01*
X200754377Y-75983292D01*
X200827221Y-75847011D01*
X200939814Y-75709814D01*
X201047091Y-75621775D01*
X201077009Y-75597222D01*
X201233534Y-75513557D01*
X201403373Y-75462037D01*
X201580000Y-75444641D01*
X201756626Y-75462037D01*
X201756626Y-75462037D01*
G37*
G36*
X190294928Y-75462037D02*
G01*
X190464767Y-75513557D01*
X190464769Y-75513558D01*
X190621291Y-75597221D01*
X190758488Y-75709814D01*
X190841750Y-75811271D01*
X190871080Y-75847009D01*
X190954745Y-76003534D01*
X191006265Y-76173373D01*
X191019302Y-76305742D01*
X191019302Y-77694258D01*
X191006265Y-77826627D01*
X190954745Y-77996466D01*
X190871080Y-78152991D01*
X190842030Y-78188388D01*
X190758488Y-78290186D01*
X190657031Y-78373448D01*
X190621293Y-78402778D01*
X190464768Y-78486443D01*
X190294929Y-78537963D01*
X190118302Y-78555359D01*
X189941676Y-78537963D01*
X189771837Y-78486443D01*
X189615312Y-78402778D01*
X189579574Y-78373448D01*
X189478117Y-78290186D01*
X189394575Y-78188388D01*
X189365525Y-78152991D01*
X189281860Y-77996466D01*
X189230340Y-77826627D01*
X189217303Y-77694258D01*
X189217302Y-76305743D01*
X189220648Y-76271775D01*
X189228825Y-76188751D01*
X189230339Y-76173374D01*
X189281859Y-76003535D01*
X189292679Y-75983292D01*
X189365523Y-75847011D01*
X189478116Y-75709814D01*
X189585393Y-75621775D01*
X189615311Y-75597222D01*
X189771836Y-75513557D01*
X189941675Y-75462037D01*
X190118302Y-75444641D01*
X190294928Y-75462037D01*
X190294928Y-75462037D01*
G37*
G36*
X187754928Y-75462037D02*
G01*
X187924767Y-75513557D01*
X187924769Y-75513558D01*
X188081291Y-75597221D01*
X188218488Y-75709814D01*
X188301750Y-75811271D01*
X188331080Y-75847009D01*
X188414745Y-76003534D01*
X188466265Y-76173373D01*
X188479302Y-76305742D01*
X188479302Y-77694258D01*
X188466265Y-77826627D01*
X188414745Y-77996466D01*
X188331080Y-78152991D01*
X188302030Y-78188388D01*
X188218488Y-78290186D01*
X188117031Y-78373448D01*
X188081293Y-78402778D01*
X187924768Y-78486443D01*
X187754929Y-78537963D01*
X187578302Y-78555359D01*
X187401676Y-78537963D01*
X187231837Y-78486443D01*
X187075312Y-78402778D01*
X187039574Y-78373448D01*
X186938117Y-78290186D01*
X186854575Y-78188388D01*
X186825525Y-78152991D01*
X186741860Y-77996466D01*
X186690340Y-77826627D01*
X186677303Y-77694258D01*
X186677302Y-76305743D01*
X186680648Y-76271775D01*
X186688825Y-76188751D01*
X186690339Y-76173374D01*
X186741859Y-76003535D01*
X186752679Y-75983292D01*
X186825523Y-75847011D01*
X186938116Y-75709814D01*
X187045393Y-75621775D01*
X187075311Y-75597222D01*
X187231836Y-75513557D01*
X187401675Y-75462037D01*
X187578302Y-75444641D01*
X187754928Y-75462037D01*
X187754928Y-75462037D01*
G37*
G36*
X176216626Y-75462037D02*
G01*
X176386465Y-75513557D01*
X176386467Y-75513558D01*
X176542989Y-75597221D01*
X176680186Y-75709814D01*
X176763448Y-75811271D01*
X176792778Y-75847009D01*
X176876443Y-76003534D01*
X176927963Y-76173373D01*
X176941000Y-76305742D01*
X176941000Y-77694258D01*
X176927963Y-77826627D01*
X176876443Y-77996466D01*
X176792778Y-78152991D01*
X176763728Y-78188388D01*
X176680186Y-78290186D01*
X176578729Y-78373448D01*
X176542991Y-78402778D01*
X176386466Y-78486443D01*
X176216627Y-78537963D01*
X176040000Y-78555359D01*
X175863374Y-78537963D01*
X175693535Y-78486443D01*
X175537010Y-78402778D01*
X175501272Y-78373448D01*
X175399815Y-78290186D01*
X175316273Y-78188388D01*
X175287223Y-78152991D01*
X175203558Y-77996466D01*
X175152038Y-77826627D01*
X175139001Y-77694258D01*
X175139000Y-76305743D01*
X175142346Y-76271775D01*
X175150523Y-76188751D01*
X175152037Y-76173374D01*
X175203557Y-76003535D01*
X175214377Y-75983292D01*
X175287221Y-75847011D01*
X175399814Y-75709814D01*
X175507091Y-75621775D01*
X175537009Y-75597222D01*
X175693534Y-75513557D01*
X175863373Y-75462037D01*
X176040000Y-75444641D01*
X176216626Y-75462037D01*
X176216626Y-75462037D01*
G37*
G36*
X215596626Y-75462037D02*
G01*
X215766465Y-75513557D01*
X215766467Y-75513558D01*
X215922989Y-75597221D01*
X216060186Y-75709814D01*
X216143448Y-75811271D01*
X216172778Y-75847009D01*
X216256443Y-76003534D01*
X216307963Y-76173373D01*
X216321000Y-76305742D01*
X216321000Y-77694258D01*
X216307963Y-77826627D01*
X216256443Y-77996466D01*
X216172778Y-78152991D01*
X216143728Y-78188388D01*
X216060186Y-78290186D01*
X215958729Y-78373448D01*
X215922991Y-78402778D01*
X215766466Y-78486443D01*
X215596627Y-78537963D01*
X215420000Y-78555359D01*
X215243374Y-78537963D01*
X215073535Y-78486443D01*
X214917010Y-78402778D01*
X214881272Y-78373448D01*
X214779815Y-78290186D01*
X214696273Y-78188388D01*
X214667223Y-78152991D01*
X214583558Y-77996466D01*
X214532038Y-77826627D01*
X214519001Y-77694258D01*
X214519000Y-76305743D01*
X214522346Y-76271775D01*
X214530523Y-76188751D01*
X214532037Y-76173374D01*
X214583557Y-76003535D01*
X214594377Y-75983292D01*
X214667221Y-75847011D01*
X214779814Y-75709814D01*
X214887091Y-75621775D01*
X214917009Y-75597222D01*
X215073534Y-75513557D01*
X215243373Y-75462037D01*
X215420000Y-75444641D01*
X215596626Y-75462037D01*
X215596626Y-75462037D01*
G37*
G36*
X213056626Y-75462037D02*
G01*
X213226465Y-75513557D01*
X213226467Y-75513558D01*
X213382989Y-75597221D01*
X213520186Y-75709814D01*
X213603448Y-75811271D01*
X213632778Y-75847009D01*
X213716443Y-76003534D01*
X213767963Y-76173373D01*
X213781000Y-76305742D01*
X213781000Y-77694258D01*
X213767963Y-77826627D01*
X213716443Y-77996466D01*
X213632778Y-78152991D01*
X213603728Y-78188388D01*
X213520186Y-78290186D01*
X213418729Y-78373448D01*
X213382991Y-78402778D01*
X213226466Y-78486443D01*
X213056627Y-78537963D01*
X212880000Y-78555359D01*
X212703374Y-78537963D01*
X212533535Y-78486443D01*
X212377010Y-78402778D01*
X212341272Y-78373448D01*
X212239815Y-78290186D01*
X212156273Y-78188388D01*
X212127223Y-78152991D01*
X212043558Y-77996466D01*
X211992038Y-77826627D01*
X211979001Y-77694258D01*
X211979000Y-76305743D01*
X211982346Y-76271775D01*
X211990523Y-76188751D01*
X211992037Y-76173374D01*
X212043557Y-76003535D01*
X212054377Y-75983292D01*
X212127221Y-75847011D01*
X212239814Y-75709814D01*
X212347091Y-75621775D01*
X212377009Y-75597222D01*
X212533534Y-75513557D01*
X212703373Y-75462037D01*
X212880000Y-75444641D01*
X213056626Y-75462037D01*
X213056626Y-75462037D01*
G37*
G36*
X178756626Y-75462037D02*
G01*
X178926465Y-75513557D01*
X178926467Y-75513558D01*
X179082989Y-75597221D01*
X179220186Y-75709814D01*
X179303448Y-75811271D01*
X179332778Y-75847009D01*
X179416443Y-76003534D01*
X179467963Y-76173373D01*
X179481000Y-76305742D01*
X179481000Y-77694258D01*
X179467963Y-77826627D01*
X179416443Y-77996466D01*
X179332778Y-78152991D01*
X179303728Y-78188388D01*
X179220186Y-78290186D01*
X179118729Y-78373448D01*
X179082991Y-78402778D01*
X178926466Y-78486443D01*
X178756627Y-78537963D01*
X178580000Y-78555359D01*
X178403374Y-78537963D01*
X178233535Y-78486443D01*
X178077010Y-78402778D01*
X178041272Y-78373448D01*
X177939815Y-78290186D01*
X177856273Y-78188388D01*
X177827223Y-78152991D01*
X177743558Y-77996466D01*
X177692038Y-77826627D01*
X177679001Y-77694258D01*
X177679000Y-76305743D01*
X177682346Y-76271775D01*
X177690523Y-76188751D01*
X177692037Y-76173374D01*
X177743557Y-76003535D01*
X177754377Y-75983292D01*
X177827221Y-75847011D01*
X177939814Y-75709814D01*
X178047091Y-75621775D01*
X178077009Y-75597222D01*
X178233534Y-75513557D01*
X178403373Y-75462037D01*
X178580000Y-75444641D01*
X178756626Y-75462037D01*
X178756626Y-75462037D01*
G37*
G36*
X210928578Y-75457048D02*
G01*
X211001249Y-75479093D01*
X211068225Y-75514892D01*
X211126930Y-75563070D01*
X211175108Y-75621775D01*
X211210907Y-75688751D01*
X211232952Y-75761422D01*
X211241000Y-75843140D01*
X211241000Y-78156860D01*
X211232952Y-78238578D01*
X211210907Y-78311249D01*
X211175108Y-78378225D01*
X211126930Y-78436930D01*
X211068225Y-78485108D01*
X211001249Y-78520907D01*
X210928578Y-78542952D01*
X210846860Y-78551000D01*
X209833140Y-78551000D01*
X209751422Y-78542952D01*
X209678751Y-78520907D01*
X209611775Y-78485108D01*
X209553070Y-78436930D01*
X209504892Y-78378225D01*
X209469093Y-78311249D01*
X209447048Y-78238578D01*
X209439000Y-78156860D01*
X209439000Y-75843140D01*
X209447048Y-75761422D01*
X209469093Y-75688751D01*
X209504892Y-75621775D01*
X209553070Y-75563070D01*
X209611775Y-75514892D01*
X209678751Y-75479093D01*
X209751422Y-75457048D01*
X209833140Y-75449000D01*
X210846860Y-75449000D01*
X210928578Y-75457048D01*
X210928578Y-75457048D01*
G37*
G36*
X197088578Y-75457048D02*
G01*
X197161249Y-75479093D01*
X197228225Y-75514892D01*
X197286930Y-75563070D01*
X197335108Y-75621775D01*
X197370907Y-75688751D01*
X197392952Y-75761422D01*
X197401000Y-75843140D01*
X197401000Y-78156860D01*
X197392952Y-78238578D01*
X197370907Y-78311249D01*
X197335108Y-78378225D01*
X197286930Y-78436930D01*
X197228225Y-78485108D01*
X197161249Y-78520907D01*
X197088578Y-78542952D01*
X197006860Y-78551000D01*
X195993140Y-78551000D01*
X195911422Y-78542952D01*
X195838751Y-78520907D01*
X195771775Y-78485108D01*
X195713070Y-78436930D01*
X195664892Y-78378225D01*
X195629093Y-78311249D01*
X195607048Y-78238578D01*
X195599000Y-78156860D01*
X195599000Y-75843140D01*
X195607048Y-75761422D01*
X195629093Y-75688751D01*
X195664892Y-75621775D01*
X195713070Y-75563070D01*
X195771775Y-75514892D01*
X195838751Y-75479093D01*
X195911422Y-75457048D01*
X195993140Y-75449000D01*
X197006860Y-75449000D01*
X197088578Y-75457048D01*
X197088578Y-75457048D01*
G37*
G36*
X185626880Y-75457048D02*
G01*
X185699551Y-75479093D01*
X185766527Y-75514892D01*
X185825232Y-75563070D01*
X185873410Y-75621775D01*
X185909209Y-75688751D01*
X185931254Y-75761422D01*
X185939302Y-75843140D01*
X185939302Y-78156860D01*
X185931254Y-78238578D01*
X185909209Y-78311249D01*
X185873410Y-78378225D01*
X185825232Y-78436930D01*
X185766527Y-78485108D01*
X185699551Y-78520907D01*
X185626880Y-78542952D01*
X185545162Y-78551000D01*
X184531442Y-78551000D01*
X184449724Y-78542952D01*
X184377053Y-78520907D01*
X184310077Y-78485108D01*
X184251372Y-78436930D01*
X184203194Y-78378225D01*
X184167395Y-78311249D01*
X184145350Y-78238578D01*
X184137302Y-78156860D01*
X184137302Y-75843140D01*
X184145350Y-75761422D01*
X184167395Y-75688751D01*
X184203194Y-75621775D01*
X184251372Y-75563070D01*
X184310077Y-75514892D01*
X184377053Y-75479093D01*
X184449724Y-75457048D01*
X184531442Y-75449000D01*
X185545162Y-75449000D01*
X185626880Y-75457048D01*
X185626880Y-75457048D01*
G37*
G36*
X174088578Y-75457048D02*
G01*
X174161249Y-75479093D01*
X174228225Y-75514892D01*
X174286930Y-75563070D01*
X174335108Y-75621775D01*
X174370907Y-75688751D01*
X174392952Y-75761422D01*
X174401000Y-75843140D01*
X174401000Y-78156860D01*
X174392952Y-78238578D01*
X174370907Y-78311249D01*
X174335108Y-78378225D01*
X174286930Y-78436930D01*
X174228225Y-78485108D01*
X174161249Y-78520907D01*
X174088578Y-78542952D01*
X174006860Y-78551000D01*
X172993140Y-78551000D01*
X172911422Y-78542952D01*
X172838751Y-78520907D01*
X172771775Y-78485108D01*
X172713070Y-78436930D01*
X172664892Y-78378225D01*
X172629093Y-78311249D01*
X172607048Y-78238578D01*
X172599000Y-78156860D01*
X172599000Y-75843140D01*
X172607048Y-75761422D01*
X172629093Y-75688751D01*
X172664892Y-75621775D01*
X172713070Y-75563070D01*
X172771775Y-75514892D01*
X172838751Y-75479093D01*
X172911422Y-75457048D01*
X172993140Y-75449000D01*
X174006860Y-75449000D01*
X174088578Y-75457048D01*
X174088578Y-75457048D01*
G37*
G36*
X228838578Y-76107048D02*
G01*
X228911249Y-76129093D01*
X228978225Y-76164892D01*
X229036930Y-76213070D01*
X229085108Y-76271775D01*
X229120907Y-76338751D01*
X229142952Y-76411422D01*
X229151000Y-76493140D01*
X229151000Y-77506860D01*
X229142952Y-77588578D01*
X229120907Y-77661249D01*
X229085108Y-77728225D01*
X229036930Y-77786930D01*
X228978225Y-77835108D01*
X228911249Y-77870907D01*
X228838578Y-77892952D01*
X228756860Y-77901000D01*
X226443140Y-77901000D01*
X226361422Y-77892952D01*
X226288751Y-77870907D01*
X226221775Y-77835108D01*
X226163070Y-77786930D01*
X226114892Y-77728225D01*
X226079093Y-77661249D01*
X226057048Y-77588578D01*
X226049000Y-77506860D01*
X226049000Y-76493140D01*
X226057048Y-76411422D01*
X226079093Y-76338751D01*
X226114892Y-76271775D01*
X226163070Y-76213070D01*
X226221775Y-76164892D01*
X226288751Y-76129093D01*
X226361422Y-76107048D01*
X226443140Y-76099000D01*
X228756860Y-76099000D01*
X228838578Y-76107048D01*
X228838578Y-76107048D01*
G37*
G36*
X167738578Y-76107048D02*
G01*
X167811249Y-76129093D01*
X167878225Y-76164892D01*
X167936930Y-76213070D01*
X167985108Y-76271775D01*
X168020907Y-76338751D01*
X168042952Y-76411422D01*
X168051000Y-76493140D01*
X168051000Y-77506860D01*
X168042952Y-77588578D01*
X168020907Y-77661249D01*
X167985108Y-77728225D01*
X167936930Y-77786930D01*
X167878225Y-77835108D01*
X167811249Y-77870907D01*
X167738578Y-77892952D01*
X167656860Y-77901000D01*
X165343140Y-77901000D01*
X165261422Y-77892952D01*
X165188751Y-77870907D01*
X165121775Y-77835108D01*
X165063070Y-77786930D01*
X165014892Y-77728225D01*
X164979093Y-77661249D01*
X164957048Y-77588578D01*
X164949000Y-77506860D01*
X164949000Y-76493140D01*
X164957048Y-76411422D01*
X164979093Y-76338751D01*
X165014892Y-76271775D01*
X165063070Y-76213070D01*
X165121775Y-76164892D01*
X165188751Y-76129093D01*
X165261422Y-76107048D01*
X165343140Y-76099000D01*
X167656860Y-76099000D01*
X167738578Y-76107048D01*
X167738578Y-76107048D01*
G37*
M02*
