M48
; DRILL file {KiCad (5.1.4)-1} date 2020/8/23 14:24:33
; FORMAT={-:-/ absolute / metric / decimal}
; #@! TF.CreationDate,2020-08-23T14:24:33+08:00
; #@! TF.GenerationSoftware,Kicad,Pcbnew,(5.1.4)-1
; #@! TF.FileFunction,Plated,1,2,PTH
FMAT,2
METRIC
T1C0.400
T2C0.762
T3C0.800
T4C1.000
T5C1.016
%
G90
G05
T1
X179.4Y-85.0
X188.8Y-82.9
X190.1Y-85.6
X191.174Y-108.9
X209.5Y-111.5
T2
X223.22Y-91.5
X223.22Y-109.53
X225.76Y-91.5
X225.76Y-109.53
X228.3Y-91.5
X228.3Y-109.53
X230.84Y-91.5
X230.84Y-109.53
X233.38Y-91.5
X233.38Y-109.53
X235.92Y-91.5
X235.92Y-109.53
X238.46Y-91.5
X238.46Y-109.53
X241.0Y-91.5
X241.0Y-109.53
T3
X237.0Y-85.0
X242.0Y-85.0
X203.7Y-93.75
X213.86Y-93.75
X174.0Y-124.0
X179.0Y-124.0
X203.7Y-89.7
X213.86Y-89.7
X172.5Y-83.0
X182.66Y-83.0
T4
X206.0Y-125.5
X208.54Y-125.5
X211.08Y-125.5
X213.62Y-125.5
X166.5Y-77.0
X166.5Y-79.54
X173.5Y-77.0
X176.04Y-77.0
X178.58Y-77.0
X223.3Y-122.96
X223.3Y-125.5
X194.5Y-125.5
X197.04Y-125.5
X199.58Y-125.5
X234.5Y-120.46
X234.5Y-123.0
X234.5Y-125.54
X234.5Y-128.08
X167.0Y-123.0
X167.0Y-125.54
X186.0Y-120.5
X186.0Y-123.04
X186.0Y-125.58
X210.34Y-77.0
X212.88Y-77.0
X215.42Y-77.0
X217.96Y-77.0
X220.5Y-77.0
X234.96Y-77.5
X237.5Y-77.5
X185.038Y-77.0
X187.578Y-77.0
X190.118Y-77.0
X196.5Y-77.0
X199.04Y-77.0
X201.58Y-77.0
X227.6Y-77.0
X227.6Y-79.54
T5
X170.11Y-89.07
X170.11Y-111.93
X172.65Y-89.07
X172.65Y-111.93
X175.19Y-89.07
X175.19Y-111.93
X177.73Y-89.07
X177.73Y-111.93
X180.27Y-89.07
X180.27Y-111.93
X182.81Y-89.07
X182.81Y-111.93
X185.35Y-89.07
X185.35Y-111.93
X187.89Y-89.07
X187.89Y-111.93
T0
M30
