%TF.GenerationSoftware,KiCad,Pcbnew,(5.1.4)-1*%
%TF.CreationDate,2020-08-23T14:24:32+08:00*%
%TF.ProjectId,Integrated-Control-Board-RevA,496e7465-6772-4617-9465-642d436f6e74,rev?*%
%TF.SameCoordinates,Original*%
%TF.FileFunction,Copper,L1,Top*%
%TF.FilePolarity,Positive*%
%FSLAX46Y46*%
G04 Gerber Fmt 4.6, Leading zero omitted, Abs format (unit mm)*
G04 Created by KiCad (PCBNEW (5.1.4)-1) date 2020-08-23 14:24:32*
%MOMM*%
%LPD*%
G04 APERTURE LIST*
%ADD10C,1.524000*%
%ADD11C,0.350000*%
%ADD12C,1.700000*%
%ADD13O,3.000000X1.700000*%
%ADD14O,1.600000X1.600000*%
%ADD15C,1.600000*%
%ADD16O,1.700000X3.000000*%
%ADD17C,1.800000*%
%ADD18R,1.600000X1.600000*%
%ADD19C,0.800000*%
%ADD20C,1.600000*%
%ADD21C,0.800000*%
%ADD22C,0.025400*%
%ADD23C,0.254000*%
%ADD24C,0.350000*%
G04 APERTURE END LIST*
D10*
X241000000Y-91500000D03*
X238460000Y-91500000D03*
X235920000Y-91500000D03*
X233380000Y-91500000D03*
X230840000Y-91500000D03*
X228300000Y-91500000D03*
X225760000Y-91500000D03*
X223220000Y-91500000D03*
X241000000Y-109530000D03*
X238460000Y-109530000D03*
X235920000Y-109530000D03*
X233380000Y-109530000D03*
X230840000Y-109530000D03*
X228300000Y-109530000D03*
X225760000Y-109530000D03*
X223220000Y-109530000D03*
D11*
G36*
X187116657Y-119652046D02*
G01*
X187157913Y-119658166D01*
X187198371Y-119668300D01*
X187237640Y-119682351D01*
X187275344Y-119700183D01*
X187311117Y-119721625D01*
X187344617Y-119746471D01*
X187375520Y-119774480D01*
X187403529Y-119805383D01*
X187428375Y-119838883D01*
X187449817Y-119874656D01*
X187467649Y-119912360D01*
X187481700Y-119951629D01*
X187491834Y-119992087D01*
X187497954Y-120033343D01*
X187500000Y-120075000D01*
X187500000Y-120925000D01*
X187497954Y-120966657D01*
X187491834Y-121007913D01*
X187481700Y-121048371D01*
X187467649Y-121087640D01*
X187449817Y-121125344D01*
X187428375Y-121161117D01*
X187403529Y-121194617D01*
X187375520Y-121225520D01*
X187344617Y-121253529D01*
X187311117Y-121278375D01*
X187275344Y-121299817D01*
X187237640Y-121317649D01*
X187198371Y-121331700D01*
X187157913Y-121341834D01*
X187116657Y-121347954D01*
X187075000Y-121350000D01*
X184925000Y-121350000D01*
X184883343Y-121347954D01*
X184842087Y-121341834D01*
X184801629Y-121331700D01*
X184762360Y-121317649D01*
X184724656Y-121299817D01*
X184688883Y-121278375D01*
X184655383Y-121253529D01*
X184624480Y-121225520D01*
X184596471Y-121194617D01*
X184571625Y-121161117D01*
X184550183Y-121125344D01*
X184532351Y-121087640D01*
X184518300Y-121048371D01*
X184508166Y-121007913D01*
X184502046Y-120966657D01*
X184500000Y-120925000D01*
X184500000Y-120075000D01*
X184502046Y-120033343D01*
X184508166Y-119992087D01*
X184518300Y-119951629D01*
X184532351Y-119912360D01*
X184550183Y-119874656D01*
X184571625Y-119838883D01*
X184596471Y-119805383D01*
X184624480Y-119774480D01*
X184655383Y-119746471D01*
X184688883Y-119721625D01*
X184724656Y-119700183D01*
X184762360Y-119682351D01*
X184801629Y-119668300D01*
X184842087Y-119658166D01*
X184883343Y-119652046D01*
X184925000Y-119650000D01*
X187075000Y-119650000D01*
X187116657Y-119652046D01*
X187116657Y-119652046D01*
G37*
D12*
X186000000Y-120500000D03*
D13*
X186000000Y-123040000D03*
X186000000Y-125580000D03*
D14*
X182660000Y-83000000D03*
D15*
X172500000Y-83000000D03*
D14*
X213860000Y-93750000D03*
D15*
X203700000Y-93750000D03*
D14*
X213860000Y-89700000D03*
D15*
X203700000Y-89700000D03*
D11*
G36*
X194966657Y-124002046D02*
G01*
X195007913Y-124008166D01*
X195048371Y-124018300D01*
X195087640Y-124032351D01*
X195125344Y-124050183D01*
X195161117Y-124071625D01*
X195194617Y-124096471D01*
X195225520Y-124124480D01*
X195253529Y-124155383D01*
X195278375Y-124188883D01*
X195299817Y-124224656D01*
X195317649Y-124262360D01*
X195331700Y-124301629D01*
X195341834Y-124342087D01*
X195347954Y-124383343D01*
X195350000Y-124425000D01*
X195350000Y-126575000D01*
X195347954Y-126616657D01*
X195341834Y-126657913D01*
X195331700Y-126698371D01*
X195317649Y-126737640D01*
X195299817Y-126775344D01*
X195278375Y-126811117D01*
X195253529Y-126844617D01*
X195225520Y-126875520D01*
X195194617Y-126903529D01*
X195161117Y-126928375D01*
X195125344Y-126949817D01*
X195087640Y-126967649D01*
X195048371Y-126981700D01*
X195007913Y-126991834D01*
X194966657Y-126997954D01*
X194925000Y-127000000D01*
X194075000Y-127000000D01*
X194033343Y-126997954D01*
X193992087Y-126991834D01*
X193951629Y-126981700D01*
X193912360Y-126967649D01*
X193874656Y-126949817D01*
X193838883Y-126928375D01*
X193805383Y-126903529D01*
X193774480Y-126875520D01*
X193746471Y-126844617D01*
X193721625Y-126811117D01*
X193700183Y-126775344D01*
X193682351Y-126737640D01*
X193668300Y-126698371D01*
X193658166Y-126657913D01*
X193652046Y-126616657D01*
X193650000Y-126575000D01*
X193650000Y-124425000D01*
X193652046Y-124383343D01*
X193658166Y-124342087D01*
X193668300Y-124301629D01*
X193682351Y-124262360D01*
X193700183Y-124224656D01*
X193721625Y-124188883D01*
X193746471Y-124155383D01*
X193774480Y-124124480D01*
X193805383Y-124096471D01*
X193838883Y-124071625D01*
X193874656Y-124050183D01*
X193912360Y-124032351D01*
X193951629Y-124018300D01*
X193992087Y-124008166D01*
X194033343Y-124002046D01*
X194075000Y-124000000D01*
X194925000Y-124000000D01*
X194966657Y-124002046D01*
X194966657Y-124002046D01*
G37*
D12*
X194500000Y-125500000D03*
D16*
X197040000Y-125500000D03*
X199580000Y-125500000D03*
D11*
G36*
X210806657Y-75502046D02*
G01*
X210847913Y-75508166D01*
X210888371Y-75518300D01*
X210927640Y-75532351D01*
X210965344Y-75550183D01*
X211001117Y-75571625D01*
X211034617Y-75596471D01*
X211065520Y-75624480D01*
X211093529Y-75655383D01*
X211118375Y-75688883D01*
X211139817Y-75724656D01*
X211157649Y-75762360D01*
X211171700Y-75801629D01*
X211181834Y-75842087D01*
X211187954Y-75883343D01*
X211190000Y-75925000D01*
X211190000Y-78075000D01*
X211187954Y-78116657D01*
X211181834Y-78157913D01*
X211171700Y-78198371D01*
X211157649Y-78237640D01*
X211139817Y-78275344D01*
X211118375Y-78311117D01*
X211093529Y-78344617D01*
X211065520Y-78375520D01*
X211034617Y-78403529D01*
X211001117Y-78428375D01*
X210965344Y-78449817D01*
X210927640Y-78467649D01*
X210888371Y-78481700D01*
X210847913Y-78491834D01*
X210806657Y-78497954D01*
X210765000Y-78500000D01*
X209915000Y-78500000D01*
X209873343Y-78497954D01*
X209832087Y-78491834D01*
X209791629Y-78481700D01*
X209752360Y-78467649D01*
X209714656Y-78449817D01*
X209678883Y-78428375D01*
X209645383Y-78403529D01*
X209614480Y-78375520D01*
X209586471Y-78344617D01*
X209561625Y-78311117D01*
X209540183Y-78275344D01*
X209522351Y-78237640D01*
X209508300Y-78198371D01*
X209498166Y-78157913D01*
X209492046Y-78116657D01*
X209490000Y-78075000D01*
X209490000Y-75925000D01*
X209492046Y-75883343D01*
X209498166Y-75842087D01*
X209508300Y-75801629D01*
X209522351Y-75762360D01*
X209540183Y-75724656D01*
X209561625Y-75688883D01*
X209586471Y-75655383D01*
X209614480Y-75624480D01*
X209645383Y-75596471D01*
X209678883Y-75571625D01*
X209714656Y-75550183D01*
X209752360Y-75532351D01*
X209791629Y-75518300D01*
X209832087Y-75508166D01*
X209873343Y-75502046D01*
X209915000Y-75500000D01*
X210765000Y-75500000D01*
X210806657Y-75502046D01*
X210806657Y-75502046D01*
G37*
D12*
X210340000Y-77000000D03*
D16*
X212880000Y-77000000D03*
X215420000Y-77000000D03*
X217960000Y-77000000D03*
X220500000Y-77000000D03*
D11*
G36*
X206466657Y-124002046D02*
G01*
X206507913Y-124008166D01*
X206548371Y-124018300D01*
X206587640Y-124032351D01*
X206625344Y-124050183D01*
X206661117Y-124071625D01*
X206694617Y-124096471D01*
X206725520Y-124124480D01*
X206753529Y-124155383D01*
X206778375Y-124188883D01*
X206799817Y-124224656D01*
X206817649Y-124262360D01*
X206831700Y-124301629D01*
X206841834Y-124342087D01*
X206847954Y-124383343D01*
X206850000Y-124425000D01*
X206850000Y-126575000D01*
X206847954Y-126616657D01*
X206841834Y-126657913D01*
X206831700Y-126698371D01*
X206817649Y-126737640D01*
X206799817Y-126775344D01*
X206778375Y-126811117D01*
X206753529Y-126844617D01*
X206725520Y-126875520D01*
X206694617Y-126903529D01*
X206661117Y-126928375D01*
X206625344Y-126949817D01*
X206587640Y-126967649D01*
X206548371Y-126981700D01*
X206507913Y-126991834D01*
X206466657Y-126997954D01*
X206425000Y-127000000D01*
X205575000Y-127000000D01*
X205533343Y-126997954D01*
X205492087Y-126991834D01*
X205451629Y-126981700D01*
X205412360Y-126967649D01*
X205374656Y-126949817D01*
X205338883Y-126928375D01*
X205305383Y-126903529D01*
X205274480Y-126875520D01*
X205246471Y-126844617D01*
X205221625Y-126811117D01*
X205200183Y-126775344D01*
X205182351Y-126737640D01*
X205168300Y-126698371D01*
X205158166Y-126657913D01*
X205152046Y-126616657D01*
X205150000Y-126575000D01*
X205150000Y-124425000D01*
X205152046Y-124383343D01*
X205158166Y-124342087D01*
X205168300Y-124301629D01*
X205182351Y-124262360D01*
X205200183Y-124224656D01*
X205221625Y-124188883D01*
X205246471Y-124155383D01*
X205274480Y-124124480D01*
X205305383Y-124096471D01*
X205338883Y-124071625D01*
X205374656Y-124050183D01*
X205412360Y-124032351D01*
X205451629Y-124018300D01*
X205492087Y-124008166D01*
X205533343Y-124002046D01*
X205575000Y-124000000D01*
X206425000Y-124000000D01*
X206466657Y-124002046D01*
X206466657Y-124002046D01*
G37*
D12*
X206000000Y-125500000D03*
D16*
X208540000Y-125500000D03*
X211080000Y-125500000D03*
X213620000Y-125500000D03*
D11*
G36*
X196966657Y-75502046D02*
G01*
X197007913Y-75508166D01*
X197048371Y-75518300D01*
X197087640Y-75532351D01*
X197125344Y-75550183D01*
X197161117Y-75571625D01*
X197194617Y-75596471D01*
X197225520Y-75624480D01*
X197253529Y-75655383D01*
X197278375Y-75688883D01*
X197299817Y-75724656D01*
X197317649Y-75762360D01*
X197331700Y-75801629D01*
X197341834Y-75842087D01*
X197347954Y-75883343D01*
X197350000Y-75925000D01*
X197350000Y-78075000D01*
X197347954Y-78116657D01*
X197341834Y-78157913D01*
X197331700Y-78198371D01*
X197317649Y-78237640D01*
X197299817Y-78275344D01*
X197278375Y-78311117D01*
X197253529Y-78344617D01*
X197225520Y-78375520D01*
X197194617Y-78403529D01*
X197161117Y-78428375D01*
X197125344Y-78449817D01*
X197087640Y-78467649D01*
X197048371Y-78481700D01*
X197007913Y-78491834D01*
X196966657Y-78497954D01*
X196925000Y-78500000D01*
X196075000Y-78500000D01*
X196033343Y-78497954D01*
X195992087Y-78491834D01*
X195951629Y-78481700D01*
X195912360Y-78467649D01*
X195874656Y-78449817D01*
X195838883Y-78428375D01*
X195805383Y-78403529D01*
X195774480Y-78375520D01*
X195746471Y-78344617D01*
X195721625Y-78311117D01*
X195700183Y-78275344D01*
X195682351Y-78237640D01*
X195668300Y-78198371D01*
X195658166Y-78157913D01*
X195652046Y-78116657D01*
X195650000Y-78075000D01*
X195650000Y-75925000D01*
X195652046Y-75883343D01*
X195658166Y-75842087D01*
X195668300Y-75801629D01*
X195682351Y-75762360D01*
X195700183Y-75724656D01*
X195721625Y-75688883D01*
X195746471Y-75655383D01*
X195774480Y-75624480D01*
X195805383Y-75596471D01*
X195838883Y-75571625D01*
X195874656Y-75550183D01*
X195912360Y-75532351D01*
X195951629Y-75518300D01*
X195992087Y-75508166D01*
X196033343Y-75502046D01*
X196075000Y-75500000D01*
X196925000Y-75500000D01*
X196966657Y-75502046D01*
X196966657Y-75502046D01*
G37*
D12*
X196500000Y-77000000D03*
D16*
X199040000Y-77000000D03*
X201580000Y-77000000D03*
D11*
G36*
X185504959Y-75502046D02*
G01*
X185546215Y-75508166D01*
X185586673Y-75518300D01*
X185625942Y-75532351D01*
X185663646Y-75550183D01*
X185699419Y-75571625D01*
X185732919Y-75596471D01*
X185763822Y-75624480D01*
X185791831Y-75655383D01*
X185816677Y-75688883D01*
X185838119Y-75724656D01*
X185855951Y-75762360D01*
X185870002Y-75801629D01*
X185880136Y-75842087D01*
X185886256Y-75883343D01*
X185888302Y-75925000D01*
X185888302Y-78075000D01*
X185886256Y-78116657D01*
X185880136Y-78157913D01*
X185870002Y-78198371D01*
X185855951Y-78237640D01*
X185838119Y-78275344D01*
X185816677Y-78311117D01*
X185791831Y-78344617D01*
X185763822Y-78375520D01*
X185732919Y-78403529D01*
X185699419Y-78428375D01*
X185663646Y-78449817D01*
X185625942Y-78467649D01*
X185586673Y-78481700D01*
X185546215Y-78491834D01*
X185504959Y-78497954D01*
X185463302Y-78500000D01*
X184613302Y-78500000D01*
X184571645Y-78497954D01*
X184530389Y-78491834D01*
X184489931Y-78481700D01*
X184450662Y-78467649D01*
X184412958Y-78449817D01*
X184377185Y-78428375D01*
X184343685Y-78403529D01*
X184312782Y-78375520D01*
X184284773Y-78344617D01*
X184259927Y-78311117D01*
X184238485Y-78275344D01*
X184220653Y-78237640D01*
X184206602Y-78198371D01*
X184196468Y-78157913D01*
X184190348Y-78116657D01*
X184188302Y-78075000D01*
X184188302Y-75925000D01*
X184190348Y-75883343D01*
X184196468Y-75842087D01*
X184206602Y-75801629D01*
X184220653Y-75762360D01*
X184238485Y-75724656D01*
X184259927Y-75688883D01*
X184284773Y-75655383D01*
X184312782Y-75624480D01*
X184343685Y-75596471D01*
X184377185Y-75571625D01*
X184412958Y-75550183D01*
X184450662Y-75532351D01*
X184489931Y-75518300D01*
X184530389Y-75508166D01*
X184571645Y-75502046D01*
X184613302Y-75500000D01*
X185463302Y-75500000D01*
X185504959Y-75502046D01*
X185504959Y-75502046D01*
G37*
D12*
X185038302Y-77000000D03*
D16*
X187578302Y-77000000D03*
X190118302Y-77000000D03*
D11*
G36*
X173966657Y-75502046D02*
G01*
X174007913Y-75508166D01*
X174048371Y-75518300D01*
X174087640Y-75532351D01*
X174125344Y-75550183D01*
X174161117Y-75571625D01*
X174194617Y-75596471D01*
X174225520Y-75624480D01*
X174253529Y-75655383D01*
X174278375Y-75688883D01*
X174299817Y-75724656D01*
X174317649Y-75762360D01*
X174331700Y-75801629D01*
X174341834Y-75842087D01*
X174347954Y-75883343D01*
X174350000Y-75925000D01*
X174350000Y-78075000D01*
X174347954Y-78116657D01*
X174341834Y-78157913D01*
X174331700Y-78198371D01*
X174317649Y-78237640D01*
X174299817Y-78275344D01*
X174278375Y-78311117D01*
X174253529Y-78344617D01*
X174225520Y-78375520D01*
X174194617Y-78403529D01*
X174161117Y-78428375D01*
X174125344Y-78449817D01*
X174087640Y-78467649D01*
X174048371Y-78481700D01*
X174007913Y-78491834D01*
X173966657Y-78497954D01*
X173925000Y-78500000D01*
X173075000Y-78500000D01*
X173033343Y-78497954D01*
X172992087Y-78491834D01*
X172951629Y-78481700D01*
X172912360Y-78467649D01*
X172874656Y-78449817D01*
X172838883Y-78428375D01*
X172805383Y-78403529D01*
X172774480Y-78375520D01*
X172746471Y-78344617D01*
X172721625Y-78311117D01*
X172700183Y-78275344D01*
X172682351Y-78237640D01*
X172668300Y-78198371D01*
X172658166Y-78157913D01*
X172652046Y-78116657D01*
X172650000Y-78075000D01*
X172650000Y-75925000D01*
X172652046Y-75883343D01*
X172658166Y-75842087D01*
X172668300Y-75801629D01*
X172682351Y-75762360D01*
X172700183Y-75724656D01*
X172721625Y-75688883D01*
X172746471Y-75655383D01*
X172774480Y-75624480D01*
X172805383Y-75596471D01*
X172838883Y-75571625D01*
X172874656Y-75550183D01*
X172912360Y-75532351D01*
X172951629Y-75518300D01*
X172992087Y-75508166D01*
X173033343Y-75502046D01*
X173075000Y-75500000D01*
X173925000Y-75500000D01*
X173966657Y-75502046D01*
X173966657Y-75502046D01*
G37*
D12*
X173500000Y-77000000D03*
D16*
X176040000Y-77000000D03*
X178580000Y-77000000D03*
D17*
X187890000Y-111930000D03*
X187890000Y-89070000D03*
X185350000Y-111930000D03*
X185350000Y-89070000D03*
X182810000Y-111930000D03*
X182810000Y-89070000D03*
X180270000Y-111930000D03*
X180270000Y-89070000D03*
X177730000Y-111930000D03*
X177730000Y-89070000D03*
X175190000Y-111930000D03*
X175190000Y-89070000D03*
X172650000Y-111930000D03*
X172650000Y-89070000D03*
X170110000Y-111930000D03*
X170110000Y-89070000D03*
D11*
G36*
X224416657Y-122112046D02*
G01*
X224457913Y-122118166D01*
X224498371Y-122128300D01*
X224537640Y-122142351D01*
X224575344Y-122160183D01*
X224611117Y-122181625D01*
X224644617Y-122206471D01*
X224675520Y-122234480D01*
X224703529Y-122265383D01*
X224728375Y-122298883D01*
X224749817Y-122334656D01*
X224767649Y-122372360D01*
X224781700Y-122411629D01*
X224791834Y-122452087D01*
X224797954Y-122493343D01*
X224800000Y-122535000D01*
X224800000Y-123385000D01*
X224797954Y-123426657D01*
X224791834Y-123467913D01*
X224781700Y-123508371D01*
X224767649Y-123547640D01*
X224749817Y-123585344D01*
X224728375Y-123621117D01*
X224703529Y-123654617D01*
X224675520Y-123685520D01*
X224644617Y-123713529D01*
X224611117Y-123738375D01*
X224575344Y-123759817D01*
X224537640Y-123777649D01*
X224498371Y-123791700D01*
X224457913Y-123801834D01*
X224416657Y-123807954D01*
X224375000Y-123810000D01*
X222225000Y-123810000D01*
X222183343Y-123807954D01*
X222142087Y-123801834D01*
X222101629Y-123791700D01*
X222062360Y-123777649D01*
X222024656Y-123759817D01*
X221988883Y-123738375D01*
X221955383Y-123713529D01*
X221924480Y-123685520D01*
X221896471Y-123654617D01*
X221871625Y-123621117D01*
X221850183Y-123585344D01*
X221832351Y-123547640D01*
X221818300Y-123508371D01*
X221808166Y-123467913D01*
X221802046Y-123426657D01*
X221800000Y-123385000D01*
X221800000Y-122535000D01*
X221802046Y-122493343D01*
X221808166Y-122452087D01*
X221818300Y-122411629D01*
X221832351Y-122372360D01*
X221850183Y-122334656D01*
X221871625Y-122298883D01*
X221896471Y-122265383D01*
X221924480Y-122234480D01*
X221955383Y-122206471D01*
X221988883Y-122181625D01*
X222024656Y-122160183D01*
X222062360Y-122142351D01*
X222101629Y-122128300D01*
X222142087Y-122118166D01*
X222183343Y-122112046D01*
X222225000Y-122110000D01*
X224375000Y-122110000D01*
X224416657Y-122112046D01*
X224416657Y-122112046D01*
G37*
D12*
X223300000Y-122960000D03*
D13*
X223300000Y-125500000D03*
D11*
G36*
X228716657Y-76152046D02*
G01*
X228757913Y-76158166D01*
X228798371Y-76168300D01*
X228837640Y-76182351D01*
X228875344Y-76200183D01*
X228911117Y-76221625D01*
X228944617Y-76246471D01*
X228975520Y-76274480D01*
X229003529Y-76305383D01*
X229028375Y-76338883D01*
X229049817Y-76374656D01*
X229067649Y-76412360D01*
X229081700Y-76451629D01*
X229091834Y-76492087D01*
X229097954Y-76533343D01*
X229100000Y-76575000D01*
X229100000Y-77425000D01*
X229097954Y-77466657D01*
X229091834Y-77507913D01*
X229081700Y-77548371D01*
X229067649Y-77587640D01*
X229049817Y-77625344D01*
X229028375Y-77661117D01*
X229003529Y-77694617D01*
X228975520Y-77725520D01*
X228944617Y-77753529D01*
X228911117Y-77778375D01*
X228875344Y-77799817D01*
X228837640Y-77817649D01*
X228798371Y-77831700D01*
X228757913Y-77841834D01*
X228716657Y-77847954D01*
X228675000Y-77850000D01*
X226525000Y-77850000D01*
X226483343Y-77847954D01*
X226442087Y-77841834D01*
X226401629Y-77831700D01*
X226362360Y-77817649D01*
X226324656Y-77799817D01*
X226288883Y-77778375D01*
X226255383Y-77753529D01*
X226224480Y-77725520D01*
X226196471Y-77694617D01*
X226171625Y-77661117D01*
X226150183Y-77625344D01*
X226132351Y-77587640D01*
X226118300Y-77548371D01*
X226108166Y-77507913D01*
X226102046Y-77466657D01*
X226100000Y-77425000D01*
X226100000Y-76575000D01*
X226102046Y-76533343D01*
X226108166Y-76492087D01*
X226118300Y-76451629D01*
X226132351Y-76412360D01*
X226150183Y-76374656D01*
X226171625Y-76338883D01*
X226196471Y-76305383D01*
X226224480Y-76274480D01*
X226255383Y-76246471D01*
X226288883Y-76221625D01*
X226324656Y-76200183D01*
X226362360Y-76182351D01*
X226401629Y-76168300D01*
X226442087Y-76158166D01*
X226483343Y-76152046D01*
X226525000Y-76150000D01*
X228675000Y-76150000D01*
X228716657Y-76152046D01*
X228716657Y-76152046D01*
G37*
D12*
X227600000Y-77000000D03*
D13*
X227600000Y-79540000D03*
D11*
G36*
X235616657Y-119612046D02*
G01*
X235657913Y-119618166D01*
X235698371Y-119628300D01*
X235737640Y-119642351D01*
X235775344Y-119660183D01*
X235811117Y-119681625D01*
X235844617Y-119706471D01*
X235875520Y-119734480D01*
X235903529Y-119765383D01*
X235928375Y-119798883D01*
X235949817Y-119834656D01*
X235967649Y-119872360D01*
X235981700Y-119911629D01*
X235991834Y-119952087D01*
X235997954Y-119993343D01*
X236000000Y-120035000D01*
X236000000Y-120885000D01*
X235997954Y-120926657D01*
X235991834Y-120967913D01*
X235981700Y-121008371D01*
X235967649Y-121047640D01*
X235949817Y-121085344D01*
X235928375Y-121121117D01*
X235903529Y-121154617D01*
X235875520Y-121185520D01*
X235844617Y-121213529D01*
X235811117Y-121238375D01*
X235775344Y-121259817D01*
X235737640Y-121277649D01*
X235698371Y-121291700D01*
X235657913Y-121301834D01*
X235616657Y-121307954D01*
X235575000Y-121310000D01*
X233425000Y-121310000D01*
X233383343Y-121307954D01*
X233342087Y-121301834D01*
X233301629Y-121291700D01*
X233262360Y-121277649D01*
X233224656Y-121259817D01*
X233188883Y-121238375D01*
X233155383Y-121213529D01*
X233124480Y-121185520D01*
X233096471Y-121154617D01*
X233071625Y-121121117D01*
X233050183Y-121085344D01*
X233032351Y-121047640D01*
X233018300Y-121008371D01*
X233008166Y-120967913D01*
X233002046Y-120926657D01*
X233000000Y-120885000D01*
X233000000Y-120035000D01*
X233002046Y-119993343D01*
X233008166Y-119952087D01*
X233018300Y-119911629D01*
X233032351Y-119872360D01*
X233050183Y-119834656D01*
X233071625Y-119798883D01*
X233096471Y-119765383D01*
X233124480Y-119734480D01*
X233155383Y-119706471D01*
X233188883Y-119681625D01*
X233224656Y-119660183D01*
X233262360Y-119642351D01*
X233301629Y-119628300D01*
X233342087Y-119618166D01*
X233383343Y-119612046D01*
X233425000Y-119610000D01*
X235575000Y-119610000D01*
X235616657Y-119612046D01*
X235616657Y-119612046D01*
G37*
D12*
X234500000Y-120460000D03*
D13*
X234500000Y-123000000D03*
X234500000Y-125540000D03*
X234500000Y-128080000D03*
D11*
G36*
X168116657Y-122152046D02*
G01*
X168157913Y-122158166D01*
X168198371Y-122168300D01*
X168237640Y-122182351D01*
X168275344Y-122200183D01*
X168311117Y-122221625D01*
X168344617Y-122246471D01*
X168375520Y-122274480D01*
X168403529Y-122305383D01*
X168428375Y-122338883D01*
X168449817Y-122374656D01*
X168467649Y-122412360D01*
X168481700Y-122451629D01*
X168491834Y-122492087D01*
X168497954Y-122533343D01*
X168500000Y-122575000D01*
X168500000Y-123425000D01*
X168497954Y-123466657D01*
X168491834Y-123507913D01*
X168481700Y-123548371D01*
X168467649Y-123587640D01*
X168449817Y-123625344D01*
X168428375Y-123661117D01*
X168403529Y-123694617D01*
X168375520Y-123725520D01*
X168344617Y-123753529D01*
X168311117Y-123778375D01*
X168275344Y-123799817D01*
X168237640Y-123817649D01*
X168198371Y-123831700D01*
X168157913Y-123841834D01*
X168116657Y-123847954D01*
X168075000Y-123850000D01*
X165925000Y-123850000D01*
X165883343Y-123847954D01*
X165842087Y-123841834D01*
X165801629Y-123831700D01*
X165762360Y-123817649D01*
X165724656Y-123799817D01*
X165688883Y-123778375D01*
X165655383Y-123753529D01*
X165624480Y-123725520D01*
X165596471Y-123694617D01*
X165571625Y-123661117D01*
X165550183Y-123625344D01*
X165532351Y-123587640D01*
X165518300Y-123548371D01*
X165508166Y-123507913D01*
X165502046Y-123466657D01*
X165500000Y-123425000D01*
X165500000Y-122575000D01*
X165502046Y-122533343D01*
X165508166Y-122492087D01*
X165518300Y-122451629D01*
X165532351Y-122412360D01*
X165550183Y-122374656D01*
X165571625Y-122338883D01*
X165596471Y-122305383D01*
X165624480Y-122274480D01*
X165655383Y-122246471D01*
X165688883Y-122221625D01*
X165724656Y-122200183D01*
X165762360Y-122182351D01*
X165801629Y-122168300D01*
X165842087Y-122158166D01*
X165883343Y-122152046D01*
X165925000Y-122150000D01*
X168075000Y-122150000D01*
X168116657Y-122152046D01*
X168116657Y-122152046D01*
G37*
D12*
X167000000Y-123000000D03*
D13*
X167000000Y-125540000D03*
D11*
G36*
X167616657Y-76152046D02*
G01*
X167657913Y-76158166D01*
X167698371Y-76168300D01*
X167737640Y-76182351D01*
X167775344Y-76200183D01*
X167811117Y-76221625D01*
X167844617Y-76246471D01*
X167875520Y-76274480D01*
X167903529Y-76305383D01*
X167928375Y-76338883D01*
X167949817Y-76374656D01*
X167967649Y-76412360D01*
X167981700Y-76451629D01*
X167991834Y-76492087D01*
X167997954Y-76533343D01*
X168000000Y-76575000D01*
X168000000Y-77425000D01*
X167997954Y-77466657D01*
X167991834Y-77507913D01*
X167981700Y-77548371D01*
X167967649Y-77587640D01*
X167949817Y-77625344D01*
X167928375Y-77661117D01*
X167903529Y-77694617D01*
X167875520Y-77725520D01*
X167844617Y-77753529D01*
X167811117Y-77778375D01*
X167775344Y-77799817D01*
X167737640Y-77817649D01*
X167698371Y-77831700D01*
X167657913Y-77841834D01*
X167616657Y-77847954D01*
X167575000Y-77850000D01*
X165425000Y-77850000D01*
X165383343Y-77847954D01*
X165342087Y-77841834D01*
X165301629Y-77831700D01*
X165262360Y-77817649D01*
X165224656Y-77799817D01*
X165188883Y-77778375D01*
X165155383Y-77753529D01*
X165124480Y-77725520D01*
X165096471Y-77694617D01*
X165071625Y-77661117D01*
X165050183Y-77625344D01*
X165032351Y-77587640D01*
X165018300Y-77548371D01*
X165008166Y-77507913D01*
X165002046Y-77466657D01*
X165000000Y-77425000D01*
X165000000Y-76575000D01*
X165002046Y-76533343D01*
X165008166Y-76492087D01*
X165018300Y-76451629D01*
X165032351Y-76412360D01*
X165050183Y-76374656D01*
X165071625Y-76338883D01*
X165096471Y-76305383D01*
X165124480Y-76274480D01*
X165155383Y-76246471D01*
X165188883Y-76221625D01*
X165224656Y-76200183D01*
X165262360Y-76182351D01*
X165301629Y-76168300D01*
X165342087Y-76158166D01*
X165383343Y-76152046D01*
X165425000Y-76150000D01*
X167575000Y-76150000D01*
X167616657Y-76152046D01*
X167616657Y-76152046D01*
G37*
D12*
X166500000Y-77000000D03*
D13*
X166500000Y-79540000D03*
D11*
G36*
X237966657Y-76002046D02*
G01*
X238007913Y-76008166D01*
X238048371Y-76018300D01*
X238087640Y-76032351D01*
X238125344Y-76050183D01*
X238161117Y-76071625D01*
X238194617Y-76096471D01*
X238225520Y-76124480D01*
X238253529Y-76155383D01*
X238278375Y-76188883D01*
X238299817Y-76224656D01*
X238317649Y-76262360D01*
X238331700Y-76301629D01*
X238341834Y-76342087D01*
X238347954Y-76383343D01*
X238350000Y-76425000D01*
X238350000Y-78575000D01*
X238347954Y-78616657D01*
X238341834Y-78657913D01*
X238331700Y-78698371D01*
X238317649Y-78737640D01*
X238299817Y-78775344D01*
X238278375Y-78811117D01*
X238253529Y-78844617D01*
X238225520Y-78875520D01*
X238194617Y-78903529D01*
X238161117Y-78928375D01*
X238125344Y-78949817D01*
X238087640Y-78967649D01*
X238048371Y-78981700D01*
X238007913Y-78991834D01*
X237966657Y-78997954D01*
X237925000Y-79000000D01*
X237075000Y-79000000D01*
X237033343Y-78997954D01*
X236992087Y-78991834D01*
X236951629Y-78981700D01*
X236912360Y-78967649D01*
X236874656Y-78949817D01*
X236838883Y-78928375D01*
X236805383Y-78903529D01*
X236774480Y-78875520D01*
X236746471Y-78844617D01*
X236721625Y-78811117D01*
X236700183Y-78775344D01*
X236682351Y-78737640D01*
X236668300Y-78698371D01*
X236658166Y-78657913D01*
X236652046Y-78616657D01*
X236650000Y-78575000D01*
X236650000Y-76425000D01*
X236652046Y-76383343D01*
X236658166Y-76342087D01*
X236668300Y-76301629D01*
X236682351Y-76262360D01*
X236700183Y-76224656D01*
X236721625Y-76188883D01*
X236746471Y-76155383D01*
X236774480Y-76124480D01*
X236805383Y-76096471D01*
X236838883Y-76071625D01*
X236874656Y-76050183D01*
X236912360Y-76032351D01*
X236951629Y-76018300D01*
X236992087Y-76008166D01*
X237033343Y-76002046D01*
X237075000Y-76000000D01*
X237925000Y-76000000D01*
X237966657Y-76002046D01*
X237966657Y-76002046D01*
G37*
D12*
X237500000Y-77500000D03*
D16*
X234960000Y-77500000D03*
D15*
X237000000Y-85000000D03*
X242000000Y-85000000D03*
X179000000Y-124000000D03*
D18*
X174000000Y-124000000D03*
D19*
X191173769Y-108900000D03*
X209500000Y-111500000D03*
X179400000Y-85000000D03*
X188800000Y-82900000D03*
X190100000Y-85600000D03*
D20*
X170110000Y-113202792D02*
X170110000Y-111930000D01*
X176486498Y-119579290D02*
X170110000Y-113202792D01*
X185079290Y-119579290D02*
X176486498Y-119579290D01*
X186000000Y-120500000D02*
X185079290Y-119579290D01*
X199580000Y-122400000D02*
X199580000Y-125500000D01*
X197680000Y-120500000D02*
X199580000Y-122400000D01*
X186000000Y-120500000D02*
X197680000Y-120500000D01*
X187600000Y-120500000D02*
X186000000Y-120500000D01*
X208540000Y-124524732D02*
X204515268Y-120500000D01*
X208540000Y-125500000D02*
X208540000Y-124524732D01*
X203400000Y-120500000D02*
X203440000Y-120460000D01*
X204515268Y-120500000D02*
X203400000Y-120500000D01*
X203400000Y-120500000D02*
X187600000Y-120500000D01*
X203440000Y-120460000D02*
X207560000Y-120460000D01*
X207560000Y-120460000D02*
X234500000Y-120460000D01*
X232900000Y-120460000D02*
X234500000Y-120460000D01*
X231440000Y-120460000D02*
X232900000Y-120460000D01*
X226400000Y-125500000D02*
X231440000Y-120460000D01*
X223300000Y-125500000D02*
X226400000Y-125500000D01*
X238237988Y-94262012D02*
X233757988Y-94262012D01*
X233757988Y-94262012D02*
X207560000Y-120460000D01*
X238237988Y-94262012D02*
X241000000Y-91500000D01*
X241000000Y-86000000D02*
X242000000Y-85000000D01*
X241000000Y-91500000D02*
X241000000Y-86000000D01*
D21*
X214991370Y-89700000D02*
X215491370Y-89200000D01*
X213860000Y-89700000D02*
X214991370Y-89700000D01*
X236160000Y-89200000D02*
X238460000Y-91500000D01*
X215491370Y-89200000D02*
X236160000Y-89200000D01*
X181169999Y-89969999D02*
X180270000Y-89070000D01*
X181770001Y-90570001D02*
X181169999Y-89969999D01*
X202829999Y-90570001D02*
X181770001Y-90570001D01*
X203700000Y-89700000D02*
X202829999Y-90570001D01*
X214991370Y-93750000D02*
X215879369Y-92862001D01*
X213860000Y-93750000D02*
X214991370Y-93750000D01*
X234557999Y-92862001D02*
X235920000Y-91500000D01*
X215879369Y-92862001D02*
X234557999Y-92862001D01*
X176089999Y-89969999D02*
X175190000Y-89070000D01*
X179070001Y-92950001D02*
X176089999Y-89969999D01*
X202900001Y-92950001D02*
X179070001Y-92950001D01*
X203700000Y-93750000D02*
X202900001Y-92950001D01*
D20*
X185350000Y-88354002D02*
X185350000Y-89070000D01*
X179995998Y-83000000D02*
X185350000Y-88354002D01*
X172500000Y-83000000D02*
X179995998Y-83000000D01*
X166500000Y-85460000D02*
X170110000Y-89070000D01*
X166500000Y-79540000D02*
X166500000Y-85460000D01*
X169600000Y-79540000D02*
X166500000Y-79540000D01*
X176766309Y-79540000D02*
X169600000Y-79540000D01*
X178580000Y-77726309D02*
X176766309Y-79540000D01*
X178580000Y-77000000D02*
X178580000Y-77726309D01*
X190118302Y-77726309D02*
X188304611Y-79540000D01*
X190118302Y-77000000D02*
X190118302Y-77726309D01*
X199766309Y-79540000D02*
X186940000Y-79540000D01*
X201580000Y-77726309D02*
X199766309Y-79540000D01*
X201580000Y-77000000D02*
X201580000Y-77726309D01*
X188304611Y-79540000D02*
X186940000Y-79540000D01*
X186940000Y-79540000D02*
X176766309Y-79540000D01*
X211315268Y-79540000D02*
X199766309Y-79540000D01*
X212880000Y-77975268D02*
X211315268Y-79540000D01*
X212880000Y-77000000D02*
X212880000Y-77975268D01*
X224500000Y-79540000D02*
X211315268Y-79540000D01*
X227600000Y-79540000D02*
X224500000Y-79540000D01*
D21*
X191173769Y-108900000D02*
X205800000Y-108900000D01*
X205800000Y-108900000D02*
X206900000Y-108900000D01*
X206900000Y-108900000D02*
X209500000Y-111500000D01*
X179400000Y-85660000D02*
X182810000Y-89070000D01*
X179400000Y-85000000D02*
X179400000Y-85660000D01*
X188800000Y-82900000D02*
X188800000Y-84300000D01*
X188800000Y-84300000D02*
X190100000Y-85600000D01*
D20*
X172460000Y-125540000D02*
X174000000Y-124000000D01*
X167000000Y-125540000D02*
X172460000Y-125540000D01*
X174000000Y-121600000D02*
X174200000Y-121400000D01*
X174000000Y-124000000D02*
X174000000Y-121600000D01*
X182900000Y-123040000D02*
X186000000Y-123040000D01*
X181260000Y-121400000D02*
X182900000Y-123040000D01*
X174200000Y-121400000D02*
X181260000Y-121400000D01*
D22*
G36*
X214455613Y-89179730D02*
G01*
X214456576Y-89180535D01*
X214492593Y-89207735D01*
X214493605Y-89208425D01*
X214532722Y-89232425D01*
X214533751Y-89232992D01*
X214575969Y-89253792D01*
X214576984Y-89254239D01*
X214622303Y-89271839D01*
X214623281Y-89272173D01*
X214671699Y-89286573D01*
X214672621Y-89286810D01*
X214724141Y-89298010D01*
X214724998Y-89298166D01*
X214779617Y-89306166D01*
X214780406Y-89306256D01*
X214838127Y-89311056D01*
X214838845Y-89311096D01*
X214887300Y-89312371D01*
X214887300Y-90087629D01*
X214838845Y-90088904D01*
X214838127Y-90088944D01*
X214780406Y-90093744D01*
X214779617Y-90093834D01*
X214724998Y-90101834D01*
X214724141Y-90101990D01*
X214672621Y-90113190D01*
X214671699Y-90113427D01*
X214623281Y-90127827D01*
X214622303Y-90128161D01*
X214576984Y-90145761D01*
X214575969Y-90146208D01*
X214533751Y-90167008D01*
X214532722Y-90167575D01*
X214493605Y-90191575D01*
X214492593Y-90192265D01*
X214456576Y-90219465D01*
X214455613Y-90220270D01*
X214429561Y-90244330D01*
X213485426Y-89700000D01*
X214429561Y-89155670D01*
X214455613Y-89179730D01*
X214455613Y-89179730D01*
G37*
X214455613Y-89179730D02*
X214456576Y-89180535D01*
X214492593Y-89207735D01*
X214493605Y-89208425D01*
X214532722Y-89232425D01*
X214533751Y-89232992D01*
X214575969Y-89253792D01*
X214576984Y-89254239D01*
X214622303Y-89271839D01*
X214623281Y-89272173D01*
X214671699Y-89286573D01*
X214672621Y-89286810D01*
X214724141Y-89298010D01*
X214724998Y-89298166D01*
X214779617Y-89306166D01*
X214780406Y-89306256D01*
X214838127Y-89311056D01*
X214838845Y-89311096D01*
X214887300Y-89312371D01*
X214887300Y-90087629D01*
X214838845Y-90088904D01*
X214838127Y-90088944D01*
X214780406Y-90093744D01*
X214779617Y-90093834D01*
X214724998Y-90101834D01*
X214724141Y-90101990D01*
X214672621Y-90113190D01*
X214671699Y-90113427D01*
X214623281Y-90127827D01*
X214622303Y-90128161D01*
X214576984Y-90145761D01*
X214575969Y-90146208D01*
X214533751Y-90167008D01*
X214532722Y-90167575D01*
X214493605Y-90191575D01*
X214492593Y-90192265D01*
X214456576Y-90219465D01*
X214455613Y-90220270D01*
X214429561Y-90244330D01*
X213485426Y-89700000D01*
X214429561Y-89155670D01*
X214455613Y-89179730D01*
G36*
X181157524Y-89088811D02*
G01*
X181159043Y-89142941D01*
X181159110Y-89143939D01*
X181165753Y-89205877D01*
X181165906Y-89206902D01*
X181177405Y-89267192D01*
X181177647Y-89268225D01*
X181194005Y-89326867D01*
X181194336Y-89327885D01*
X181215551Y-89384880D01*
X181215964Y-89385862D01*
X181242036Y-89441208D01*
X181242520Y-89442135D01*
X181273450Y-89495834D01*
X181273990Y-89496690D01*
X181309778Y-89548741D01*
X181310357Y-89549518D01*
X181351002Y-89599921D01*
X181351603Y-89600614D01*
X181388735Y-89640401D01*
X180840401Y-90188735D01*
X180800614Y-90151603D01*
X180799921Y-90151002D01*
X180749518Y-90110357D01*
X180748741Y-90109778D01*
X180696690Y-90073990D01*
X180695834Y-90073450D01*
X180642135Y-90042520D01*
X180641208Y-90042036D01*
X180585862Y-90015964D01*
X180584880Y-90015551D01*
X180527885Y-89994336D01*
X180526867Y-89994005D01*
X180468225Y-89977647D01*
X180467192Y-89977405D01*
X180406902Y-89965906D01*
X180405877Y-89965753D01*
X180343939Y-89959110D01*
X180342941Y-89959043D01*
X180288811Y-89957524D01*
X179969781Y-88769781D01*
X181157524Y-89088811D01*
X181157524Y-89088811D01*
G37*
X181157524Y-89088811D02*
X181159043Y-89142941D01*
X181159110Y-89143939D01*
X181165753Y-89205877D01*
X181165906Y-89206902D01*
X181177405Y-89267192D01*
X181177647Y-89268225D01*
X181194005Y-89326867D01*
X181194336Y-89327885D01*
X181215551Y-89384880D01*
X181215964Y-89385862D01*
X181242036Y-89441208D01*
X181242520Y-89442135D01*
X181273450Y-89495834D01*
X181273990Y-89496690D01*
X181309778Y-89548741D01*
X181310357Y-89549518D01*
X181351002Y-89599921D01*
X181351603Y-89600614D01*
X181388735Y-89640401D01*
X180840401Y-90188735D01*
X180800614Y-90151603D01*
X180799921Y-90151002D01*
X180749518Y-90110357D01*
X180748741Y-90109778D01*
X180696690Y-90073990D01*
X180695834Y-90073450D01*
X180642135Y-90042520D01*
X180641208Y-90042036D01*
X180585862Y-90015964D01*
X180584880Y-90015551D01*
X180527885Y-89994336D01*
X180526867Y-89994005D01*
X180468225Y-89977647D01*
X180467192Y-89977405D01*
X180406902Y-89965906D01*
X180405877Y-89965753D01*
X180343939Y-89959110D01*
X180342941Y-89959043D01*
X180288811Y-89957524D01*
X179969781Y-88769781D01*
X181157524Y-89088811D01*
G36*
X203682159Y-90487640D02*
G01*
X203646724Y-90489048D01*
X203645474Y-90489160D01*
X203600773Y-90495395D01*
X203599569Y-90495622D01*
X203554938Y-90506311D01*
X203553809Y-90506638D01*
X203509249Y-90521783D01*
X203508216Y-90522185D01*
X203463726Y-90541785D01*
X203462798Y-90542239D01*
X203418378Y-90566294D01*
X203417558Y-90566779D01*
X203373209Y-90595289D01*
X203372493Y-90595785D01*
X203328214Y-90628750D01*
X203327593Y-90629243D01*
X203283385Y-90666663D01*
X203282849Y-90667144D01*
X203247685Y-90700506D01*
X202699494Y-90152315D01*
X202732855Y-90117151D01*
X202733336Y-90116615D01*
X202770756Y-90072406D01*
X202771249Y-90071785D01*
X202804214Y-90027506D01*
X202804710Y-90026790D01*
X202833220Y-89982441D01*
X202833705Y-89981621D01*
X202857760Y-89937202D01*
X202858214Y-89936274D01*
X202877814Y-89891784D01*
X202878216Y-89890751D01*
X202893361Y-89846190D01*
X202893688Y-89845061D01*
X202904377Y-89800430D01*
X202904604Y-89799226D01*
X202910839Y-89754525D01*
X202910951Y-89753276D01*
X202912360Y-89717841D01*
X203964863Y-89435137D01*
X203682159Y-90487640D01*
X203682159Y-90487640D01*
G37*
X203682159Y-90487640D02*
X203646724Y-90489048D01*
X203645474Y-90489160D01*
X203600773Y-90495395D01*
X203599569Y-90495622D01*
X203554938Y-90506311D01*
X203553809Y-90506638D01*
X203509249Y-90521783D01*
X203508216Y-90522185D01*
X203463726Y-90541785D01*
X203462798Y-90542239D01*
X203418378Y-90566294D01*
X203417558Y-90566779D01*
X203373209Y-90595289D01*
X203372493Y-90595785D01*
X203328214Y-90628750D01*
X203327593Y-90629243D01*
X203283385Y-90666663D01*
X203282849Y-90667144D01*
X203247685Y-90700506D01*
X202699494Y-90152315D01*
X202732855Y-90117151D01*
X202733336Y-90116615D01*
X202770756Y-90072406D01*
X202771249Y-90071785D01*
X202804214Y-90027506D01*
X202804710Y-90026790D01*
X202833220Y-89982441D01*
X202833705Y-89981621D01*
X202857760Y-89937202D01*
X202858214Y-89936274D01*
X202877814Y-89891784D01*
X202878216Y-89890751D01*
X202893361Y-89846190D01*
X202893688Y-89845061D01*
X202904377Y-89800430D01*
X202904604Y-89799226D01*
X202910839Y-89754525D01*
X202910951Y-89753276D01*
X202912360Y-89717841D01*
X203964863Y-89435137D01*
X203682159Y-90487640D01*
G36*
X214455613Y-93229730D02*
G01*
X214456576Y-93230535D01*
X214492593Y-93257735D01*
X214493605Y-93258425D01*
X214532722Y-93282425D01*
X214533751Y-93282992D01*
X214575969Y-93303792D01*
X214576984Y-93304239D01*
X214622303Y-93321839D01*
X214623281Y-93322173D01*
X214671699Y-93336573D01*
X214672621Y-93336810D01*
X214724141Y-93348010D01*
X214724998Y-93348166D01*
X214779617Y-93356166D01*
X214780406Y-93356256D01*
X214838127Y-93361056D01*
X214838845Y-93361096D01*
X214887300Y-93362371D01*
X214887300Y-94137629D01*
X214838845Y-94138904D01*
X214838127Y-94138944D01*
X214780406Y-94143744D01*
X214779617Y-94143834D01*
X214724998Y-94151834D01*
X214724141Y-94151990D01*
X214672621Y-94163190D01*
X214671699Y-94163427D01*
X214623281Y-94177827D01*
X214622303Y-94178161D01*
X214576984Y-94195761D01*
X214575969Y-94196208D01*
X214533751Y-94217008D01*
X214532722Y-94217575D01*
X214493605Y-94241575D01*
X214492593Y-94242265D01*
X214456576Y-94269465D01*
X214455613Y-94270270D01*
X214429561Y-94294330D01*
X213485426Y-93750000D01*
X214429561Y-93205670D01*
X214455613Y-93229730D01*
X214455613Y-93229730D01*
G37*
X214455613Y-93229730D02*
X214456576Y-93230535D01*
X214492593Y-93257735D01*
X214493605Y-93258425D01*
X214532722Y-93282425D01*
X214533751Y-93282992D01*
X214575969Y-93303792D01*
X214576984Y-93304239D01*
X214622303Y-93321839D01*
X214623281Y-93322173D01*
X214671699Y-93336573D01*
X214672621Y-93336810D01*
X214724141Y-93348010D01*
X214724998Y-93348166D01*
X214779617Y-93356166D01*
X214780406Y-93356256D01*
X214838127Y-93361056D01*
X214838845Y-93361096D01*
X214887300Y-93362371D01*
X214887300Y-94137629D01*
X214838845Y-94138904D01*
X214838127Y-94138944D01*
X214780406Y-94143744D01*
X214779617Y-94143834D01*
X214724998Y-94151834D01*
X214724141Y-94151990D01*
X214672621Y-94163190D01*
X214671699Y-94163427D01*
X214623281Y-94177827D01*
X214622303Y-94178161D01*
X214576984Y-94195761D01*
X214575969Y-94196208D01*
X214533751Y-94217008D01*
X214532722Y-94217575D01*
X214493605Y-94241575D01*
X214492593Y-94242265D01*
X214456576Y-94269465D01*
X214455613Y-94270270D01*
X214429561Y-94294330D01*
X213485426Y-93750000D01*
X214429561Y-93205670D01*
X214455613Y-93229730D01*
G36*
X176077524Y-89088811D02*
G01*
X176079043Y-89142941D01*
X176079110Y-89143939D01*
X176085753Y-89205877D01*
X176085906Y-89206902D01*
X176097405Y-89267192D01*
X176097647Y-89268225D01*
X176114005Y-89326867D01*
X176114336Y-89327885D01*
X176135551Y-89384880D01*
X176135964Y-89385862D01*
X176162036Y-89441208D01*
X176162520Y-89442135D01*
X176193450Y-89495834D01*
X176193990Y-89496690D01*
X176229778Y-89548741D01*
X176230357Y-89549518D01*
X176271002Y-89599921D01*
X176271603Y-89600614D01*
X176308735Y-89640401D01*
X175760401Y-90188735D01*
X175720614Y-90151603D01*
X175719921Y-90151002D01*
X175669518Y-90110357D01*
X175668741Y-90109778D01*
X175616690Y-90073990D01*
X175615834Y-90073450D01*
X175562135Y-90042520D01*
X175561208Y-90042036D01*
X175505862Y-90015964D01*
X175504880Y-90015551D01*
X175447885Y-89994336D01*
X175446867Y-89994005D01*
X175388225Y-89977647D01*
X175387192Y-89977405D01*
X175326902Y-89965906D01*
X175325877Y-89965753D01*
X175263939Y-89959110D01*
X175262941Y-89959043D01*
X175208811Y-89957524D01*
X174889781Y-88769781D01*
X176077524Y-89088811D01*
X176077524Y-89088811D01*
G37*
X176077524Y-89088811D02*
X176079043Y-89142941D01*
X176079110Y-89143939D01*
X176085753Y-89205877D01*
X176085906Y-89206902D01*
X176097405Y-89267192D01*
X176097647Y-89268225D01*
X176114005Y-89326867D01*
X176114336Y-89327885D01*
X176135551Y-89384880D01*
X176135964Y-89385862D01*
X176162036Y-89441208D01*
X176162520Y-89442135D01*
X176193450Y-89495834D01*
X176193990Y-89496690D01*
X176229778Y-89548741D01*
X176230357Y-89549518D01*
X176271002Y-89599921D01*
X176271603Y-89600614D01*
X176308735Y-89640401D01*
X175760401Y-90188735D01*
X175720614Y-90151603D01*
X175719921Y-90151002D01*
X175669518Y-90110357D01*
X175668741Y-90109778D01*
X175616690Y-90073990D01*
X175615834Y-90073450D01*
X175562135Y-90042520D01*
X175561208Y-90042036D01*
X175505862Y-90015964D01*
X175504880Y-90015551D01*
X175447885Y-89994336D01*
X175446867Y-89994005D01*
X175388225Y-89977647D01*
X175387192Y-89977405D01*
X175326902Y-89965906D01*
X175325877Y-89965753D01*
X175263939Y-89959110D01*
X175262941Y-89959043D01*
X175208811Y-89957524D01*
X174889781Y-88769781D01*
X176077524Y-89088811D01*
G36*
X203282849Y-92782855D02*
G01*
X203283385Y-92783336D01*
X203327593Y-92820756D01*
X203328214Y-92821249D01*
X203372493Y-92854214D01*
X203373209Y-92854710D01*
X203417558Y-92883220D01*
X203418378Y-92883705D01*
X203462798Y-92907760D01*
X203463726Y-92908214D01*
X203508216Y-92927814D01*
X203509249Y-92928216D01*
X203553809Y-92943361D01*
X203554938Y-92943688D01*
X203599569Y-92954377D01*
X203600773Y-92954604D01*
X203645474Y-92960839D01*
X203646723Y-92960951D01*
X203682159Y-92962360D01*
X203964863Y-94014863D01*
X202912360Y-93732159D01*
X202910951Y-93696723D01*
X202910839Y-93695474D01*
X202904604Y-93650773D01*
X202904377Y-93649569D01*
X202893688Y-93604938D01*
X202893361Y-93603809D01*
X202878216Y-93559249D01*
X202877814Y-93558216D01*
X202858214Y-93513726D01*
X202857760Y-93512798D01*
X202833705Y-93468378D01*
X202833220Y-93467558D01*
X202804710Y-93423209D01*
X202804214Y-93422493D01*
X202771249Y-93378214D01*
X202770756Y-93377593D01*
X202733336Y-93333385D01*
X202732855Y-93332849D01*
X202699494Y-93297685D01*
X203247685Y-92749494D01*
X203282849Y-92782855D01*
X203282849Y-92782855D01*
G37*
X203282849Y-92782855D02*
X203283385Y-92783336D01*
X203327593Y-92820756D01*
X203328214Y-92821249D01*
X203372493Y-92854214D01*
X203373209Y-92854710D01*
X203417558Y-92883220D01*
X203418378Y-92883705D01*
X203462798Y-92907760D01*
X203463726Y-92908214D01*
X203508216Y-92927814D01*
X203509249Y-92928216D01*
X203553809Y-92943361D01*
X203554938Y-92943688D01*
X203599569Y-92954377D01*
X203600773Y-92954604D01*
X203645474Y-92960839D01*
X203646723Y-92960951D01*
X203682159Y-92962360D01*
X203964863Y-94014863D01*
X202912360Y-93732159D01*
X202910951Y-93696723D01*
X202910839Y-93695474D01*
X202904604Y-93650773D01*
X202904377Y-93649569D01*
X202893688Y-93604938D01*
X202893361Y-93603809D01*
X202878216Y-93559249D01*
X202877814Y-93558216D01*
X202858214Y-93513726D01*
X202857760Y-93512798D01*
X202833705Y-93468378D01*
X202833220Y-93467558D01*
X202804710Y-93423209D01*
X202804214Y-93422493D01*
X202771249Y-93378214D01*
X202770756Y-93377593D01*
X202733336Y-93333385D01*
X202732855Y-93332849D01*
X202699494Y-93297685D01*
X203247685Y-92749494D01*
X203282849Y-92782855D01*
G36*
X182279385Y-87988396D02*
G01*
X182280078Y-87988997D01*
X182330481Y-88029642D01*
X182331258Y-88030221D01*
X182383309Y-88066009D01*
X182384165Y-88066549D01*
X182437864Y-88097479D01*
X182438791Y-88097963D01*
X182494137Y-88124035D01*
X182495119Y-88124448D01*
X182552114Y-88145663D01*
X182553132Y-88145994D01*
X182611774Y-88162352D01*
X182612807Y-88162594D01*
X182673097Y-88174093D01*
X182674122Y-88174246D01*
X182736060Y-88180889D01*
X182737058Y-88180956D01*
X182791189Y-88182476D01*
X183110219Y-89370219D01*
X181922476Y-89051189D01*
X181920956Y-88997058D01*
X181920889Y-88996060D01*
X181914246Y-88934122D01*
X181914093Y-88933097D01*
X181902594Y-88872807D01*
X181902352Y-88871774D01*
X181885994Y-88813132D01*
X181885663Y-88812114D01*
X181864448Y-88755119D01*
X181864035Y-88754137D01*
X181837963Y-88698791D01*
X181837479Y-88697864D01*
X181806549Y-88644165D01*
X181806009Y-88643309D01*
X181770221Y-88591258D01*
X181769642Y-88590481D01*
X181728997Y-88540078D01*
X181728396Y-88539385D01*
X181691265Y-88499599D01*
X182239599Y-87951265D01*
X182279385Y-87988396D01*
X182279385Y-87988396D01*
G37*
X182279385Y-87988396D02*
X182280078Y-87988997D01*
X182330481Y-88029642D01*
X182331258Y-88030221D01*
X182383309Y-88066009D01*
X182384165Y-88066549D01*
X182437864Y-88097479D01*
X182438791Y-88097963D01*
X182494137Y-88124035D01*
X182495119Y-88124448D01*
X182552114Y-88145663D01*
X182553132Y-88145994D01*
X182611774Y-88162352D01*
X182612807Y-88162594D01*
X182673097Y-88174093D01*
X182674122Y-88174246D01*
X182736060Y-88180889D01*
X182737058Y-88180956D01*
X182791189Y-88182476D01*
X183110219Y-89370219D01*
X181922476Y-89051189D01*
X181920956Y-88997058D01*
X181920889Y-88996060D01*
X181914246Y-88934122D01*
X181914093Y-88933097D01*
X181902594Y-88872807D01*
X181902352Y-88871774D01*
X181885994Y-88813132D01*
X181885663Y-88812114D01*
X181864448Y-88755119D01*
X181864035Y-88754137D01*
X181837963Y-88698791D01*
X181837479Y-88697864D01*
X181806549Y-88644165D01*
X181806009Y-88643309D01*
X181770221Y-88591258D01*
X181769642Y-88590481D01*
X181728997Y-88540078D01*
X181728396Y-88539385D01*
X181691265Y-88499599D01*
X182239599Y-87951265D01*
X182279385Y-87988396D01*
D23*
G36*
X238871797Y-69733902D02*
G01*
X239720182Y-69947001D01*
X240522371Y-70295803D01*
X241256818Y-70770938D01*
X241903798Y-71359646D01*
X242445946Y-72046125D01*
X242868692Y-72811928D01*
X243160684Y-73636491D01*
X243316116Y-74509076D01*
X243340001Y-75015568D01*
X243340001Y-84473967D01*
X243332182Y-84448192D01*
X243298787Y-84385715D01*
X243271680Y-84320273D01*
X243232322Y-84261370D01*
X243198931Y-84198900D01*
X243153998Y-84144149D01*
X243114637Y-84085241D01*
X243064540Y-84035144D01*
X243019607Y-83980393D01*
X242964856Y-83935460D01*
X242914759Y-83885363D01*
X242855851Y-83846002D01*
X242801100Y-83801069D01*
X242738630Y-83767678D01*
X242679727Y-83728320D01*
X242614285Y-83701213D01*
X242551808Y-83667818D01*
X242484012Y-83647252D01*
X242418574Y-83620147D01*
X242349104Y-83606328D01*
X242281309Y-83585763D01*
X242210810Y-83578820D01*
X242141335Y-83565000D01*
X242070495Y-83565000D01*
X242000000Y-83558057D01*
X241929505Y-83565000D01*
X241858665Y-83565000D01*
X241789190Y-83578820D01*
X241718691Y-83585763D01*
X241650896Y-83606328D01*
X241581426Y-83620147D01*
X241515988Y-83647252D01*
X241448192Y-83667818D01*
X241385714Y-83701214D01*
X241320273Y-83728320D01*
X241261373Y-83767676D01*
X241198899Y-83801069D01*
X241144144Y-83846005D01*
X241085241Y-83885363D01*
X240035154Y-84935450D01*
X239980393Y-84980392D01*
X239801069Y-85198899D01*
X239767337Y-85262007D01*
X239667818Y-85448193D01*
X239585764Y-85718692D01*
X239558057Y-86000000D01*
X239565001Y-86070502D01*
X239565000Y-90639218D01*
X239545120Y-90609465D01*
X239350535Y-90414880D01*
X239121727Y-90261995D01*
X238867490Y-90156686D01*
X238597592Y-90103000D01*
X238529868Y-90103000D01*
X238514867Y-90089948D01*
X238486512Y-90062801D01*
X236927807Y-88504097D01*
X236895396Y-88464604D01*
X236737797Y-88335266D01*
X236557993Y-88239159D01*
X236362895Y-88179976D01*
X236210838Y-88165000D01*
X236210828Y-88165000D01*
X236160000Y-88159994D01*
X236109172Y-88165000D01*
X215542205Y-88165000D01*
X215491370Y-88159993D01*
X215440535Y-88165000D01*
X215440532Y-88165000D01*
X215288475Y-88179976D01*
X215093377Y-88239159D01*
X214913573Y-88335266D01*
X214755974Y-88464604D01*
X214723563Y-88504097D01*
X214697072Y-88530588D01*
X214661101Y-88501068D01*
X214411808Y-88367818D01*
X214141309Y-88285764D01*
X213930492Y-88265000D01*
X213789508Y-88265000D01*
X213578691Y-88285764D01*
X213308192Y-88367818D01*
X213058899Y-88501068D01*
X212840392Y-88680392D01*
X212661068Y-88898899D01*
X212527818Y-89148192D01*
X212445764Y-89418691D01*
X212418057Y-89700000D01*
X212445764Y-89981309D01*
X212527818Y-90251808D01*
X212661068Y-90501101D01*
X212840392Y-90719608D01*
X213058899Y-90898932D01*
X213308192Y-91032182D01*
X213578691Y-91114236D01*
X213789508Y-91135000D01*
X213930492Y-91135000D01*
X214141309Y-91114236D01*
X214411808Y-91032182D01*
X214661101Y-90898932D01*
X214858154Y-90737214D01*
X214873880Y-90735906D01*
X214908333Y-90735000D01*
X214940542Y-90735000D01*
X214991370Y-90740006D01*
X215042198Y-90735000D01*
X215042208Y-90735000D01*
X215194265Y-90720024D01*
X215389363Y-90660841D01*
X215569167Y-90564734D01*
X215726766Y-90435396D01*
X215759177Y-90395903D01*
X215920080Y-90235000D01*
X222623444Y-90235000D01*
X222558273Y-90261995D01*
X222329465Y-90414880D01*
X222134880Y-90609465D01*
X221981995Y-90838273D01*
X221876686Y-91092510D01*
X221823000Y-91362408D01*
X221823000Y-91637592D01*
X221860676Y-91827001D01*
X215930196Y-91827001D01*
X215879368Y-91821995D01*
X215828540Y-91827001D01*
X215828531Y-91827001D01*
X215676474Y-91841977D01*
X215481376Y-91901160D01*
X215427463Y-91929977D01*
X215301571Y-91997267D01*
X215192753Y-92086572D01*
X215143973Y-92126605D01*
X215111566Y-92166093D01*
X214697071Y-92580588D01*
X214661101Y-92551068D01*
X214411808Y-92417818D01*
X214141309Y-92335764D01*
X213930492Y-92315000D01*
X213789508Y-92315000D01*
X213578691Y-92335764D01*
X213308192Y-92417818D01*
X213058899Y-92551068D01*
X212840392Y-92730392D01*
X212661068Y-92948899D01*
X212527818Y-93198192D01*
X212445764Y-93468691D01*
X212418057Y-93750000D01*
X212445764Y-94031309D01*
X212527818Y-94301808D01*
X212661068Y-94551101D01*
X212840392Y-94769608D01*
X213058899Y-94948932D01*
X213308192Y-95082182D01*
X213578691Y-95164236D01*
X213789508Y-95185000D01*
X213930492Y-95185000D01*
X214141309Y-95164236D01*
X214411808Y-95082182D01*
X214661101Y-94948932D01*
X214858154Y-94787214D01*
X214873880Y-94785906D01*
X214908333Y-94785000D01*
X214940542Y-94785000D01*
X214991370Y-94790006D01*
X215042198Y-94785000D01*
X215042208Y-94785000D01*
X215194265Y-94770024D01*
X215389363Y-94710841D01*
X215569167Y-94614734D01*
X215726766Y-94485396D01*
X215759177Y-94445903D01*
X216308080Y-93897001D01*
X232093603Y-93897001D01*
X206965605Y-119025000D01*
X203510495Y-119025000D01*
X203440000Y-119018057D01*
X203158692Y-119045763D01*
X203095276Y-119065000D01*
X197750492Y-119065000D01*
X197680000Y-119058057D01*
X197609508Y-119065000D01*
X187390011Y-119065000D01*
X187282395Y-119032355D01*
X187075000Y-119011928D01*
X186541323Y-119011928D01*
X186143845Y-118614450D01*
X186098898Y-118559682D01*
X185880391Y-118380358D01*
X185631098Y-118247108D01*
X185360599Y-118165054D01*
X185149782Y-118144290D01*
X185079290Y-118137347D01*
X185008798Y-118144290D01*
X177080894Y-118144290D01*
X172382788Y-113446185D01*
X172414642Y-113454365D01*
X172716553Y-113470991D01*
X173015907Y-113428397D01*
X173301199Y-113328222D01*
X173450792Y-113248261D01*
X173534475Y-112994080D01*
X172650000Y-112109605D01*
X172635858Y-112123748D01*
X172456253Y-111944143D01*
X172470395Y-111930000D01*
X172829605Y-111930000D01*
X173714080Y-112814475D01*
X173895049Y-112754895D01*
X173997688Y-112908505D01*
X174211495Y-113122312D01*
X174462905Y-113290299D01*
X174742257Y-113406011D01*
X175038816Y-113465000D01*
X175341184Y-113465000D01*
X175637743Y-113406011D01*
X175917095Y-113290299D01*
X176168505Y-113122312D01*
X176382312Y-112908505D01*
X176460000Y-112792237D01*
X176537688Y-112908505D01*
X176751495Y-113122312D01*
X177002905Y-113290299D01*
X177282257Y-113406011D01*
X177578816Y-113465000D01*
X177881184Y-113465000D01*
X178177743Y-113406011D01*
X178457095Y-113290299D01*
X178708505Y-113122312D01*
X178922312Y-112908505D01*
X179000000Y-112792237D01*
X179077688Y-112908505D01*
X179291495Y-113122312D01*
X179542905Y-113290299D01*
X179822257Y-113406011D01*
X180118816Y-113465000D01*
X180421184Y-113465000D01*
X180717743Y-113406011D01*
X180997095Y-113290299D01*
X181248505Y-113122312D01*
X181462312Y-112908505D01*
X181540000Y-112792237D01*
X181617688Y-112908505D01*
X181831495Y-113122312D01*
X182082905Y-113290299D01*
X182362257Y-113406011D01*
X182658816Y-113465000D01*
X182961184Y-113465000D01*
X183257743Y-113406011D01*
X183537095Y-113290299D01*
X183788505Y-113122312D01*
X184002312Y-112908505D01*
X184080000Y-112792237D01*
X184157688Y-112908505D01*
X184371495Y-113122312D01*
X184622905Y-113290299D01*
X184902257Y-113406011D01*
X185198816Y-113465000D01*
X185501184Y-113465000D01*
X185797743Y-113406011D01*
X186077095Y-113290299D01*
X186328505Y-113122312D01*
X186542312Y-112908505D01*
X186620000Y-112792237D01*
X186697688Y-112908505D01*
X186911495Y-113122312D01*
X187162905Y-113290299D01*
X187442257Y-113406011D01*
X187738816Y-113465000D01*
X188041184Y-113465000D01*
X188337743Y-113406011D01*
X188617095Y-113290299D01*
X188868505Y-113122312D01*
X189082312Y-112908505D01*
X189250299Y-112657095D01*
X189366011Y-112377743D01*
X189425000Y-112081184D01*
X189425000Y-111778816D01*
X189366011Y-111482257D01*
X189250299Y-111202905D01*
X189082312Y-110951495D01*
X188868505Y-110737688D01*
X188617095Y-110569701D01*
X188337743Y-110453989D01*
X188041184Y-110395000D01*
X187738816Y-110395000D01*
X187442257Y-110453989D01*
X187162905Y-110569701D01*
X186911495Y-110737688D01*
X186697688Y-110951495D01*
X186620000Y-111067763D01*
X186542312Y-110951495D01*
X186328505Y-110737688D01*
X186077095Y-110569701D01*
X185797743Y-110453989D01*
X185501184Y-110395000D01*
X185198816Y-110395000D01*
X184902257Y-110453989D01*
X184622905Y-110569701D01*
X184371495Y-110737688D01*
X184157688Y-110951495D01*
X184080000Y-111067763D01*
X184002312Y-110951495D01*
X183788505Y-110737688D01*
X183537095Y-110569701D01*
X183257743Y-110453989D01*
X182961184Y-110395000D01*
X182658816Y-110395000D01*
X182362257Y-110453989D01*
X182082905Y-110569701D01*
X181831495Y-110737688D01*
X181617688Y-110951495D01*
X181540000Y-111067763D01*
X181462312Y-110951495D01*
X181248505Y-110737688D01*
X180997095Y-110569701D01*
X180717743Y-110453989D01*
X180421184Y-110395000D01*
X180118816Y-110395000D01*
X179822257Y-110453989D01*
X179542905Y-110569701D01*
X179291495Y-110737688D01*
X179077688Y-110951495D01*
X179000000Y-111067763D01*
X178922312Y-110951495D01*
X178708505Y-110737688D01*
X178457095Y-110569701D01*
X178177743Y-110453989D01*
X177881184Y-110395000D01*
X177578816Y-110395000D01*
X177282257Y-110453989D01*
X177002905Y-110569701D01*
X176751495Y-110737688D01*
X176537688Y-110951495D01*
X176460000Y-111067763D01*
X176382312Y-110951495D01*
X176168505Y-110737688D01*
X175917095Y-110569701D01*
X175637743Y-110453989D01*
X175341184Y-110395000D01*
X175038816Y-110395000D01*
X174742257Y-110453989D01*
X174462905Y-110569701D01*
X174211495Y-110737688D01*
X173997688Y-110951495D01*
X173895049Y-111105105D01*
X173714080Y-111045525D01*
X172829605Y-111930000D01*
X172470395Y-111930000D01*
X171585920Y-111045525D01*
X171404951Y-111105105D01*
X171302312Y-110951495D01*
X171216737Y-110865920D01*
X171765525Y-110865920D01*
X172650000Y-111750395D01*
X173534475Y-110865920D01*
X173450792Y-110611739D01*
X173178225Y-110480842D01*
X172885358Y-110405635D01*
X172583447Y-110389009D01*
X172284093Y-110431603D01*
X171998801Y-110531778D01*
X171849208Y-110611739D01*
X171765525Y-110865920D01*
X171216737Y-110865920D01*
X171088505Y-110737688D01*
X170837095Y-110569701D01*
X170557743Y-110453989D01*
X170261184Y-110395000D01*
X169958816Y-110395000D01*
X169662257Y-110453989D01*
X169382905Y-110569701D01*
X169131495Y-110737688D01*
X168917688Y-110951495D01*
X168749701Y-111202905D01*
X168633989Y-111482257D01*
X168575000Y-111778816D01*
X168575000Y-112081184D01*
X168633989Y-112377743D01*
X168675000Y-112476752D01*
X168675000Y-113132300D01*
X168668057Y-113202792D01*
X168675000Y-113273283D01*
X168695764Y-113484100D01*
X168777818Y-113754599D01*
X168911068Y-114003892D01*
X169090392Y-114222399D01*
X169145155Y-114267342D01*
X174842812Y-119965000D01*
X174270495Y-119965000D01*
X174200000Y-119958057D01*
X173918692Y-119985763D01*
X173730247Y-120042927D01*
X173648192Y-120067818D01*
X173398899Y-120201068D01*
X173180392Y-120380392D01*
X173135445Y-120435160D01*
X173035155Y-120535450D01*
X172980393Y-120580392D01*
X172801069Y-120798899D01*
X172733667Y-120925000D01*
X172667818Y-121048193D01*
X172585764Y-121318692D01*
X172558057Y-121600000D01*
X172565001Y-121670502D01*
X172565000Y-123168805D01*
X172561928Y-123200000D01*
X172561928Y-123408676D01*
X171865605Y-124105000D01*
X169083718Y-124105000D01*
X169089502Y-124094180D01*
X169125812Y-123974482D01*
X169138072Y-123850000D01*
X169135000Y-123285750D01*
X168976250Y-123127000D01*
X167127000Y-123127000D01*
X167127000Y-123147000D01*
X166873000Y-123147000D01*
X166873000Y-123127000D01*
X165023750Y-123127000D01*
X164865000Y-123285750D01*
X164861928Y-123850000D01*
X164874188Y-123974482D01*
X164910498Y-124094180D01*
X164969463Y-124204494D01*
X165048815Y-124301185D01*
X165145506Y-124380537D01*
X165255820Y-124439502D01*
X165324687Y-124460393D01*
X165294866Y-124484866D01*
X165109294Y-124710986D01*
X164971401Y-124968966D01*
X164886487Y-125248889D01*
X164857815Y-125540000D01*
X164886487Y-125831111D01*
X164971401Y-126111034D01*
X165109294Y-126369014D01*
X165294866Y-126595134D01*
X165520986Y-126780706D01*
X165778966Y-126918599D01*
X166058889Y-127003513D01*
X166277050Y-127025000D01*
X167722950Y-127025000D01*
X167941111Y-127003513D01*
X168035105Y-126975000D01*
X172389508Y-126975000D01*
X172460000Y-126981943D01*
X172530492Y-126975000D01*
X172741309Y-126954236D01*
X173011808Y-126872182D01*
X173261101Y-126738932D01*
X173479608Y-126559608D01*
X173524554Y-126504841D01*
X174591324Y-125438072D01*
X174800000Y-125438072D01*
X174924482Y-125425812D01*
X175044180Y-125389502D01*
X175154494Y-125330537D01*
X175251185Y-125251185D01*
X175330537Y-125154494D01*
X175389502Y-125044180D01*
X175405117Y-124992702D01*
X178186903Y-124992702D01*
X178258486Y-125236671D01*
X178513996Y-125357571D01*
X178788184Y-125426300D01*
X179070512Y-125440217D01*
X179350130Y-125398787D01*
X179616292Y-125303603D01*
X179741514Y-125236671D01*
X179813097Y-124992702D01*
X179000000Y-124179605D01*
X178186903Y-124992702D01*
X175405117Y-124992702D01*
X175425812Y-124924482D01*
X175438072Y-124800000D01*
X175438072Y-124070512D01*
X177559783Y-124070512D01*
X177601213Y-124350130D01*
X177696397Y-124616292D01*
X177763329Y-124741514D01*
X178007298Y-124813097D01*
X178820395Y-124000000D01*
X179179605Y-124000000D01*
X179992702Y-124813097D01*
X180236671Y-124741514D01*
X180357571Y-124486004D01*
X180426300Y-124211816D01*
X180440217Y-123929488D01*
X180398787Y-123649870D01*
X180303603Y-123383708D01*
X180236671Y-123258486D01*
X179992702Y-123186903D01*
X179179605Y-124000000D01*
X178820395Y-124000000D01*
X178007298Y-123186903D01*
X177763329Y-123258486D01*
X177642429Y-123513996D01*
X177573700Y-123788184D01*
X177559783Y-124070512D01*
X175438072Y-124070512D01*
X175438072Y-124039302D01*
X175441943Y-124000000D01*
X175438072Y-123960698D01*
X175438072Y-123200000D01*
X175435000Y-123168808D01*
X175435000Y-122835000D01*
X178237457Y-122835000D01*
X178186903Y-123007298D01*
X179000000Y-123820395D01*
X179813097Y-123007298D01*
X179762543Y-122835000D01*
X180665604Y-122835000D01*
X181835454Y-124004851D01*
X181880392Y-124059608D01*
X182098899Y-124238932D01*
X182348192Y-124372182D01*
X182544366Y-124431690D01*
X182618690Y-124454236D01*
X182899999Y-124481943D01*
X182970491Y-124475000D01*
X184355628Y-124475000D01*
X184294866Y-124524866D01*
X184109294Y-124750986D01*
X183971401Y-125008966D01*
X183886487Y-125288889D01*
X183857815Y-125580000D01*
X183886487Y-125871111D01*
X183971401Y-126151034D01*
X184109294Y-126409014D01*
X184294866Y-126635134D01*
X184520986Y-126820706D01*
X184778966Y-126958599D01*
X185058889Y-127043513D01*
X185277050Y-127065000D01*
X186722950Y-127065000D01*
X186941111Y-127043513D01*
X187084553Y-127000000D01*
X193011928Y-127000000D01*
X193024188Y-127124482D01*
X193060498Y-127244180D01*
X193119463Y-127354494D01*
X193198815Y-127451185D01*
X193295506Y-127530537D01*
X193405820Y-127589502D01*
X193525518Y-127625812D01*
X193650000Y-127638072D01*
X194214250Y-127635000D01*
X194373000Y-127476250D01*
X194373000Y-125627000D01*
X193173750Y-125627000D01*
X193015000Y-125785750D01*
X193011928Y-127000000D01*
X187084553Y-127000000D01*
X187221034Y-126958599D01*
X187479014Y-126820706D01*
X187705134Y-126635134D01*
X187890706Y-126409014D01*
X188028599Y-126151034D01*
X188113513Y-125871111D01*
X188142185Y-125580000D01*
X188113513Y-125288889D01*
X188028599Y-125008966D01*
X187890706Y-124750986D01*
X187705134Y-124524866D01*
X187479014Y-124339294D01*
X187424209Y-124310000D01*
X187479014Y-124280706D01*
X187705134Y-124095134D01*
X187783208Y-124000000D01*
X193011928Y-124000000D01*
X193015000Y-125214250D01*
X193173750Y-125373000D01*
X194373000Y-125373000D01*
X194373000Y-123523750D01*
X194214250Y-123365000D01*
X193650000Y-123361928D01*
X193525518Y-123374188D01*
X193405820Y-123410498D01*
X193295506Y-123469463D01*
X193198815Y-123548815D01*
X193119463Y-123645506D01*
X193060498Y-123755820D01*
X193024188Y-123875518D01*
X193011928Y-124000000D01*
X187783208Y-124000000D01*
X187890706Y-123869014D01*
X188028599Y-123611034D01*
X188113513Y-123331111D01*
X188142185Y-123040000D01*
X188113513Y-122748889D01*
X188028599Y-122468966D01*
X187890706Y-122210986D01*
X187705134Y-121984866D01*
X187644372Y-121935000D01*
X197085605Y-121935000D01*
X198145000Y-122994396D01*
X198145000Y-123855628D01*
X198095134Y-123794866D01*
X197869013Y-123609294D01*
X197611033Y-123471401D01*
X197331110Y-123386487D01*
X197040000Y-123357815D01*
X196748889Y-123386487D01*
X196468966Y-123471401D01*
X196210986Y-123609294D01*
X195984866Y-123794866D01*
X195960393Y-123824687D01*
X195939502Y-123755820D01*
X195880537Y-123645506D01*
X195801185Y-123548815D01*
X195704494Y-123469463D01*
X195594180Y-123410498D01*
X195474482Y-123374188D01*
X195350000Y-123361928D01*
X194785750Y-123365000D01*
X194627000Y-123523750D01*
X194627000Y-125373000D01*
X194647000Y-125373000D01*
X194647000Y-125627000D01*
X194627000Y-125627000D01*
X194627000Y-127476250D01*
X194785750Y-127635000D01*
X195350000Y-127638072D01*
X195474482Y-127625812D01*
X195594180Y-127589502D01*
X195704494Y-127530537D01*
X195801185Y-127451185D01*
X195880537Y-127354494D01*
X195939502Y-127244180D01*
X195960393Y-127175312D01*
X195984867Y-127205134D01*
X196210987Y-127390706D01*
X196468967Y-127528599D01*
X196748890Y-127613513D01*
X197040000Y-127642185D01*
X197331111Y-127613513D01*
X197611034Y-127528599D01*
X197869014Y-127390706D01*
X198095134Y-127205134D01*
X198280706Y-126979014D01*
X198310000Y-126924208D01*
X198339295Y-126979014D01*
X198524867Y-127205134D01*
X198750987Y-127390706D01*
X199008967Y-127528599D01*
X199288890Y-127613513D01*
X199580000Y-127642185D01*
X199871111Y-127613513D01*
X200151034Y-127528599D01*
X200409014Y-127390706D01*
X200635134Y-127205134D01*
X200803483Y-127000000D01*
X204511928Y-127000000D01*
X204524188Y-127124482D01*
X204560498Y-127244180D01*
X204619463Y-127354494D01*
X204698815Y-127451185D01*
X204795506Y-127530537D01*
X204905820Y-127589502D01*
X205025518Y-127625812D01*
X205150000Y-127638072D01*
X205714250Y-127635000D01*
X205873000Y-127476250D01*
X205873000Y-125627000D01*
X204673750Y-125627000D01*
X204515000Y-125785750D01*
X204511928Y-127000000D01*
X200803483Y-127000000D01*
X200820706Y-126979014D01*
X200958599Y-126721034D01*
X201043513Y-126441111D01*
X201065000Y-126222950D01*
X201065000Y-124777050D01*
X201043513Y-124558889D01*
X201015000Y-124464895D01*
X201015000Y-122470495D01*
X201021943Y-122400000D01*
X200994237Y-122118691D01*
X200938515Y-121935000D01*
X203329508Y-121935000D01*
X203400000Y-121941943D01*
X203470492Y-121935000D01*
X203920873Y-121935000D01*
X205348883Y-123363011D01*
X205150000Y-123361928D01*
X205025518Y-123374188D01*
X204905820Y-123410498D01*
X204795506Y-123469463D01*
X204698815Y-123548815D01*
X204619463Y-123645506D01*
X204560498Y-123755820D01*
X204524188Y-123875518D01*
X204511928Y-124000000D01*
X204515000Y-125214250D01*
X204673750Y-125373000D01*
X205873000Y-125373000D01*
X205873000Y-125353000D01*
X206127000Y-125353000D01*
X206127000Y-125373000D01*
X206147000Y-125373000D01*
X206147000Y-125627000D01*
X206127000Y-125627000D01*
X206127000Y-127476250D01*
X206285750Y-127635000D01*
X206850000Y-127638072D01*
X206974482Y-127625812D01*
X207094180Y-127589502D01*
X207204494Y-127530537D01*
X207301185Y-127451185D01*
X207380537Y-127354494D01*
X207439502Y-127244180D01*
X207460393Y-127175312D01*
X207484867Y-127205134D01*
X207710987Y-127390706D01*
X207968967Y-127528599D01*
X208248890Y-127613513D01*
X208540000Y-127642185D01*
X208831111Y-127613513D01*
X209111034Y-127528599D01*
X209369014Y-127390706D01*
X209595134Y-127205134D01*
X209780706Y-126979014D01*
X209810000Y-126924208D01*
X209839295Y-126979014D01*
X210024867Y-127205134D01*
X210250987Y-127390706D01*
X210508967Y-127528599D01*
X210788890Y-127613513D01*
X211080000Y-127642185D01*
X211371111Y-127613513D01*
X211651034Y-127528599D01*
X211909014Y-127390706D01*
X212135134Y-127205134D01*
X212320706Y-126979014D01*
X212350000Y-126924208D01*
X212379295Y-126979014D01*
X212564867Y-127205134D01*
X212790987Y-127390706D01*
X213048967Y-127528599D01*
X213328890Y-127613513D01*
X213620000Y-127642185D01*
X213911111Y-127613513D01*
X214191034Y-127528599D01*
X214449014Y-127390706D01*
X214675134Y-127205134D01*
X214860706Y-126979014D01*
X214998599Y-126721034D01*
X215083513Y-126441111D01*
X215105000Y-126222950D01*
X215105000Y-124777050D01*
X215083513Y-124558889D01*
X214998599Y-124278966D01*
X214860706Y-124020986D01*
X214675134Y-123794866D01*
X214449013Y-123609294D01*
X214191033Y-123471401D01*
X213911110Y-123386487D01*
X213620000Y-123357815D01*
X213328889Y-123386487D01*
X213048966Y-123471401D01*
X212790986Y-123609294D01*
X212564866Y-123794866D01*
X212379294Y-124020987D01*
X212350000Y-124075792D01*
X212320706Y-124020986D01*
X212135134Y-123794866D01*
X211909013Y-123609294D01*
X211651033Y-123471401D01*
X211371110Y-123386487D01*
X211080000Y-123357815D01*
X210788889Y-123386487D01*
X210508966Y-123471401D01*
X210250986Y-123609294D01*
X210024866Y-123794866D01*
X209873951Y-123978757D01*
X209872182Y-123972924D01*
X209820117Y-123875518D01*
X209738932Y-123723631D01*
X209559608Y-123505124D01*
X209504846Y-123460182D01*
X207939664Y-121895000D01*
X221201646Y-121895000D01*
X221174188Y-121985518D01*
X221161928Y-122110000D01*
X221165000Y-122674250D01*
X221323750Y-122833000D01*
X223173000Y-122833000D01*
X223173000Y-122813000D01*
X223427000Y-122813000D01*
X223427000Y-122833000D01*
X225276250Y-122833000D01*
X225435000Y-122674250D01*
X225438072Y-122110000D01*
X225425812Y-121985518D01*
X225398354Y-121895000D01*
X227975604Y-121895000D01*
X225805605Y-124065000D01*
X225383718Y-124065000D01*
X225389502Y-124054180D01*
X225425812Y-123934482D01*
X225438072Y-123810000D01*
X225435000Y-123245750D01*
X225276250Y-123087000D01*
X223427000Y-123087000D01*
X223427000Y-123107000D01*
X223173000Y-123107000D01*
X223173000Y-123087000D01*
X221323750Y-123087000D01*
X221165000Y-123245750D01*
X221161928Y-123810000D01*
X221174188Y-123934482D01*
X221210498Y-124054180D01*
X221269463Y-124164494D01*
X221348815Y-124261185D01*
X221445506Y-124340537D01*
X221555820Y-124399502D01*
X221624687Y-124420393D01*
X221594866Y-124444866D01*
X221409294Y-124670986D01*
X221271401Y-124928966D01*
X221186487Y-125208889D01*
X221157815Y-125500000D01*
X221186487Y-125791111D01*
X221271401Y-126071034D01*
X221409294Y-126329014D01*
X221594866Y-126555134D01*
X221820986Y-126740706D01*
X222078966Y-126878599D01*
X222358889Y-126963513D01*
X222577050Y-126985000D01*
X224022950Y-126985000D01*
X224241111Y-126963513D01*
X224335105Y-126935000D01*
X226329508Y-126935000D01*
X226400000Y-126941943D01*
X226470492Y-126935000D01*
X226681309Y-126914236D01*
X226951808Y-126832182D01*
X227201101Y-126698932D01*
X227419608Y-126519608D01*
X227464554Y-126464841D01*
X228389395Y-125540000D01*
X232357815Y-125540000D01*
X232386487Y-125831111D01*
X232471401Y-126111034D01*
X232609294Y-126369014D01*
X232794866Y-126595134D01*
X233020986Y-126780706D01*
X233075791Y-126810000D01*
X233020986Y-126839294D01*
X232794866Y-127024866D01*
X232609294Y-127250986D01*
X232471401Y-127508966D01*
X232386487Y-127788889D01*
X232357815Y-128080000D01*
X232386487Y-128371111D01*
X232471401Y-128651034D01*
X232609294Y-128909014D01*
X232794866Y-129135134D01*
X233020986Y-129320706D01*
X233278966Y-129458599D01*
X233558889Y-129543513D01*
X233777050Y-129565000D01*
X235222950Y-129565000D01*
X235441111Y-129543513D01*
X235721034Y-129458599D01*
X235979014Y-129320706D01*
X236205134Y-129135134D01*
X236390706Y-128909014D01*
X236528599Y-128651034D01*
X236613513Y-128371111D01*
X236642185Y-128080000D01*
X236613513Y-127788889D01*
X236528599Y-127508966D01*
X236390706Y-127250986D01*
X236205134Y-127024866D01*
X235979014Y-126839294D01*
X235924209Y-126810000D01*
X235979014Y-126780706D01*
X236205134Y-126595134D01*
X236390706Y-126369014D01*
X236528599Y-126111034D01*
X236613513Y-125831111D01*
X236642185Y-125540000D01*
X236613513Y-125248889D01*
X236528599Y-124968966D01*
X236390706Y-124710986D01*
X236205134Y-124484866D01*
X235979014Y-124299294D01*
X235920663Y-124268105D01*
X236080619Y-124164176D01*
X236289857Y-123960252D01*
X236455291Y-123719426D01*
X236570563Y-123450953D01*
X236591476Y-123356890D01*
X236470155Y-123127000D01*
X234627000Y-123127000D01*
X234627000Y-123147000D01*
X234373000Y-123147000D01*
X234373000Y-123127000D01*
X232529845Y-123127000D01*
X232408524Y-123356890D01*
X232429437Y-123450953D01*
X232544709Y-123719426D01*
X232710143Y-123960252D01*
X232919381Y-124164176D01*
X233079337Y-124268105D01*
X233020986Y-124299294D01*
X232794866Y-124484866D01*
X232609294Y-124710986D01*
X232471401Y-124968966D01*
X232386487Y-125248889D01*
X232357815Y-125540000D01*
X228389395Y-125540000D01*
X232034397Y-121895000D01*
X232858663Y-121895000D01*
X232710143Y-122039748D01*
X232544709Y-122280574D01*
X232429437Y-122549047D01*
X232408524Y-122643110D01*
X232529845Y-122873000D01*
X234373000Y-122873000D01*
X234373000Y-122853000D01*
X234627000Y-122853000D01*
X234627000Y-122873000D01*
X236470155Y-122873000D01*
X236591476Y-122643110D01*
X236570563Y-122549047D01*
X236455291Y-122280574D01*
X236289857Y-122039748D01*
X236080619Y-121835824D01*
X236062478Y-121824037D01*
X236165611Y-121768912D01*
X236326705Y-121636705D01*
X236458912Y-121475611D01*
X236557150Y-121291820D01*
X236617645Y-121092395D01*
X236638072Y-120885000D01*
X236638072Y-120035000D01*
X236617645Y-119827605D01*
X236557150Y-119628180D01*
X236458912Y-119444389D01*
X236326705Y-119283295D01*
X236165611Y-119151088D01*
X235981820Y-119052850D01*
X235782395Y-118992355D01*
X235575000Y-118971928D01*
X233425000Y-118971928D01*
X233217605Y-118992355D01*
X233109989Y-119025000D01*
X231510491Y-119025000D01*
X231439999Y-119018057D01*
X231369507Y-119025000D01*
X211024395Y-119025000D01*
X220656987Y-109392408D01*
X221823000Y-109392408D01*
X221823000Y-109667592D01*
X221876686Y-109937490D01*
X221981995Y-110191727D01*
X222134880Y-110420535D01*
X222329465Y-110615120D01*
X222558273Y-110768005D01*
X222812510Y-110873314D01*
X223082408Y-110927000D01*
X223357592Y-110927000D01*
X223627490Y-110873314D01*
X223881727Y-110768005D01*
X224110535Y-110615120D01*
X224230090Y-110495565D01*
X224974040Y-110495565D01*
X225041020Y-110735656D01*
X225290048Y-110852756D01*
X225557135Y-110919023D01*
X225832017Y-110931910D01*
X226104133Y-110890922D01*
X226363023Y-110797636D01*
X226478980Y-110735656D01*
X226545960Y-110495565D01*
X225760000Y-109709605D01*
X224974040Y-110495565D01*
X224230090Y-110495565D01*
X224305120Y-110420535D01*
X224458005Y-110191727D01*
X224487692Y-110120057D01*
X224492364Y-110133023D01*
X224554344Y-110248980D01*
X224794435Y-110315960D01*
X225580395Y-109530000D01*
X225939605Y-109530000D01*
X226725565Y-110315960D01*
X226965656Y-110248980D01*
X227029485Y-110113240D01*
X227061995Y-110191727D01*
X227214880Y-110420535D01*
X227409465Y-110615120D01*
X227638273Y-110768005D01*
X227892510Y-110873314D01*
X228162408Y-110927000D01*
X228437592Y-110927000D01*
X228707490Y-110873314D01*
X228961727Y-110768005D01*
X229190535Y-110615120D01*
X229385120Y-110420535D01*
X229538005Y-110191727D01*
X229570000Y-110114485D01*
X229601995Y-110191727D01*
X229754880Y-110420535D01*
X229949465Y-110615120D01*
X230178273Y-110768005D01*
X230432510Y-110873314D01*
X230702408Y-110927000D01*
X230977592Y-110927000D01*
X231247490Y-110873314D01*
X231501727Y-110768005D01*
X231730535Y-110615120D01*
X231925120Y-110420535D01*
X232078005Y-110191727D01*
X232110000Y-110114485D01*
X232141995Y-110191727D01*
X232294880Y-110420535D01*
X232489465Y-110615120D01*
X232718273Y-110768005D01*
X232972510Y-110873314D01*
X233242408Y-110927000D01*
X233517592Y-110927000D01*
X233787490Y-110873314D01*
X234041727Y-110768005D01*
X234270535Y-110615120D01*
X234465120Y-110420535D01*
X234618005Y-110191727D01*
X234650000Y-110114485D01*
X234681995Y-110191727D01*
X234834880Y-110420535D01*
X235029465Y-110615120D01*
X235258273Y-110768005D01*
X235512510Y-110873314D01*
X235782408Y-110927000D01*
X236057592Y-110927000D01*
X236327490Y-110873314D01*
X236581727Y-110768005D01*
X236810535Y-110615120D01*
X237005120Y-110420535D01*
X237158005Y-110191727D01*
X237190000Y-110114485D01*
X237221995Y-110191727D01*
X237374880Y-110420535D01*
X237569465Y-110615120D01*
X237798273Y-110768005D01*
X238052510Y-110873314D01*
X238322408Y-110927000D01*
X238597592Y-110927000D01*
X238867490Y-110873314D01*
X239121727Y-110768005D01*
X239350535Y-110615120D01*
X239545120Y-110420535D01*
X239698005Y-110191727D01*
X239730000Y-110114485D01*
X239761995Y-110191727D01*
X239914880Y-110420535D01*
X240109465Y-110615120D01*
X240338273Y-110768005D01*
X240592510Y-110873314D01*
X240862408Y-110927000D01*
X241137592Y-110927000D01*
X241407490Y-110873314D01*
X241661727Y-110768005D01*
X241890535Y-110615120D01*
X242085120Y-110420535D01*
X242238005Y-110191727D01*
X242343314Y-109937490D01*
X242397000Y-109667592D01*
X242397000Y-109392408D01*
X242343314Y-109122510D01*
X242238005Y-108868273D01*
X242085120Y-108639465D01*
X241890535Y-108444880D01*
X241661727Y-108291995D01*
X241407490Y-108186686D01*
X241137592Y-108133000D01*
X240862408Y-108133000D01*
X240592510Y-108186686D01*
X240338273Y-108291995D01*
X240109465Y-108444880D01*
X239914880Y-108639465D01*
X239761995Y-108868273D01*
X239730000Y-108945515D01*
X239698005Y-108868273D01*
X239545120Y-108639465D01*
X239350535Y-108444880D01*
X239121727Y-108291995D01*
X238867490Y-108186686D01*
X238597592Y-108133000D01*
X238322408Y-108133000D01*
X238052510Y-108186686D01*
X237798273Y-108291995D01*
X237569465Y-108444880D01*
X237374880Y-108639465D01*
X237221995Y-108868273D01*
X237190000Y-108945515D01*
X237158005Y-108868273D01*
X237005120Y-108639465D01*
X236810535Y-108444880D01*
X236581727Y-108291995D01*
X236327490Y-108186686D01*
X236057592Y-108133000D01*
X235782408Y-108133000D01*
X235512510Y-108186686D01*
X235258273Y-108291995D01*
X235029465Y-108444880D01*
X234834880Y-108639465D01*
X234681995Y-108868273D01*
X234650000Y-108945515D01*
X234618005Y-108868273D01*
X234465120Y-108639465D01*
X234270535Y-108444880D01*
X234041727Y-108291995D01*
X233787490Y-108186686D01*
X233517592Y-108133000D01*
X233242408Y-108133000D01*
X232972510Y-108186686D01*
X232718273Y-108291995D01*
X232489465Y-108444880D01*
X232294880Y-108639465D01*
X232141995Y-108868273D01*
X232110000Y-108945515D01*
X232078005Y-108868273D01*
X231925120Y-108639465D01*
X231730535Y-108444880D01*
X231501727Y-108291995D01*
X231247490Y-108186686D01*
X230977592Y-108133000D01*
X230702408Y-108133000D01*
X230432510Y-108186686D01*
X230178273Y-108291995D01*
X229949465Y-108444880D01*
X229754880Y-108639465D01*
X229601995Y-108868273D01*
X229570000Y-108945515D01*
X229538005Y-108868273D01*
X229385120Y-108639465D01*
X229190535Y-108444880D01*
X228961727Y-108291995D01*
X228707490Y-108186686D01*
X228437592Y-108133000D01*
X228162408Y-108133000D01*
X227892510Y-108186686D01*
X227638273Y-108291995D01*
X227409465Y-108444880D01*
X227214880Y-108639465D01*
X227061995Y-108868273D01*
X227032308Y-108939943D01*
X227027636Y-108926977D01*
X226965656Y-108811020D01*
X226725565Y-108744040D01*
X225939605Y-109530000D01*
X225580395Y-109530000D01*
X224794435Y-108744040D01*
X224554344Y-108811020D01*
X224490515Y-108946760D01*
X224458005Y-108868273D01*
X224305120Y-108639465D01*
X224230090Y-108564435D01*
X224974040Y-108564435D01*
X225760000Y-109350395D01*
X226545960Y-108564435D01*
X226478980Y-108324344D01*
X226229952Y-108207244D01*
X225962865Y-108140977D01*
X225687983Y-108128090D01*
X225415867Y-108169078D01*
X225156977Y-108262364D01*
X225041020Y-108324344D01*
X224974040Y-108564435D01*
X224230090Y-108564435D01*
X224110535Y-108444880D01*
X223881727Y-108291995D01*
X223627490Y-108186686D01*
X223357592Y-108133000D01*
X223082408Y-108133000D01*
X222812510Y-108186686D01*
X222558273Y-108291995D01*
X222329465Y-108444880D01*
X222134880Y-108639465D01*
X221981995Y-108868273D01*
X221876686Y-109122510D01*
X221823000Y-109392408D01*
X220656987Y-109392408D01*
X234352384Y-95697012D01*
X238167496Y-95697012D01*
X238237988Y-95703955D01*
X238308480Y-95697012D01*
X238519297Y-95676248D01*
X238789796Y-95594194D01*
X239039089Y-95460944D01*
X239257596Y-95281620D01*
X239302542Y-95226853D01*
X241964850Y-92564546D01*
X242019607Y-92519608D01*
X242198932Y-92301101D01*
X242332182Y-92051808D01*
X242356041Y-91973155D01*
X242414237Y-91781309D01*
X242441943Y-91500000D01*
X242435000Y-91429505D01*
X242435000Y-86594395D01*
X243064543Y-85964853D01*
X243114637Y-85914759D01*
X243153995Y-85855856D01*
X243198931Y-85801101D01*
X243232324Y-85738627D01*
X243271680Y-85679727D01*
X243298786Y-85614286D01*
X243332182Y-85551808D01*
X243340001Y-85526033D01*
X243340000Y-125972911D01*
X243266098Y-126871802D01*
X243052999Y-127720180D01*
X242704197Y-128522371D01*
X242229062Y-129256818D01*
X241640354Y-129903799D01*
X240953875Y-130445946D01*
X240188076Y-130868691D01*
X239363514Y-131160683D01*
X238490925Y-131316116D01*
X237984453Y-131340000D01*
X166027089Y-131340000D01*
X165128198Y-131266098D01*
X164279820Y-131052999D01*
X163477629Y-130704197D01*
X162743182Y-130229062D01*
X162096201Y-129640354D01*
X161554054Y-128953875D01*
X161131309Y-128188076D01*
X160839317Y-127363514D01*
X160683884Y-126490925D01*
X160660000Y-125984453D01*
X160660000Y-122150000D01*
X164861928Y-122150000D01*
X164865000Y-122714250D01*
X165023750Y-122873000D01*
X166873000Y-122873000D01*
X166873000Y-121673750D01*
X167127000Y-121673750D01*
X167127000Y-122873000D01*
X168976250Y-122873000D01*
X169135000Y-122714250D01*
X169138072Y-122150000D01*
X169125812Y-122025518D01*
X169089502Y-121905820D01*
X169030537Y-121795506D01*
X168951185Y-121698815D01*
X168854494Y-121619463D01*
X168744180Y-121560498D01*
X168624482Y-121524188D01*
X168500000Y-121511928D01*
X167285750Y-121515000D01*
X167127000Y-121673750D01*
X166873000Y-121673750D01*
X166714250Y-121515000D01*
X165500000Y-121511928D01*
X165375518Y-121524188D01*
X165255820Y-121560498D01*
X165145506Y-121619463D01*
X165048815Y-121698815D01*
X164969463Y-121795506D01*
X164910498Y-121905820D01*
X164874188Y-122025518D01*
X164861928Y-122150000D01*
X160660000Y-122150000D01*
X160660000Y-108900000D01*
X190133762Y-108900000D01*
X190138769Y-108950838D01*
X190138769Y-109001939D01*
X190148738Y-109052057D01*
X190153745Y-109102895D01*
X190168573Y-109151777D01*
X190178543Y-109201898D01*
X190198100Y-109249113D01*
X190212928Y-109297993D01*
X190237007Y-109343042D01*
X190256564Y-109390256D01*
X190284955Y-109432746D01*
X190309035Y-109477797D01*
X190341441Y-109517284D01*
X190369832Y-109559774D01*
X190405965Y-109595907D01*
X190438373Y-109635396D01*
X190477861Y-109667803D01*
X190513995Y-109703937D01*
X190556485Y-109732328D01*
X190595972Y-109764734D01*
X190641023Y-109788814D01*
X190683513Y-109817205D01*
X190730727Y-109836762D01*
X190775776Y-109860841D01*
X190824656Y-109875669D01*
X190871871Y-109895226D01*
X190921992Y-109905196D01*
X190970874Y-109920024D01*
X191021712Y-109925031D01*
X191071830Y-109935000D01*
X206471290Y-109935000D01*
X208696063Y-112159774D01*
X208840226Y-112303937D01*
X208882712Y-112332325D01*
X208922202Y-112364734D01*
X208967256Y-112388816D01*
X209009744Y-112417205D01*
X209056959Y-112436762D01*
X209102006Y-112460840D01*
X209150881Y-112475666D01*
X209198102Y-112495226D01*
X209248229Y-112505197D01*
X209297104Y-112520023D01*
X209347934Y-112525029D01*
X209398061Y-112535000D01*
X209449171Y-112535000D01*
X209499999Y-112540006D01*
X209550827Y-112535000D01*
X209601939Y-112535000D01*
X209652068Y-112525029D01*
X209702894Y-112520023D01*
X209751766Y-112505198D01*
X209801898Y-112495226D01*
X209849123Y-112475665D01*
X209897993Y-112460840D01*
X209943036Y-112436764D01*
X209990256Y-112417205D01*
X210032748Y-112388813D01*
X210077797Y-112364734D01*
X210117281Y-112332330D01*
X210159774Y-112303937D01*
X210195916Y-112267795D01*
X210235395Y-112235395D01*
X210267795Y-112195916D01*
X210303937Y-112159774D01*
X210332330Y-112117281D01*
X210364734Y-112077797D01*
X210388813Y-112032748D01*
X210417205Y-111990256D01*
X210436764Y-111943036D01*
X210460840Y-111897993D01*
X210475665Y-111849123D01*
X210495226Y-111801898D01*
X210505198Y-111751766D01*
X210520023Y-111702894D01*
X210525029Y-111652068D01*
X210535000Y-111601939D01*
X210535000Y-111550827D01*
X210540006Y-111499999D01*
X210535000Y-111449171D01*
X210535000Y-111398061D01*
X210525029Y-111347934D01*
X210520023Y-111297104D01*
X210505197Y-111248229D01*
X210495226Y-111198102D01*
X210475666Y-111150881D01*
X210460840Y-111102006D01*
X210436762Y-111056959D01*
X210417205Y-111009744D01*
X210388816Y-110967256D01*
X210364734Y-110922202D01*
X210332325Y-110882712D01*
X210303937Y-110840226D01*
X210159774Y-110696063D01*
X207667807Y-108204097D01*
X207635396Y-108164604D01*
X207477797Y-108035266D01*
X207297993Y-107939159D01*
X207102895Y-107879976D01*
X206950838Y-107865000D01*
X206950828Y-107865000D01*
X206900000Y-107859994D01*
X206849172Y-107865000D01*
X191071830Y-107865000D01*
X191021712Y-107874969D01*
X190970874Y-107879976D01*
X190921992Y-107894804D01*
X190871871Y-107904774D01*
X190824656Y-107924331D01*
X190775776Y-107939159D01*
X190730727Y-107963238D01*
X190683513Y-107982795D01*
X190641023Y-108011186D01*
X190595972Y-108035266D01*
X190556485Y-108067672D01*
X190513995Y-108096063D01*
X190477861Y-108132197D01*
X190438373Y-108164604D01*
X190405966Y-108204092D01*
X190369832Y-108240226D01*
X190341441Y-108282716D01*
X190309035Y-108322203D01*
X190284955Y-108367254D01*
X190256564Y-108409744D01*
X190237007Y-108456958D01*
X190212928Y-108502007D01*
X190198100Y-108550887D01*
X190178543Y-108598102D01*
X190168573Y-108648223D01*
X190153745Y-108697105D01*
X190148738Y-108747943D01*
X190138769Y-108798061D01*
X190138769Y-108849162D01*
X190133762Y-108900000D01*
X160660000Y-108900000D01*
X160660000Y-79540000D01*
X164357815Y-79540000D01*
X164386487Y-79831111D01*
X164471401Y-80111034D01*
X164609294Y-80369014D01*
X164794866Y-80595134D01*
X165020986Y-80780706D01*
X165065000Y-80804232D01*
X165065001Y-85389498D01*
X165058057Y-85460000D01*
X165085764Y-85741308D01*
X165167818Y-86011807D01*
X165167819Y-86011808D01*
X165301069Y-86261101D01*
X165480393Y-86479608D01*
X165535155Y-86524550D01*
X168708690Y-89698086D01*
X168749701Y-89797095D01*
X168917688Y-90048505D01*
X169131495Y-90262312D01*
X169382905Y-90430299D01*
X169662257Y-90546011D01*
X169958816Y-90605000D01*
X170261184Y-90605000D01*
X170557743Y-90546011D01*
X170837095Y-90430299D01*
X171088505Y-90262312D01*
X171302312Y-90048505D01*
X171380000Y-89932237D01*
X171457688Y-90048505D01*
X171671495Y-90262312D01*
X171922905Y-90430299D01*
X172202257Y-90546011D01*
X172498816Y-90605000D01*
X172801184Y-90605000D01*
X173097743Y-90546011D01*
X173377095Y-90430299D01*
X173628505Y-90262312D01*
X173842312Y-90048505D01*
X173920000Y-89932237D01*
X173997688Y-90048505D01*
X174211495Y-90262312D01*
X174462905Y-90430299D01*
X174742257Y-90546011D01*
X175038816Y-90605000D01*
X175191740Y-90605000D01*
X175219752Y-90605786D01*
X175231026Y-90606995D01*
X175239767Y-90608662D01*
X175247042Y-90610691D01*
X175253948Y-90613262D01*
X175261530Y-90616834D01*
X175270600Y-90622058D01*
X175281809Y-90629765D01*
X175295475Y-90640785D01*
X175319443Y-90663154D01*
X175394091Y-90737802D01*
X175394096Y-90737806D01*
X178302197Y-93645908D01*
X178334605Y-93685397D01*
X178374093Y-93717804D01*
X178492203Y-93814735D01*
X178588310Y-93866105D01*
X178672008Y-93910842D01*
X178867106Y-93970025D01*
X179019163Y-93985001D01*
X179019172Y-93985001D01*
X179070000Y-93990007D01*
X179120828Y-93985001D01*
X202283632Y-93985001D01*
X202320147Y-94168574D01*
X202428320Y-94429727D01*
X202585363Y-94664759D01*
X202785241Y-94864637D01*
X203020273Y-95021680D01*
X203281426Y-95129853D01*
X203558665Y-95185000D01*
X203841335Y-95185000D01*
X204118574Y-95129853D01*
X204379727Y-95021680D01*
X204614759Y-94864637D01*
X204814637Y-94664759D01*
X204971680Y-94429727D01*
X205079853Y-94168574D01*
X205135000Y-93891335D01*
X205135000Y-93608665D01*
X205079853Y-93331426D01*
X204971680Y-93070273D01*
X204814637Y-92835241D01*
X204614759Y-92635363D01*
X204379727Y-92478320D01*
X204118574Y-92370147D01*
X203841335Y-92315000D01*
X203732838Y-92315000D01*
X203730923Y-92313574D01*
X203715580Y-92300586D01*
X203690547Y-92276836D01*
X203667808Y-92254098D01*
X203635397Y-92214605D01*
X203477798Y-92085267D01*
X203297994Y-91989160D01*
X203102896Y-91929977D01*
X202950839Y-91915001D01*
X202950829Y-91915001D01*
X202900001Y-91909995D01*
X202849173Y-91915001D01*
X179498712Y-91915001D01*
X178137689Y-90553978D01*
X178177743Y-90546011D01*
X178457095Y-90430299D01*
X178708505Y-90262312D01*
X178922312Y-90048505D01*
X179000000Y-89932237D01*
X179077688Y-90048505D01*
X179291495Y-90262312D01*
X179542905Y-90430299D01*
X179822257Y-90546011D01*
X180118816Y-90605000D01*
X180271740Y-90605000D01*
X180299752Y-90605786D01*
X180311026Y-90606995D01*
X180319767Y-90608662D01*
X180327042Y-90610691D01*
X180333948Y-90613262D01*
X180341530Y-90616834D01*
X180350600Y-90622058D01*
X180361809Y-90629765D01*
X180375475Y-90640785D01*
X180399443Y-90663154D01*
X180474091Y-90737802D01*
X180474097Y-90737807D01*
X181002194Y-91265904D01*
X181034605Y-91305397D01*
X181130314Y-91383943D01*
X181192203Y-91434735D01*
X181211657Y-91445133D01*
X181372008Y-91530842D01*
X181567106Y-91590025D01*
X181719163Y-91605001D01*
X181719165Y-91605001D01*
X181770001Y-91610008D01*
X181820836Y-91605001D01*
X202779171Y-91605001D01*
X202829999Y-91610007D01*
X202880827Y-91605001D01*
X202880837Y-91605001D01*
X203032894Y-91590025D01*
X203227992Y-91530842D01*
X203407796Y-91434735D01*
X203565395Y-91305397D01*
X203597806Y-91265904D01*
X203690539Y-91173171D01*
X203715590Y-91149404D01*
X203730923Y-91136425D01*
X203732837Y-91135000D01*
X203841335Y-91135000D01*
X204118574Y-91079853D01*
X204379727Y-90971680D01*
X204614759Y-90814637D01*
X204814637Y-90614759D01*
X204971680Y-90379727D01*
X205079853Y-90118574D01*
X205135000Y-89841335D01*
X205135000Y-89558665D01*
X205079853Y-89281426D01*
X204971680Y-89020273D01*
X204814637Y-88785241D01*
X204614759Y-88585363D01*
X204379727Y-88428320D01*
X204118574Y-88320147D01*
X203841335Y-88265000D01*
X203558665Y-88265000D01*
X203281426Y-88320147D01*
X203020273Y-88428320D01*
X202785241Y-88585363D01*
X202585363Y-88785241D01*
X202428320Y-89020273D01*
X202320147Y-89281426D01*
X202269707Y-89535001D01*
X189358862Y-89535001D01*
X189366011Y-89517743D01*
X189425000Y-89221184D01*
X189425000Y-88918816D01*
X189366011Y-88622257D01*
X189250299Y-88342905D01*
X189082312Y-88091495D01*
X188868505Y-87877688D01*
X188617095Y-87709701D01*
X188337743Y-87593989D01*
X188041184Y-87535000D01*
X187738816Y-87535000D01*
X187442257Y-87593989D01*
X187162905Y-87709701D01*
X186911495Y-87877688D01*
X186753124Y-88036059D01*
X186743799Y-88005322D01*
X186682182Y-87802194D01*
X186548932Y-87552901D01*
X186369607Y-87334394D01*
X186314856Y-87289461D01*
X183325394Y-84300000D01*
X187759994Y-84300000D01*
X187779977Y-84502895D01*
X187839160Y-84697993D01*
X187935266Y-84877797D01*
X187993835Y-84949163D01*
X188064605Y-85035396D01*
X188104092Y-85067802D01*
X189296063Y-86259774D01*
X189440226Y-86403937D01*
X189482712Y-86432325D01*
X189522202Y-86464734D01*
X189567256Y-86488816D01*
X189609744Y-86517205D01*
X189656959Y-86536762D01*
X189702006Y-86560840D01*
X189750880Y-86575666D01*
X189798102Y-86595226D01*
X189848232Y-86605197D01*
X189897105Y-86620023D01*
X189947936Y-86625030D01*
X189998061Y-86635000D01*
X190049165Y-86635000D01*
X190100000Y-86640007D01*
X190150835Y-86635000D01*
X190201939Y-86635000D01*
X190252064Y-86625030D01*
X190302895Y-86620023D01*
X190351768Y-86605197D01*
X190401898Y-86595226D01*
X190449122Y-86575665D01*
X190497993Y-86560840D01*
X190543036Y-86536764D01*
X190590256Y-86517205D01*
X190632748Y-86488813D01*
X190677797Y-86464734D01*
X190717284Y-86432328D01*
X190759774Y-86403937D01*
X190795908Y-86367803D01*
X190835396Y-86335396D01*
X190867803Y-86295908D01*
X190903937Y-86259774D01*
X190932328Y-86217284D01*
X190964734Y-86177797D01*
X190988813Y-86132748D01*
X191017205Y-86090256D01*
X191036764Y-86043036D01*
X191060840Y-85997993D01*
X191062445Y-85992702D01*
X236186903Y-85992702D01*
X236258486Y-86236671D01*
X236513996Y-86357571D01*
X236788184Y-86426300D01*
X237070512Y-86440217D01*
X237350130Y-86398787D01*
X237616292Y-86303603D01*
X237741514Y-86236671D01*
X237813097Y-85992702D01*
X237000000Y-85179605D01*
X236186903Y-85992702D01*
X191062445Y-85992702D01*
X191075665Y-85949122D01*
X191095226Y-85901898D01*
X191105197Y-85851768D01*
X191120023Y-85802895D01*
X191125030Y-85752064D01*
X191135000Y-85701939D01*
X191135000Y-85650835D01*
X191140007Y-85600000D01*
X191135000Y-85549165D01*
X191135000Y-85498061D01*
X191125030Y-85447936D01*
X191120023Y-85397105D01*
X191105197Y-85348232D01*
X191095226Y-85298102D01*
X191075666Y-85250880D01*
X191060840Y-85202006D01*
X191036762Y-85156959D01*
X191017205Y-85109744D01*
X190990992Y-85070512D01*
X235559783Y-85070512D01*
X235601213Y-85350130D01*
X235696397Y-85616292D01*
X235763329Y-85741514D01*
X236007298Y-85813097D01*
X236820395Y-85000000D01*
X237179605Y-85000000D01*
X237992702Y-85813097D01*
X238236671Y-85741514D01*
X238357571Y-85486004D01*
X238426300Y-85211816D01*
X238440217Y-84929488D01*
X238398787Y-84649870D01*
X238303603Y-84383708D01*
X238236671Y-84258486D01*
X237992702Y-84186903D01*
X237179605Y-85000000D01*
X236820395Y-85000000D01*
X236007298Y-84186903D01*
X235763329Y-84258486D01*
X235642429Y-84513996D01*
X235573700Y-84788184D01*
X235559783Y-85070512D01*
X190990992Y-85070512D01*
X190988816Y-85067256D01*
X190964734Y-85022202D01*
X190932325Y-84982712D01*
X190903937Y-84940226D01*
X190759774Y-84796063D01*
X189971009Y-84007298D01*
X236186903Y-84007298D01*
X237000000Y-84820395D01*
X237813097Y-84007298D01*
X237741514Y-83763329D01*
X237486004Y-83642429D01*
X237211816Y-83573700D01*
X236929488Y-83559783D01*
X236649870Y-83601213D01*
X236383708Y-83696397D01*
X236258486Y-83763329D01*
X236186903Y-84007298D01*
X189971009Y-84007298D01*
X189835000Y-83871290D01*
X189835000Y-82798061D01*
X189825031Y-82747943D01*
X189820024Y-82697105D01*
X189805196Y-82648223D01*
X189795226Y-82598102D01*
X189775669Y-82550887D01*
X189760841Y-82502007D01*
X189736762Y-82456958D01*
X189717205Y-82409744D01*
X189688814Y-82367254D01*
X189664734Y-82322203D01*
X189632328Y-82282716D01*
X189603937Y-82240226D01*
X189567803Y-82204092D01*
X189535396Y-82164604D01*
X189495908Y-82132197D01*
X189459774Y-82096063D01*
X189417284Y-82067672D01*
X189377797Y-82035266D01*
X189332747Y-82011186D01*
X189290256Y-81982795D01*
X189243039Y-81963237D01*
X189197992Y-81939159D01*
X189149116Y-81924332D01*
X189101898Y-81904774D01*
X189051774Y-81894804D01*
X189002894Y-81879976D01*
X188952058Y-81874969D01*
X188901939Y-81865000D01*
X188850838Y-81865000D01*
X188800000Y-81859993D01*
X188749162Y-81865000D01*
X188698061Y-81865000D01*
X188647943Y-81874969D01*
X188597105Y-81879976D01*
X188548223Y-81894804D01*
X188498102Y-81904774D01*
X188450887Y-81924331D01*
X188402007Y-81939159D01*
X188356958Y-81963238D01*
X188309744Y-81982795D01*
X188267254Y-82011186D01*
X188222203Y-82035266D01*
X188182716Y-82067672D01*
X188140226Y-82096063D01*
X188104092Y-82132197D01*
X188064604Y-82164604D01*
X188032197Y-82204092D01*
X187996063Y-82240226D01*
X187967672Y-82282716D01*
X187935266Y-82322203D01*
X187911186Y-82367253D01*
X187882795Y-82409744D01*
X187863237Y-82456961D01*
X187839159Y-82502008D01*
X187824332Y-82550884D01*
X187804774Y-82598102D01*
X187794804Y-82648226D01*
X187779976Y-82697106D01*
X187774969Y-82747942D01*
X187765000Y-82798061D01*
X187765000Y-82849163D01*
X187765001Y-84249163D01*
X187759994Y-84300000D01*
X183325394Y-84300000D01*
X183304250Y-84278857D01*
X183515131Y-84152385D01*
X183723519Y-83963414D01*
X183891037Y-83737420D01*
X184011246Y-83483087D01*
X184051904Y-83349039D01*
X183929915Y-83127000D01*
X182787000Y-83127000D01*
X182787000Y-83147000D01*
X182533000Y-83147000D01*
X182533000Y-83127000D01*
X182513000Y-83127000D01*
X182513000Y-82873000D01*
X182533000Y-82873000D01*
X182533000Y-81729376D01*
X182787000Y-81729376D01*
X182787000Y-82873000D01*
X183929915Y-82873000D01*
X184051904Y-82650961D01*
X184011246Y-82516913D01*
X183891037Y-82262580D01*
X183723519Y-82036586D01*
X183515131Y-81847615D01*
X183273881Y-81702930D01*
X183009040Y-81608091D01*
X182787000Y-81729376D01*
X182533000Y-81729376D01*
X182310960Y-81608091D01*
X182046119Y-81702930D01*
X181804869Y-81847615D01*
X181596481Y-82036586D01*
X181428963Y-82262580D01*
X181383712Y-82358319D01*
X181060552Y-82035159D01*
X181015606Y-81980392D01*
X180797099Y-81801068D01*
X180547806Y-81667818D01*
X180277307Y-81585764D01*
X180066490Y-81565000D01*
X179995998Y-81558057D01*
X179925506Y-81565000D01*
X172358665Y-81565000D01*
X172289183Y-81578821D01*
X172218691Y-81585764D01*
X172150903Y-81606327D01*
X172081426Y-81620147D01*
X172015986Y-81647253D01*
X171948192Y-81667818D01*
X171885712Y-81701214D01*
X171820273Y-81728320D01*
X171761378Y-81767672D01*
X171698899Y-81801068D01*
X171644137Y-81846010D01*
X171585241Y-81885363D01*
X171535154Y-81935450D01*
X171480392Y-81980392D01*
X171435450Y-82035154D01*
X171385363Y-82085241D01*
X171346010Y-82144137D01*
X171301068Y-82198899D01*
X171267672Y-82261378D01*
X171228320Y-82320273D01*
X171201214Y-82385712D01*
X171167818Y-82448192D01*
X171147253Y-82515986D01*
X171120147Y-82581426D01*
X171106327Y-82650903D01*
X171085764Y-82718691D01*
X171078821Y-82789183D01*
X171065000Y-82858665D01*
X171065000Y-82929508D01*
X171058057Y-83000000D01*
X171065000Y-83070492D01*
X171065000Y-83141335D01*
X171078821Y-83210817D01*
X171085764Y-83281309D01*
X171106327Y-83349097D01*
X171120147Y-83418574D01*
X171147253Y-83484014D01*
X171167818Y-83551808D01*
X171201214Y-83614288D01*
X171228320Y-83679727D01*
X171267672Y-83738622D01*
X171301068Y-83801101D01*
X171346010Y-83855863D01*
X171385363Y-83914759D01*
X171435450Y-83964846D01*
X171480392Y-84019608D01*
X171535154Y-84064550D01*
X171585241Y-84114637D01*
X171644137Y-84153990D01*
X171698899Y-84198932D01*
X171761378Y-84232328D01*
X171820273Y-84271680D01*
X171885712Y-84298786D01*
X171948192Y-84332182D01*
X172015986Y-84352747D01*
X172081426Y-84379853D01*
X172150903Y-84393673D01*
X172218691Y-84414236D01*
X172289183Y-84421179D01*
X172358665Y-84435000D01*
X178528426Y-84435000D01*
X178511186Y-84467253D01*
X178482795Y-84509744D01*
X178463237Y-84556961D01*
X178439159Y-84602008D01*
X178424332Y-84650884D01*
X178404774Y-84698102D01*
X178394804Y-84748226D01*
X178379976Y-84797106D01*
X178374969Y-84847942D01*
X178365000Y-84898061D01*
X178365000Y-85609172D01*
X178359994Y-85660000D01*
X178365000Y-85710828D01*
X178365000Y-85710838D01*
X178379976Y-85862895D01*
X178420959Y-85997993D01*
X178439160Y-86057993D01*
X178535266Y-86237797D01*
X178615364Y-86335396D01*
X178664605Y-86395396D01*
X178704092Y-86427802D01*
X179862311Y-87586022D01*
X179822257Y-87593989D01*
X179542905Y-87709701D01*
X179291495Y-87877688D01*
X179077688Y-88091495D01*
X179000000Y-88207763D01*
X178922312Y-88091495D01*
X178708505Y-87877688D01*
X178457095Y-87709701D01*
X178177743Y-87593989D01*
X177881184Y-87535000D01*
X177578816Y-87535000D01*
X177282257Y-87593989D01*
X177002905Y-87709701D01*
X176751495Y-87877688D01*
X176537688Y-88091495D01*
X176460000Y-88207763D01*
X176382312Y-88091495D01*
X176168505Y-87877688D01*
X175917095Y-87709701D01*
X175637743Y-87593989D01*
X175341184Y-87535000D01*
X175038816Y-87535000D01*
X174742257Y-87593989D01*
X174462905Y-87709701D01*
X174211495Y-87877688D01*
X173997688Y-88091495D01*
X173920000Y-88207763D01*
X173842312Y-88091495D01*
X173628505Y-87877688D01*
X173377095Y-87709701D01*
X173097743Y-87593989D01*
X172801184Y-87535000D01*
X172498816Y-87535000D01*
X172202257Y-87593989D01*
X171922905Y-87709701D01*
X171671495Y-87877688D01*
X171457688Y-88091495D01*
X171380000Y-88207763D01*
X171302312Y-88091495D01*
X171088505Y-87877688D01*
X170837095Y-87709701D01*
X170738086Y-87668690D01*
X167935000Y-84865605D01*
X167935000Y-80975000D01*
X176695817Y-80975000D01*
X176766309Y-80981943D01*
X176836801Y-80975000D01*
X188234119Y-80975000D01*
X188304611Y-80981943D01*
X188375103Y-80975000D01*
X199695817Y-80975000D01*
X199766309Y-80981943D01*
X199836801Y-80975000D01*
X211244776Y-80975000D01*
X211315268Y-80981943D01*
X211385760Y-80975000D01*
X226564895Y-80975000D01*
X226658889Y-81003513D01*
X226877050Y-81025000D01*
X228322950Y-81025000D01*
X228541111Y-81003513D01*
X228821034Y-80918599D01*
X229079014Y-80780706D01*
X229305134Y-80595134D01*
X229490706Y-80369014D01*
X229628599Y-80111034D01*
X229713513Y-79831111D01*
X229742185Y-79540000D01*
X229713513Y-79248889D01*
X229628599Y-78968966D01*
X229490706Y-78710986D01*
X229305134Y-78484866D01*
X229275313Y-78460393D01*
X229344180Y-78439502D01*
X229454494Y-78380537D01*
X229551185Y-78301185D01*
X229630537Y-78204494D01*
X229689502Y-78094180D01*
X229725812Y-77974482D01*
X229738072Y-77850000D01*
X229735000Y-77285750D01*
X229576250Y-77127000D01*
X227727000Y-77127000D01*
X227727000Y-77147000D01*
X227473000Y-77147000D01*
X227473000Y-77127000D01*
X225623750Y-77127000D01*
X225465000Y-77285750D01*
X225461928Y-77850000D01*
X225474188Y-77974482D01*
X225510498Y-78094180D01*
X225516282Y-78105000D01*
X221913798Y-78105000D01*
X221963513Y-77941111D01*
X221985000Y-77722950D01*
X221985000Y-76277050D01*
X221972487Y-76150000D01*
X225461928Y-76150000D01*
X225465000Y-76714250D01*
X225623750Y-76873000D01*
X227473000Y-76873000D01*
X227473000Y-75673750D01*
X227727000Y-75673750D01*
X227727000Y-76873000D01*
X229576250Y-76873000D01*
X229672200Y-76777050D01*
X233475000Y-76777050D01*
X233475000Y-78222949D01*
X233496487Y-78441110D01*
X233581401Y-78721033D01*
X233719294Y-78979013D01*
X233904866Y-79205134D01*
X234130986Y-79390706D01*
X234388966Y-79528599D01*
X234668889Y-79613513D01*
X234960000Y-79642185D01*
X235251110Y-79613513D01*
X235531033Y-79528599D01*
X235789013Y-79390706D01*
X236015134Y-79205134D01*
X236134482Y-79059708D01*
X236191088Y-79165611D01*
X236323295Y-79326705D01*
X236484389Y-79458912D01*
X236668180Y-79557150D01*
X236867605Y-79617645D01*
X237075000Y-79638072D01*
X237925000Y-79638072D01*
X238132395Y-79617645D01*
X238331820Y-79557150D01*
X238515611Y-79458912D01*
X238676705Y-79326705D01*
X238808912Y-79165611D01*
X238907150Y-78981820D01*
X238967645Y-78782395D01*
X238988072Y-78575000D01*
X238988072Y-76425000D01*
X238967645Y-76217605D01*
X238907150Y-76018180D01*
X238808912Y-75834389D01*
X238676705Y-75673295D01*
X238515611Y-75541088D01*
X238331820Y-75442850D01*
X238132395Y-75382355D01*
X237925000Y-75361928D01*
X237075000Y-75361928D01*
X236867605Y-75382355D01*
X236668180Y-75442850D01*
X236484389Y-75541088D01*
X236323295Y-75673295D01*
X236191088Y-75834389D01*
X236134482Y-75940292D01*
X236015134Y-75794866D01*
X235789014Y-75609294D01*
X235531034Y-75471401D01*
X235251111Y-75386487D01*
X234960000Y-75357815D01*
X234668890Y-75386487D01*
X234388967Y-75471401D01*
X234130987Y-75609294D01*
X233904867Y-75794866D01*
X233719295Y-76020986D01*
X233581401Y-76278966D01*
X233496487Y-76558889D01*
X233475000Y-76777050D01*
X229672200Y-76777050D01*
X229735000Y-76714250D01*
X229738072Y-76150000D01*
X229725812Y-76025518D01*
X229689502Y-75905820D01*
X229630537Y-75795506D01*
X229551185Y-75698815D01*
X229454494Y-75619463D01*
X229344180Y-75560498D01*
X229224482Y-75524188D01*
X229100000Y-75511928D01*
X227885750Y-75515000D01*
X227727000Y-75673750D01*
X227473000Y-75673750D01*
X227314250Y-75515000D01*
X226100000Y-75511928D01*
X225975518Y-75524188D01*
X225855820Y-75560498D01*
X225745506Y-75619463D01*
X225648815Y-75698815D01*
X225569463Y-75795506D01*
X225510498Y-75905820D01*
X225474188Y-76025518D01*
X225461928Y-76150000D01*
X221972487Y-76150000D01*
X221963513Y-76058889D01*
X221878599Y-75778966D01*
X221740706Y-75520986D01*
X221555134Y-75294866D01*
X221329013Y-75109294D01*
X221071033Y-74971401D01*
X220791110Y-74886487D01*
X220500000Y-74857815D01*
X220208889Y-74886487D01*
X219928966Y-74971401D01*
X219670986Y-75109294D01*
X219444866Y-75294866D01*
X219259294Y-75520987D01*
X219230000Y-75575792D01*
X219200706Y-75520986D01*
X219015134Y-75294866D01*
X218789013Y-75109294D01*
X218531033Y-74971401D01*
X218251110Y-74886487D01*
X217960000Y-74857815D01*
X217668889Y-74886487D01*
X217388966Y-74971401D01*
X217130986Y-75109294D01*
X216904866Y-75294866D01*
X216719294Y-75520987D01*
X216690000Y-75575792D01*
X216660706Y-75520986D01*
X216475134Y-75294866D01*
X216249013Y-75109294D01*
X215991033Y-74971401D01*
X215711110Y-74886487D01*
X215420000Y-74857815D01*
X215128889Y-74886487D01*
X214848966Y-74971401D01*
X214590986Y-75109294D01*
X214364866Y-75294866D01*
X214179294Y-75520987D01*
X214150000Y-75575792D01*
X214120706Y-75520986D01*
X213935134Y-75294866D01*
X213709013Y-75109294D01*
X213451033Y-74971401D01*
X213171110Y-74886487D01*
X212880000Y-74857815D01*
X212588889Y-74886487D01*
X212308966Y-74971401D01*
X212050986Y-75109294D01*
X211824866Y-75294866D01*
X211800393Y-75324687D01*
X211779502Y-75255820D01*
X211720537Y-75145506D01*
X211641185Y-75048815D01*
X211544494Y-74969463D01*
X211434180Y-74910498D01*
X211314482Y-74874188D01*
X211190000Y-74861928D01*
X210625750Y-74865000D01*
X210467000Y-75023750D01*
X210467000Y-76873000D01*
X210487000Y-76873000D01*
X210487000Y-77127000D01*
X210467000Y-77127000D01*
X210467000Y-77147000D01*
X210213000Y-77147000D01*
X210213000Y-77127000D01*
X209013750Y-77127000D01*
X208855000Y-77285750D01*
X208852927Y-78105000D01*
X202993798Y-78105000D01*
X203043513Y-77941111D01*
X203065000Y-77722950D01*
X203065000Y-76277050D01*
X203043513Y-76058889D01*
X202958599Y-75778966D01*
X202820706Y-75520986D01*
X202803484Y-75500000D01*
X208851928Y-75500000D01*
X208855000Y-76714250D01*
X209013750Y-76873000D01*
X210213000Y-76873000D01*
X210213000Y-75023750D01*
X210054250Y-74865000D01*
X209490000Y-74861928D01*
X209365518Y-74874188D01*
X209245820Y-74910498D01*
X209135506Y-74969463D01*
X209038815Y-75048815D01*
X208959463Y-75145506D01*
X208900498Y-75255820D01*
X208864188Y-75375518D01*
X208851928Y-75500000D01*
X202803484Y-75500000D01*
X202635134Y-75294866D01*
X202409013Y-75109294D01*
X202151033Y-74971401D01*
X201871110Y-74886487D01*
X201580000Y-74857815D01*
X201288889Y-74886487D01*
X201008966Y-74971401D01*
X200750986Y-75109294D01*
X200524866Y-75294866D01*
X200339294Y-75520987D01*
X200310000Y-75575792D01*
X200280706Y-75520986D01*
X200095134Y-75294866D01*
X199869013Y-75109294D01*
X199611033Y-74971401D01*
X199331110Y-74886487D01*
X199040000Y-74857815D01*
X198748889Y-74886487D01*
X198468966Y-74971401D01*
X198210986Y-75109294D01*
X197984866Y-75294866D01*
X197960393Y-75324687D01*
X197939502Y-75255820D01*
X197880537Y-75145506D01*
X197801185Y-75048815D01*
X197704494Y-74969463D01*
X197594180Y-74910498D01*
X197474482Y-74874188D01*
X197350000Y-74861928D01*
X196785750Y-74865000D01*
X196627000Y-75023750D01*
X196627000Y-76873000D01*
X196647000Y-76873000D01*
X196647000Y-77127000D01*
X196627000Y-77127000D01*
X196627000Y-77147000D01*
X196373000Y-77147000D01*
X196373000Y-77127000D01*
X195173750Y-77127000D01*
X195015000Y-77285750D01*
X195012927Y-78105000D01*
X191532100Y-78105000D01*
X191581815Y-77941111D01*
X191603302Y-77722950D01*
X191603302Y-76277050D01*
X191581815Y-76058889D01*
X191496901Y-75778966D01*
X191359008Y-75520986D01*
X191341786Y-75500000D01*
X195011928Y-75500000D01*
X195015000Y-76714250D01*
X195173750Y-76873000D01*
X196373000Y-76873000D01*
X196373000Y-75023750D01*
X196214250Y-74865000D01*
X195650000Y-74861928D01*
X195525518Y-74874188D01*
X195405820Y-74910498D01*
X195295506Y-74969463D01*
X195198815Y-75048815D01*
X195119463Y-75145506D01*
X195060498Y-75255820D01*
X195024188Y-75375518D01*
X195011928Y-75500000D01*
X191341786Y-75500000D01*
X191173436Y-75294866D01*
X190947315Y-75109294D01*
X190689335Y-74971401D01*
X190409412Y-74886487D01*
X190118302Y-74857815D01*
X189827191Y-74886487D01*
X189547268Y-74971401D01*
X189289288Y-75109294D01*
X189063168Y-75294866D01*
X188877596Y-75520987D01*
X188848302Y-75575792D01*
X188819008Y-75520986D01*
X188633436Y-75294866D01*
X188407315Y-75109294D01*
X188149335Y-74971401D01*
X187869412Y-74886487D01*
X187578302Y-74857815D01*
X187287191Y-74886487D01*
X187007268Y-74971401D01*
X186749288Y-75109294D01*
X186523168Y-75294866D01*
X186498695Y-75324687D01*
X186477804Y-75255820D01*
X186418839Y-75145506D01*
X186339487Y-75048815D01*
X186242796Y-74969463D01*
X186132482Y-74910498D01*
X186012784Y-74874188D01*
X185888302Y-74861928D01*
X185324052Y-74865000D01*
X185165302Y-75023750D01*
X185165302Y-76873000D01*
X185185302Y-76873000D01*
X185185302Y-77127000D01*
X185165302Y-77127000D01*
X185165302Y-77147000D01*
X184911302Y-77147000D01*
X184911302Y-77127000D01*
X183712052Y-77127000D01*
X183553302Y-77285750D01*
X183551229Y-78105000D01*
X179993798Y-78105000D01*
X180043513Y-77941111D01*
X180065000Y-77722950D01*
X180065000Y-76277050D01*
X180043513Y-76058889D01*
X179958599Y-75778966D01*
X179820706Y-75520986D01*
X179803484Y-75500000D01*
X183550230Y-75500000D01*
X183553302Y-76714250D01*
X183712052Y-76873000D01*
X184911302Y-76873000D01*
X184911302Y-75023750D01*
X184752552Y-74865000D01*
X184188302Y-74861928D01*
X184063820Y-74874188D01*
X183944122Y-74910498D01*
X183833808Y-74969463D01*
X183737117Y-75048815D01*
X183657765Y-75145506D01*
X183598800Y-75255820D01*
X183562490Y-75375518D01*
X183550230Y-75500000D01*
X179803484Y-75500000D01*
X179635134Y-75294866D01*
X179409013Y-75109294D01*
X179151033Y-74971401D01*
X178871110Y-74886487D01*
X178580000Y-74857815D01*
X178288889Y-74886487D01*
X178008966Y-74971401D01*
X177750986Y-75109294D01*
X177524866Y-75294866D01*
X177339294Y-75520987D01*
X177310000Y-75575792D01*
X177280706Y-75520986D01*
X177095134Y-75294866D01*
X176869013Y-75109294D01*
X176611033Y-74971401D01*
X176331110Y-74886487D01*
X176040000Y-74857815D01*
X175748889Y-74886487D01*
X175468966Y-74971401D01*
X175210986Y-75109294D01*
X174984866Y-75294866D01*
X174960393Y-75324687D01*
X174939502Y-75255820D01*
X174880537Y-75145506D01*
X174801185Y-75048815D01*
X174704494Y-74969463D01*
X174594180Y-74910498D01*
X174474482Y-74874188D01*
X174350000Y-74861928D01*
X173785750Y-74865000D01*
X173627000Y-75023750D01*
X173627000Y-76873000D01*
X173647000Y-76873000D01*
X173647000Y-77127000D01*
X173627000Y-77127000D01*
X173627000Y-77147000D01*
X173373000Y-77147000D01*
X173373000Y-77127000D01*
X172173750Y-77127000D01*
X172015000Y-77285750D01*
X172012927Y-78105000D01*
X168385552Y-78105000D01*
X168458912Y-78015611D01*
X168557150Y-77831820D01*
X168617645Y-77632395D01*
X168638072Y-77425000D01*
X168638072Y-76575000D01*
X168617645Y-76367605D01*
X168557150Y-76168180D01*
X168458912Y-75984389D01*
X168326705Y-75823295D01*
X168165611Y-75691088D01*
X167981820Y-75592850D01*
X167782395Y-75532355D01*
X167575000Y-75511928D01*
X165425000Y-75511928D01*
X165217605Y-75532355D01*
X165018180Y-75592850D01*
X164834389Y-75691088D01*
X164673295Y-75823295D01*
X164541088Y-75984389D01*
X164442850Y-76168180D01*
X164382355Y-76367605D01*
X164361928Y-76575000D01*
X164361928Y-77425000D01*
X164382355Y-77632395D01*
X164442850Y-77831820D01*
X164541088Y-78015611D01*
X164673295Y-78176705D01*
X164834389Y-78308912D01*
X164940292Y-78365518D01*
X164794866Y-78484866D01*
X164609294Y-78710986D01*
X164471401Y-78968966D01*
X164386487Y-79248889D01*
X164357815Y-79540000D01*
X160660000Y-79540000D01*
X160660000Y-75500000D01*
X172011928Y-75500000D01*
X172015000Y-76714250D01*
X172173750Y-76873000D01*
X173373000Y-76873000D01*
X173373000Y-75023750D01*
X173214250Y-74865000D01*
X172650000Y-74861928D01*
X172525518Y-74874188D01*
X172405820Y-74910498D01*
X172295506Y-74969463D01*
X172198815Y-75048815D01*
X172119463Y-75145506D01*
X172060498Y-75255820D01*
X172024188Y-75375518D01*
X172011928Y-75500000D01*
X160660000Y-75500000D01*
X160660000Y-75027089D01*
X160733902Y-74128203D01*
X160947001Y-73279818D01*
X161295803Y-72477629D01*
X161770938Y-71743182D01*
X162359646Y-71096202D01*
X163046125Y-70554054D01*
X163811928Y-70131308D01*
X164636491Y-69839316D01*
X165509076Y-69683884D01*
X166015547Y-69660000D01*
X237972911Y-69660000D01*
X238871797Y-69733902D01*
X238871797Y-69733902D01*
G37*
X238871797Y-69733902D02*
X239720182Y-69947001D01*
X240522371Y-70295803D01*
X241256818Y-70770938D01*
X241903798Y-71359646D01*
X242445946Y-72046125D01*
X242868692Y-72811928D01*
X243160684Y-73636491D01*
X243316116Y-74509076D01*
X243340001Y-75015568D01*
X243340001Y-84473967D01*
X243332182Y-84448192D01*
X243298787Y-84385715D01*
X243271680Y-84320273D01*
X243232322Y-84261370D01*
X243198931Y-84198900D01*
X243153998Y-84144149D01*
X243114637Y-84085241D01*
X243064540Y-84035144D01*
X243019607Y-83980393D01*
X242964856Y-83935460D01*
X242914759Y-83885363D01*
X242855851Y-83846002D01*
X242801100Y-83801069D01*
X242738630Y-83767678D01*
X242679727Y-83728320D01*
X242614285Y-83701213D01*
X242551808Y-83667818D01*
X242484012Y-83647252D01*
X242418574Y-83620147D01*
X242349104Y-83606328D01*
X242281309Y-83585763D01*
X242210810Y-83578820D01*
X242141335Y-83565000D01*
X242070495Y-83565000D01*
X242000000Y-83558057D01*
X241929505Y-83565000D01*
X241858665Y-83565000D01*
X241789190Y-83578820D01*
X241718691Y-83585763D01*
X241650896Y-83606328D01*
X241581426Y-83620147D01*
X241515988Y-83647252D01*
X241448192Y-83667818D01*
X241385714Y-83701214D01*
X241320273Y-83728320D01*
X241261373Y-83767676D01*
X241198899Y-83801069D01*
X241144144Y-83846005D01*
X241085241Y-83885363D01*
X240035154Y-84935450D01*
X239980393Y-84980392D01*
X239801069Y-85198899D01*
X239767337Y-85262007D01*
X239667818Y-85448193D01*
X239585764Y-85718692D01*
X239558057Y-86000000D01*
X239565001Y-86070502D01*
X239565000Y-90639218D01*
X239545120Y-90609465D01*
X239350535Y-90414880D01*
X239121727Y-90261995D01*
X238867490Y-90156686D01*
X238597592Y-90103000D01*
X238529868Y-90103000D01*
X238514867Y-90089948D01*
X238486512Y-90062801D01*
X236927807Y-88504097D01*
X236895396Y-88464604D01*
X236737797Y-88335266D01*
X236557993Y-88239159D01*
X236362895Y-88179976D01*
X236210838Y-88165000D01*
X236210828Y-88165000D01*
X236160000Y-88159994D01*
X236109172Y-88165000D01*
X215542205Y-88165000D01*
X215491370Y-88159993D01*
X215440535Y-88165000D01*
X215440532Y-88165000D01*
X215288475Y-88179976D01*
X215093377Y-88239159D01*
X214913573Y-88335266D01*
X214755974Y-88464604D01*
X214723563Y-88504097D01*
X214697072Y-88530588D01*
X214661101Y-88501068D01*
X214411808Y-88367818D01*
X214141309Y-88285764D01*
X213930492Y-88265000D01*
X213789508Y-88265000D01*
X213578691Y-88285764D01*
X213308192Y-88367818D01*
X213058899Y-88501068D01*
X212840392Y-88680392D01*
X212661068Y-88898899D01*
X212527818Y-89148192D01*
X212445764Y-89418691D01*
X212418057Y-89700000D01*
X212445764Y-89981309D01*
X212527818Y-90251808D01*
X212661068Y-90501101D01*
X212840392Y-90719608D01*
X213058899Y-90898932D01*
X213308192Y-91032182D01*
X213578691Y-91114236D01*
X213789508Y-91135000D01*
X213930492Y-91135000D01*
X214141309Y-91114236D01*
X214411808Y-91032182D01*
X214661101Y-90898932D01*
X214858154Y-90737214D01*
X214873880Y-90735906D01*
X214908333Y-90735000D01*
X214940542Y-90735000D01*
X214991370Y-90740006D01*
X215042198Y-90735000D01*
X215042208Y-90735000D01*
X215194265Y-90720024D01*
X215389363Y-90660841D01*
X215569167Y-90564734D01*
X215726766Y-90435396D01*
X215759177Y-90395903D01*
X215920080Y-90235000D01*
X222623444Y-90235000D01*
X222558273Y-90261995D01*
X222329465Y-90414880D01*
X222134880Y-90609465D01*
X221981995Y-90838273D01*
X221876686Y-91092510D01*
X221823000Y-91362408D01*
X221823000Y-91637592D01*
X221860676Y-91827001D01*
X215930196Y-91827001D01*
X215879368Y-91821995D01*
X215828540Y-91827001D01*
X215828531Y-91827001D01*
X215676474Y-91841977D01*
X215481376Y-91901160D01*
X215427463Y-91929977D01*
X215301571Y-91997267D01*
X215192753Y-92086572D01*
X215143973Y-92126605D01*
X215111566Y-92166093D01*
X214697071Y-92580588D01*
X214661101Y-92551068D01*
X214411808Y-92417818D01*
X214141309Y-92335764D01*
X213930492Y-92315000D01*
X213789508Y-92315000D01*
X213578691Y-92335764D01*
X213308192Y-92417818D01*
X213058899Y-92551068D01*
X212840392Y-92730392D01*
X212661068Y-92948899D01*
X212527818Y-93198192D01*
X212445764Y-93468691D01*
X212418057Y-93750000D01*
X212445764Y-94031309D01*
X212527818Y-94301808D01*
X212661068Y-94551101D01*
X212840392Y-94769608D01*
X213058899Y-94948932D01*
X213308192Y-95082182D01*
X213578691Y-95164236D01*
X213789508Y-95185000D01*
X213930492Y-95185000D01*
X214141309Y-95164236D01*
X214411808Y-95082182D01*
X214661101Y-94948932D01*
X214858154Y-94787214D01*
X214873880Y-94785906D01*
X214908333Y-94785000D01*
X214940542Y-94785000D01*
X214991370Y-94790006D01*
X215042198Y-94785000D01*
X215042208Y-94785000D01*
X215194265Y-94770024D01*
X215389363Y-94710841D01*
X215569167Y-94614734D01*
X215726766Y-94485396D01*
X215759177Y-94445903D01*
X216308080Y-93897001D01*
X232093603Y-93897001D01*
X206965605Y-119025000D01*
X203510495Y-119025000D01*
X203440000Y-119018057D01*
X203158692Y-119045763D01*
X203095276Y-119065000D01*
X197750492Y-119065000D01*
X197680000Y-119058057D01*
X197609508Y-119065000D01*
X187390011Y-119065000D01*
X187282395Y-119032355D01*
X187075000Y-119011928D01*
X186541323Y-119011928D01*
X186143845Y-118614450D01*
X186098898Y-118559682D01*
X185880391Y-118380358D01*
X185631098Y-118247108D01*
X185360599Y-118165054D01*
X185149782Y-118144290D01*
X185079290Y-118137347D01*
X185008798Y-118144290D01*
X177080894Y-118144290D01*
X172382788Y-113446185D01*
X172414642Y-113454365D01*
X172716553Y-113470991D01*
X173015907Y-113428397D01*
X173301199Y-113328222D01*
X173450792Y-113248261D01*
X173534475Y-112994080D01*
X172650000Y-112109605D01*
X172635858Y-112123748D01*
X172456253Y-111944143D01*
X172470395Y-111930000D01*
X172829605Y-111930000D01*
X173714080Y-112814475D01*
X173895049Y-112754895D01*
X173997688Y-112908505D01*
X174211495Y-113122312D01*
X174462905Y-113290299D01*
X174742257Y-113406011D01*
X175038816Y-113465000D01*
X175341184Y-113465000D01*
X175637743Y-113406011D01*
X175917095Y-113290299D01*
X176168505Y-113122312D01*
X176382312Y-112908505D01*
X176460000Y-112792237D01*
X176537688Y-112908505D01*
X176751495Y-113122312D01*
X177002905Y-113290299D01*
X177282257Y-113406011D01*
X177578816Y-113465000D01*
X177881184Y-113465000D01*
X178177743Y-113406011D01*
X178457095Y-113290299D01*
X178708505Y-113122312D01*
X178922312Y-112908505D01*
X179000000Y-112792237D01*
X179077688Y-112908505D01*
X179291495Y-113122312D01*
X179542905Y-113290299D01*
X179822257Y-113406011D01*
X180118816Y-113465000D01*
X180421184Y-113465000D01*
X180717743Y-113406011D01*
X180997095Y-113290299D01*
X181248505Y-113122312D01*
X181462312Y-112908505D01*
X181540000Y-112792237D01*
X181617688Y-112908505D01*
X181831495Y-113122312D01*
X182082905Y-113290299D01*
X182362257Y-113406011D01*
X182658816Y-113465000D01*
X182961184Y-113465000D01*
X183257743Y-113406011D01*
X183537095Y-113290299D01*
X183788505Y-113122312D01*
X184002312Y-112908505D01*
X184080000Y-112792237D01*
X184157688Y-112908505D01*
X184371495Y-113122312D01*
X184622905Y-113290299D01*
X184902257Y-113406011D01*
X185198816Y-113465000D01*
X185501184Y-113465000D01*
X185797743Y-113406011D01*
X186077095Y-113290299D01*
X186328505Y-113122312D01*
X186542312Y-112908505D01*
X186620000Y-112792237D01*
X186697688Y-112908505D01*
X186911495Y-113122312D01*
X187162905Y-113290299D01*
X187442257Y-113406011D01*
X187738816Y-113465000D01*
X188041184Y-113465000D01*
X188337743Y-113406011D01*
X188617095Y-113290299D01*
X188868505Y-113122312D01*
X189082312Y-112908505D01*
X189250299Y-112657095D01*
X189366011Y-112377743D01*
X189425000Y-112081184D01*
X189425000Y-111778816D01*
X189366011Y-111482257D01*
X189250299Y-111202905D01*
X189082312Y-110951495D01*
X188868505Y-110737688D01*
X188617095Y-110569701D01*
X188337743Y-110453989D01*
X188041184Y-110395000D01*
X187738816Y-110395000D01*
X187442257Y-110453989D01*
X187162905Y-110569701D01*
X186911495Y-110737688D01*
X186697688Y-110951495D01*
X186620000Y-111067763D01*
X186542312Y-110951495D01*
X186328505Y-110737688D01*
X186077095Y-110569701D01*
X185797743Y-110453989D01*
X185501184Y-110395000D01*
X185198816Y-110395000D01*
X184902257Y-110453989D01*
X184622905Y-110569701D01*
X184371495Y-110737688D01*
X184157688Y-110951495D01*
X184080000Y-111067763D01*
X184002312Y-110951495D01*
X183788505Y-110737688D01*
X183537095Y-110569701D01*
X183257743Y-110453989D01*
X182961184Y-110395000D01*
X182658816Y-110395000D01*
X182362257Y-110453989D01*
X182082905Y-110569701D01*
X181831495Y-110737688D01*
X181617688Y-110951495D01*
X181540000Y-111067763D01*
X181462312Y-110951495D01*
X181248505Y-110737688D01*
X180997095Y-110569701D01*
X180717743Y-110453989D01*
X180421184Y-110395000D01*
X180118816Y-110395000D01*
X179822257Y-110453989D01*
X179542905Y-110569701D01*
X179291495Y-110737688D01*
X179077688Y-110951495D01*
X179000000Y-111067763D01*
X178922312Y-110951495D01*
X178708505Y-110737688D01*
X178457095Y-110569701D01*
X178177743Y-110453989D01*
X177881184Y-110395000D01*
X177578816Y-110395000D01*
X177282257Y-110453989D01*
X177002905Y-110569701D01*
X176751495Y-110737688D01*
X176537688Y-110951495D01*
X176460000Y-111067763D01*
X176382312Y-110951495D01*
X176168505Y-110737688D01*
X175917095Y-110569701D01*
X175637743Y-110453989D01*
X175341184Y-110395000D01*
X175038816Y-110395000D01*
X174742257Y-110453989D01*
X174462905Y-110569701D01*
X174211495Y-110737688D01*
X173997688Y-110951495D01*
X173895049Y-111105105D01*
X173714080Y-111045525D01*
X172829605Y-111930000D01*
X172470395Y-111930000D01*
X171585920Y-111045525D01*
X171404951Y-111105105D01*
X171302312Y-110951495D01*
X171216737Y-110865920D01*
X171765525Y-110865920D01*
X172650000Y-111750395D01*
X173534475Y-110865920D01*
X173450792Y-110611739D01*
X173178225Y-110480842D01*
X172885358Y-110405635D01*
X172583447Y-110389009D01*
X172284093Y-110431603D01*
X171998801Y-110531778D01*
X171849208Y-110611739D01*
X171765525Y-110865920D01*
X171216737Y-110865920D01*
X171088505Y-110737688D01*
X170837095Y-110569701D01*
X170557743Y-110453989D01*
X170261184Y-110395000D01*
X169958816Y-110395000D01*
X169662257Y-110453989D01*
X169382905Y-110569701D01*
X169131495Y-110737688D01*
X168917688Y-110951495D01*
X168749701Y-111202905D01*
X168633989Y-111482257D01*
X168575000Y-111778816D01*
X168575000Y-112081184D01*
X168633989Y-112377743D01*
X168675000Y-112476752D01*
X168675000Y-113132300D01*
X168668057Y-113202792D01*
X168675000Y-113273283D01*
X168695764Y-113484100D01*
X168777818Y-113754599D01*
X168911068Y-114003892D01*
X169090392Y-114222399D01*
X169145155Y-114267342D01*
X174842812Y-119965000D01*
X174270495Y-119965000D01*
X174200000Y-119958057D01*
X173918692Y-119985763D01*
X173730247Y-120042927D01*
X173648192Y-120067818D01*
X173398899Y-120201068D01*
X173180392Y-120380392D01*
X173135445Y-120435160D01*
X173035155Y-120535450D01*
X172980393Y-120580392D01*
X172801069Y-120798899D01*
X172733667Y-120925000D01*
X172667818Y-121048193D01*
X172585764Y-121318692D01*
X172558057Y-121600000D01*
X172565001Y-121670502D01*
X172565000Y-123168805D01*
X172561928Y-123200000D01*
X172561928Y-123408676D01*
X171865605Y-124105000D01*
X169083718Y-124105000D01*
X169089502Y-124094180D01*
X169125812Y-123974482D01*
X169138072Y-123850000D01*
X169135000Y-123285750D01*
X168976250Y-123127000D01*
X167127000Y-123127000D01*
X167127000Y-123147000D01*
X166873000Y-123147000D01*
X166873000Y-123127000D01*
X165023750Y-123127000D01*
X164865000Y-123285750D01*
X164861928Y-123850000D01*
X164874188Y-123974482D01*
X164910498Y-124094180D01*
X164969463Y-124204494D01*
X165048815Y-124301185D01*
X165145506Y-124380537D01*
X165255820Y-124439502D01*
X165324687Y-124460393D01*
X165294866Y-124484866D01*
X165109294Y-124710986D01*
X164971401Y-124968966D01*
X164886487Y-125248889D01*
X164857815Y-125540000D01*
X164886487Y-125831111D01*
X164971401Y-126111034D01*
X165109294Y-126369014D01*
X165294866Y-126595134D01*
X165520986Y-126780706D01*
X165778966Y-126918599D01*
X166058889Y-127003513D01*
X166277050Y-127025000D01*
X167722950Y-127025000D01*
X167941111Y-127003513D01*
X168035105Y-126975000D01*
X172389508Y-126975000D01*
X172460000Y-126981943D01*
X172530492Y-126975000D01*
X172741309Y-126954236D01*
X173011808Y-126872182D01*
X173261101Y-126738932D01*
X173479608Y-126559608D01*
X173524554Y-126504841D01*
X174591324Y-125438072D01*
X174800000Y-125438072D01*
X174924482Y-125425812D01*
X175044180Y-125389502D01*
X175154494Y-125330537D01*
X175251185Y-125251185D01*
X175330537Y-125154494D01*
X175389502Y-125044180D01*
X175405117Y-124992702D01*
X178186903Y-124992702D01*
X178258486Y-125236671D01*
X178513996Y-125357571D01*
X178788184Y-125426300D01*
X179070512Y-125440217D01*
X179350130Y-125398787D01*
X179616292Y-125303603D01*
X179741514Y-125236671D01*
X179813097Y-124992702D01*
X179000000Y-124179605D01*
X178186903Y-124992702D01*
X175405117Y-124992702D01*
X175425812Y-124924482D01*
X175438072Y-124800000D01*
X175438072Y-124070512D01*
X177559783Y-124070512D01*
X177601213Y-124350130D01*
X177696397Y-124616292D01*
X177763329Y-124741514D01*
X178007298Y-124813097D01*
X178820395Y-124000000D01*
X179179605Y-124000000D01*
X179992702Y-124813097D01*
X180236671Y-124741514D01*
X180357571Y-124486004D01*
X180426300Y-124211816D01*
X180440217Y-123929488D01*
X180398787Y-123649870D01*
X180303603Y-123383708D01*
X180236671Y-123258486D01*
X179992702Y-123186903D01*
X179179605Y-124000000D01*
X178820395Y-124000000D01*
X178007298Y-123186903D01*
X177763329Y-123258486D01*
X177642429Y-123513996D01*
X177573700Y-123788184D01*
X177559783Y-124070512D01*
X175438072Y-124070512D01*
X175438072Y-124039302D01*
X175441943Y-124000000D01*
X175438072Y-123960698D01*
X175438072Y-123200000D01*
X175435000Y-123168808D01*
X175435000Y-122835000D01*
X178237457Y-122835000D01*
X178186903Y-123007298D01*
X179000000Y-123820395D01*
X179813097Y-123007298D01*
X179762543Y-122835000D01*
X180665604Y-122835000D01*
X181835454Y-124004851D01*
X181880392Y-124059608D01*
X182098899Y-124238932D01*
X182348192Y-124372182D01*
X182544366Y-124431690D01*
X182618690Y-124454236D01*
X182899999Y-124481943D01*
X182970491Y-124475000D01*
X184355628Y-124475000D01*
X184294866Y-124524866D01*
X184109294Y-124750986D01*
X183971401Y-125008966D01*
X183886487Y-125288889D01*
X183857815Y-125580000D01*
X183886487Y-125871111D01*
X183971401Y-126151034D01*
X184109294Y-126409014D01*
X184294866Y-126635134D01*
X184520986Y-126820706D01*
X184778966Y-126958599D01*
X185058889Y-127043513D01*
X185277050Y-127065000D01*
X186722950Y-127065000D01*
X186941111Y-127043513D01*
X187084553Y-127000000D01*
X193011928Y-127000000D01*
X193024188Y-127124482D01*
X193060498Y-127244180D01*
X193119463Y-127354494D01*
X193198815Y-127451185D01*
X193295506Y-127530537D01*
X193405820Y-127589502D01*
X193525518Y-127625812D01*
X193650000Y-127638072D01*
X194214250Y-127635000D01*
X194373000Y-127476250D01*
X194373000Y-125627000D01*
X193173750Y-125627000D01*
X193015000Y-125785750D01*
X193011928Y-127000000D01*
X187084553Y-127000000D01*
X187221034Y-126958599D01*
X187479014Y-126820706D01*
X187705134Y-126635134D01*
X187890706Y-126409014D01*
X188028599Y-126151034D01*
X188113513Y-125871111D01*
X188142185Y-125580000D01*
X188113513Y-125288889D01*
X188028599Y-125008966D01*
X187890706Y-124750986D01*
X187705134Y-124524866D01*
X187479014Y-124339294D01*
X187424209Y-124310000D01*
X187479014Y-124280706D01*
X187705134Y-124095134D01*
X187783208Y-124000000D01*
X193011928Y-124000000D01*
X193015000Y-125214250D01*
X193173750Y-125373000D01*
X194373000Y-125373000D01*
X194373000Y-123523750D01*
X194214250Y-123365000D01*
X193650000Y-123361928D01*
X193525518Y-123374188D01*
X193405820Y-123410498D01*
X193295506Y-123469463D01*
X193198815Y-123548815D01*
X193119463Y-123645506D01*
X193060498Y-123755820D01*
X193024188Y-123875518D01*
X193011928Y-124000000D01*
X187783208Y-124000000D01*
X187890706Y-123869014D01*
X188028599Y-123611034D01*
X188113513Y-123331111D01*
X188142185Y-123040000D01*
X188113513Y-122748889D01*
X188028599Y-122468966D01*
X187890706Y-122210986D01*
X187705134Y-121984866D01*
X187644372Y-121935000D01*
X197085605Y-121935000D01*
X198145000Y-122994396D01*
X198145000Y-123855628D01*
X198095134Y-123794866D01*
X197869013Y-123609294D01*
X197611033Y-123471401D01*
X197331110Y-123386487D01*
X197040000Y-123357815D01*
X196748889Y-123386487D01*
X196468966Y-123471401D01*
X196210986Y-123609294D01*
X195984866Y-123794866D01*
X195960393Y-123824687D01*
X195939502Y-123755820D01*
X195880537Y-123645506D01*
X195801185Y-123548815D01*
X195704494Y-123469463D01*
X195594180Y-123410498D01*
X195474482Y-123374188D01*
X195350000Y-123361928D01*
X194785750Y-123365000D01*
X194627000Y-123523750D01*
X194627000Y-125373000D01*
X194647000Y-125373000D01*
X194647000Y-125627000D01*
X194627000Y-125627000D01*
X194627000Y-127476250D01*
X194785750Y-127635000D01*
X195350000Y-127638072D01*
X195474482Y-127625812D01*
X195594180Y-127589502D01*
X195704494Y-127530537D01*
X195801185Y-127451185D01*
X195880537Y-127354494D01*
X195939502Y-127244180D01*
X195960393Y-127175312D01*
X195984867Y-127205134D01*
X196210987Y-127390706D01*
X196468967Y-127528599D01*
X196748890Y-127613513D01*
X197040000Y-127642185D01*
X197331111Y-127613513D01*
X197611034Y-127528599D01*
X197869014Y-127390706D01*
X198095134Y-127205134D01*
X198280706Y-126979014D01*
X198310000Y-126924208D01*
X198339295Y-126979014D01*
X198524867Y-127205134D01*
X198750987Y-127390706D01*
X199008967Y-127528599D01*
X199288890Y-127613513D01*
X199580000Y-127642185D01*
X199871111Y-127613513D01*
X200151034Y-127528599D01*
X200409014Y-127390706D01*
X200635134Y-127205134D01*
X200803483Y-127000000D01*
X204511928Y-127000000D01*
X204524188Y-127124482D01*
X204560498Y-127244180D01*
X204619463Y-127354494D01*
X204698815Y-127451185D01*
X204795506Y-127530537D01*
X204905820Y-127589502D01*
X205025518Y-127625812D01*
X205150000Y-127638072D01*
X205714250Y-127635000D01*
X205873000Y-127476250D01*
X205873000Y-125627000D01*
X204673750Y-125627000D01*
X204515000Y-125785750D01*
X204511928Y-127000000D01*
X200803483Y-127000000D01*
X200820706Y-126979014D01*
X200958599Y-126721034D01*
X201043513Y-126441111D01*
X201065000Y-126222950D01*
X201065000Y-124777050D01*
X201043513Y-124558889D01*
X201015000Y-124464895D01*
X201015000Y-122470495D01*
X201021943Y-122400000D01*
X200994237Y-122118691D01*
X200938515Y-121935000D01*
X203329508Y-121935000D01*
X203400000Y-121941943D01*
X203470492Y-121935000D01*
X203920873Y-121935000D01*
X205348883Y-123363011D01*
X205150000Y-123361928D01*
X205025518Y-123374188D01*
X204905820Y-123410498D01*
X204795506Y-123469463D01*
X204698815Y-123548815D01*
X204619463Y-123645506D01*
X204560498Y-123755820D01*
X204524188Y-123875518D01*
X204511928Y-124000000D01*
X204515000Y-125214250D01*
X204673750Y-125373000D01*
X205873000Y-125373000D01*
X205873000Y-125353000D01*
X206127000Y-125353000D01*
X206127000Y-125373000D01*
X206147000Y-125373000D01*
X206147000Y-125627000D01*
X206127000Y-125627000D01*
X206127000Y-127476250D01*
X206285750Y-127635000D01*
X206850000Y-127638072D01*
X206974482Y-127625812D01*
X207094180Y-127589502D01*
X207204494Y-127530537D01*
X207301185Y-127451185D01*
X207380537Y-127354494D01*
X207439502Y-127244180D01*
X207460393Y-127175312D01*
X207484867Y-127205134D01*
X207710987Y-127390706D01*
X207968967Y-127528599D01*
X208248890Y-127613513D01*
X208540000Y-127642185D01*
X208831111Y-127613513D01*
X209111034Y-127528599D01*
X209369014Y-127390706D01*
X209595134Y-127205134D01*
X209780706Y-126979014D01*
X209810000Y-126924208D01*
X209839295Y-126979014D01*
X210024867Y-127205134D01*
X210250987Y-127390706D01*
X210508967Y-127528599D01*
X210788890Y-127613513D01*
X211080000Y-127642185D01*
X211371111Y-127613513D01*
X211651034Y-127528599D01*
X211909014Y-127390706D01*
X212135134Y-127205134D01*
X212320706Y-126979014D01*
X212350000Y-126924208D01*
X212379295Y-126979014D01*
X212564867Y-127205134D01*
X212790987Y-127390706D01*
X213048967Y-127528599D01*
X213328890Y-127613513D01*
X213620000Y-127642185D01*
X213911111Y-127613513D01*
X214191034Y-127528599D01*
X214449014Y-127390706D01*
X214675134Y-127205134D01*
X214860706Y-126979014D01*
X214998599Y-126721034D01*
X215083513Y-126441111D01*
X215105000Y-126222950D01*
X215105000Y-124777050D01*
X215083513Y-124558889D01*
X214998599Y-124278966D01*
X214860706Y-124020986D01*
X214675134Y-123794866D01*
X214449013Y-123609294D01*
X214191033Y-123471401D01*
X213911110Y-123386487D01*
X213620000Y-123357815D01*
X213328889Y-123386487D01*
X213048966Y-123471401D01*
X212790986Y-123609294D01*
X212564866Y-123794866D01*
X212379294Y-124020987D01*
X212350000Y-124075792D01*
X212320706Y-124020986D01*
X212135134Y-123794866D01*
X211909013Y-123609294D01*
X211651033Y-123471401D01*
X211371110Y-123386487D01*
X211080000Y-123357815D01*
X210788889Y-123386487D01*
X210508966Y-123471401D01*
X210250986Y-123609294D01*
X210024866Y-123794866D01*
X209873951Y-123978757D01*
X209872182Y-123972924D01*
X209820117Y-123875518D01*
X209738932Y-123723631D01*
X209559608Y-123505124D01*
X209504846Y-123460182D01*
X207939664Y-121895000D01*
X221201646Y-121895000D01*
X221174188Y-121985518D01*
X221161928Y-122110000D01*
X221165000Y-122674250D01*
X221323750Y-122833000D01*
X223173000Y-122833000D01*
X223173000Y-122813000D01*
X223427000Y-122813000D01*
X223427000Y-122833000D01*
X225276250Y-122833000D01*
X225435000Y-122674250D01*
X225438072Y-122110000D01*
X225425812Y-121985518D01*
X225398354Y-121895000D01*
X227975604Y-121895000D01*
X225805605Y-124065000D01*
X225383718Y-124065000D01*
X225389502Y-124054180D01*
X225425812Y-123934482D01*
X225438072Y-123810000D01*
X225435000Y-123245750D01*
X225276250Y-123087000D01*
X223427000Y-123087000D01*
X223427000Y-123107000D01*
X223173000Y-123107000D01*
X223173000Y-123087000D01*
X221323750Y-123087000D01*
X221165000Y-123245750D01*
X221161928Y-123810000D01*
X221174188Y-123934482D01*
X221210498Y-124054180D01*
X221269463Y-124164494D01*
X221348815Y-124261185D01*
X221445506Y-124340537D01*
X221555820Y-124399502D01*
X221624687Y-124420393D01*
X221594866Y-124444866D01*
X221409294Y-124670986D01*
X221271401Y-124928966D01*
X221186487Y-125208889D01*
X221157815Y-125500000D01*
X221186487Y-125791111D01*
X221271401Y-126071034D01*
X221409294Y-126329014D01*
X221594866Y-126555134D01*
X221820986Y-126740706D01*
X222078966Y-126878599D01*
X222358889Y-126963513D01*
X222577050Y-126985000D01*
X224022950Y-126985000D01*
X224241111Y-126963513D01*
X224335105Y-126935000D01*
X226329508Y-126935000D01*
X226400000Y-126941943D01*
X226470492Y-126935000D01*
X226681309Y-126914236D01*
X226951808Y-126832182D01*
X227201101Y-126698932D01*
X227419608Y-126519608D01*
X227464554Y-126464841D01*
X228389395Y-125540000D01*
X232357815Y-125540000D01*
X232386487Y-125831111D01*
X232471401Y-126111034D01*
X232609294Y-126369014D01*
X232794866Y-126595134D01*
X233020986Y-126780706D01*
X233075791Y-126810000D01*
X233020986Y-126839294D01*
X232794866Y-127024866D01*
X232609294Y-127250986D01*
X232471401Y-127508966D01*
X232386487Y-127788889D01*
X232357815Y-128080000D01*
X232386487Y-128371111D01*
X232471401Y-128651034D01*
X232609294Y-128909014D01*
X232794866Y-129135134D01*
X233020986Y-129320706D01*
X233278966Y-129458599D01*
X233558889Y-129543513D01*
X233777050Y-129565000D01*
X235222950Y-129565000D01*
X235441111Y-129543513D01*
X235721034Y-129458599D01*
X235979014Y-129320706D01*
X236205134Y-129135134D01*
X236390706Y-128909014D01*
X236528599Y-128651034D01*
X236613513Y-128371111D01*
X236642185Y-128080000D01*
X236613513Y-127788889D01*
X236528599Y-127508966D01*
X236390706Y-127250986D01*
X236205134Y-127024866D01*
X235979014Y-126839294D01*
X235924209Y-126810000D01*
X235979014Y-126780706D01*
X236205134Y-126595134D01*
X236390706Y-126369014D01*
X236528599Y-126111034D01*
X236613513Y-125831111D01*
X236642185Y-125540000D01*
X236613513Y-125248889D01*
X236528599Y-124968966D01*
X236390706Y-124710986D01*
X236205134Y-124484866D01*
X235979014Y-124299294D01*
X235920663Y-124268105D01*
X236080619Y-124164176D01*
X236289857Y-123960252D01*
X236455291Y-123719426D01*
X236570563Y-123450953D01*
X236591476Y-123356890D01*
X236470155Y-123127000D01*
X234627000Y-123127000D01*
X234627000Y-123147000D01*
X234373000Y-123147000D01*
X234373000Y-123127000D01*
X232529845Y-123127000D01*
X232408524Y-123356890D01*
X232429437Y-123450953D01*
X232544709Y-123719426D01*
X232710143Y-123960252D01*
X232919381Y-124164176D01*
X233079337Y-124268105D01*
X233020986Y-124299294D01*
X232794866Y-124484866D01*
X232609294Y-124710986D01*
X232471401Y-124968966D01*
X232386487Y-125248889D01*
X232357815Y-125540000D01*
X228389395Y-125540000D01*
X232034397Y-121895000D01*
X232858663Y-121895000D01*
X232710143Y-122039748D01*
X232544709Y-122280574D01*
X232429437Y-122549047D01*
X232408524Y-122643110D01*
X232529845Y-122873000D01*
X234373000Y-122873000D01*
X234373000Y-122853000D01*
X234627000Y-122853000D01*
X234627000Y-122873000D01*
X236470155Y-122873000D01*
X236591476Y-122643110D01*
X236570563Y-122549047D01*
X236455291Y-122280574D01*
X236289857Y-122039748D01*
X236080619Y-121835824D01*
X236062478Y-121824037D01*
X236165611Y-121768912D01*
X236326705Y-121636705D01*
X236458912Y-121475611D01*
X236557150Y-121291820D01*
X236617645Y-121092395D01*
X236638072Y-120885000D01*
X236638072Y-120035000D01*
X236617645Y-119827605D01*
X236557150Y-119628180D01*
X236458912Y-119444389D01*
X236326705Y-119283295D01*
X236165611Y-119151088D01*
X235981820Y-119052850D01*
X235782395Y-118992355D01*
X235575000Y-118971928D01*
X233425000Y-118971928D01*
X233217605Y-118992355D01*
X233109989Y-119025000D01*
X231510491Y-119025000D01*
X231439999Y-119018057D01*
X231369507Y-119025000D01*
X211024395Y-119025000D01*
X220656987Y-109392408D01*
X221823000Y-109392408D01*
X221823000Y-109667592D01*
X221876686Y-109937490D01*
X221981995Y-110191727D01*
X222134880Y-110420535D01*
X222329465Y-110615120D01*
X222558273Y-110768005D01*
X222812510Y-110873314D01*
X223082408Y-110927000D01*
X223357592Y-110927000D01*
X223627490Y-110873314D01*
X223881727Y-110768005D01*
X224110535Y-110615120D01*
X224230090Y-110495565D01*
X224974040Y-110495565D01*
X225041020Y-110735656D01*
X225290048Y-110852756D01*
X225557135Y-110919023D01*
X225832017Y-110931910D01*
X226104133Y-110890922D01*
X226363023Y-110797636D01*
X226478980Y-110735656D01*
X226545960Y-110495565D01*
X225760000Y-109709605D01*
X224974040Y-110495565D01*
X224230090Y-110495565D01*
X224305120Y-110420535D01*
X224458005Y-110191727D01*
X224487692Y-110120057D01*
X224492364Y-110133023D01*
X224554344Y-110248980D01*
X224794435Y-110315960D01*
X225580395Y-109530000D01*
X225939605Y-109530000D01*
X226725565Y-110315960D01*
X226965656Y-110248980D01*
X227029485Y-110113240D01*
X227061995Y-110191727D01*
X227214880Y-110420535D01*
X227409465Y-110615120D01*
X227638273Y-110768005D01*
X227892510Y-110873314D01*
X228162408Y-110927000D01*
X228437592Y-110927000D01*
X228707490Y-110873314D01*
X228961727Y-110768005D01*
X229190535Y-110615120D01*
X229385120Y-110420535D01*
X229538005Y-110191727D01*
X229570000Y-110114485D01*
X229601995Y-110191727D01*
X229754880Y-110420535D01*
X229949465Y-110615120D01*
X230178273Y-110768005D01*
X230432510Y-110873314D01*
X230702408Y-110927000D01*
X230977592Y-110927000D01*
X231247490Y-110873314D01*
X231501727Y-110768005D01*
X231730535Y-110615120D01*
X231925120Y-110420535D01*
X232078005Y-110191727D01*
X232110000Y-110114485D01*
X232141995Y-110191727D01*
X232294880Y-110420535D01*
X232489465Y-110615120D01*
X232718273Y-110768005D01*
X232972510Y-110873314D01*
X233242408Y-110927000D01*
X233517592Y-110927000D01*
X233787490Y-110873314D01*
X234041727Y-110768005D01*
X234270535Y-110615120D01*
X234465120Y-110420535D01*
X234618005Y-110191727D01*
X234650000Y-110114485D01*
X234681995Y-110191727D01*
X234834880Y-110420535D01*
X235029465Y-110615120D01*
X235258273Y-110768005D01*
X235512510Y-110873314D01*
X235782408Y-110927000D01*
X236057592Y-110927000D01*
X236327490Y-110873314D01*
X236581727Y-110768005D01*
X236810535Y-110615120D01*
X237005120Y-110420535D01*
X237158005Y-110191727D01*
X237190000Y-110114485D01*
X237221995Y-110191727D01*
X237374880Y-110420535D01*
X237569465Y-110615120D01*
X237798273Y-110768005D01*
X238052510Y-110873314D01*
X238322408Y-110927000D01*
X238597592Y-110927000D01*
X238867490Y-110873314D01*
X239121727Y-110768005D01*
X239350535Y-110615120D01*
X239545120Y-110420535D01*
X239698005Y-110191727D01*
X239730000Y-110114485D01*
X239761995Y-110191727D01*
X239914880Y-110420535D01*
X240109465Y-110615120D01*
X240338273Y-110768005D01*
X240592510Y-110873314D01*
X240862408Y-110927000D01*
X241137592Y-110927000D01*
X241407490Y-110873314D01*
X241661727Y-110768005D01*
X241890535Y-110615120D01*
X242085120Y-110420535D01*
X242238005Y-110191727D01*
X242343314Y-109937490D01*
X242397000Y-109667592D01*
X242397000Y-109392408D01*
X242343314Y-109122510D01*
X242238005Y-108868273D01*
X242085120Y-108639465D01*
X241890535Y-108444880D01*
X241661727Y-108291995D01*
X241407490Y-108186686D01*
X241137592Y-108133000D01*
X240862408Y-108133000D01*
X240592510Y-108186686D01*
X240338273Y-108291995D01*
X240109465Y-108444880D01*
X239914880Y-108639465D01*
X239761995Y-108868273D01*
X239730000Y-108945515D01*
X239698005Y-108868273D01*
X239545120Y-108639465D01*
X239350535Y-108444880D01*
X239121727Y-108291995D01*
X238867490Y-108186686D01*
X238597592Y-108133000D01*
X238322408Y-108133000D01*
X238052510Y-108186686D01*
X237798273Y-108291995D01*
X237569465Y-108444880D01*
X237374880Y-108639465D01*
X237221995Y-108868273D01*
X237190000Y-108945515D01*
X237158005Y-108868273D01*
X237005120Y-108639465D01*
X236810535Y-108444880D01*
X236581727Y-108291995D01*
X236327490Y-108186686D01*
X236057592Y-108133000D01*
X235782408Y-108133000D01*
X235512510Y-108186686D01*
X235258273Y-108291995D01*
X235029465Y-108444880D01*
X234834880Y-108639465D01*
X234681995Y-108868273D01*
X234650000Y-108945515D01*
X234618005Y-108868273D01*
X234465120Y-108639465D01*
X234270535Y-108444880D01*
X234041727Y-108291995D01*
X233787490Y-108186686D01*
X233517592Y-108133000D01*
X233242408Y-108133000D01*
X232972510Y-108186686D01*
X232718273Y-108291995D01*
X232489465Y-108444880D01*
X232294880Y-108639465D01*
X232141995Y-108868273D01*
X232110000Y-108945515D01*
X232078005Y-108868273D01*
X231925120Y-108639465D01*
X231730535Y-108444880D01*
X231501727Y-108291995D01*
X231247490Y-108186686D01*
X230977592Y-108133000D01*
X230702408Y-108133000D01*
X230432510Y-108186686D01*
X230178273Y-108291995D01*
X229949465Y-108444880D01*
X229754880Y-108639465D01*
X229601995Y-108868273D01*
X229570000Y-108945515D01*
X229538005Y-108868273D01*
X229385120Y-108639465D01*
X229190535Y-108444880D01*
X228961727Y-108291995D01*
X228707490Y-108186686D01*
X228437592Y-108133000D01*
X228162408Y-108133000D01*
X227892510Y-108186686D01*
X227638273Y-108291995D01*
X227409465Y-108444880D01*
X227214880Y-108639465D01*
X227061995Y-108868273D01*
X227032308Y-108939943D01*
X227027636Y-108926977D01*
X226965656Y-108811020D01*
X226725565Y-108744040D01*
X225939605Y-109530000D01*
X225580395Y-109530000D01*
X224794435Y-108744040D01*
X224554344Y-108811020D01*
X224490515Y-108946760D01*
X224458005Y-108868273D01*
X224305120Y-108639465D01*
X224230090Y-108564435D01*
X224974040Y-108564435D01*
X225760000Y-109350395D01*
X226545960Y-108564435D01*
X226478980Y-108324344D01*
X226229952Y-108207244D01*
X225962865Y-108140977D01*
X225687983Y-108128090D01*
X225415867Y-108169078D01*
X225156977Y-108262364D01*
X225041020Y-108324344D01*
X224974040Y-108564435D01*
X224230090Y-108564435D01*
X224110535Y-108444880D01*
X223881727Y-108291995D01*
X223627490Y-108186686D01*
X223357592Y-108133000D01*
X223082408Y-108133000D01*
X222812510Y-108186686D01*
X222558273Y-108291995D01*
X222329465Y-108444880D01*
X222134880Y-108639465D01*
X221981995Y-108868273D01*
X221876686Y-109122510D01*
X221823000Y-109392408D01*
X220656987Y-109392408D01*
X234352384Y-95697012D01*
X238167496Y-95697012D01*
X238237988Y-95703955D01*
X238308480Y-95697012D01*
X238519297Y-95676248D01*
X238789796Y-95594194D01*
X239039089Y-95460944D01*
X239257596Y-95281620D01*
X239302542Y-95226853D01*
X241964850Y-92564546D01*
X242019607Y-92519608D01*
X242198932Y-92301101D01*
X242332182Y-92051808D01*
X242356041Y-91973155D01*
X242414237Y-91781309D01*
X242441943Y-91500000D01*
X242435000Y-91429505D01*
X242435000Y-86594395D01*
X243064543Y-85964853D01*
X243114637Y-85914759D01*
X243153995Y-85855856D01*
X243198931Y-85801101D01*
X243232324Y-85738627D01*
X243271680Y-85679727D01*
X243298786Y-85614286D01*
X243332182Y-85551808D01*
X243340001Y-85526033D01*
X243340000Y-125972911D01*
X243266098Y-126871802D01*
X243052999Y-127720180D01*
X242704197Y-128522371D01*
X242229062Y-129256818D01*
X241640354Y-129903799D01*
X240953875Y-130445946D01*
X240188076Y-130868691D01*
X239363514Y-131160683D01*
X238490925Y-131316116D01*
X237984453Y-131340000D01*
X166027089Y-131340000D01*
X165128198Y-131266098D01*
X164279820Y-131052999D01*
X163477629Y-130704197D01*
X162743182Y-130229062D01*
X162096201Y-129640354D01*
X161554054Y-128953875D01*
X161131309Y-128188076D01*
X160839317Y-127363514D01*
X160683884Y-126490925D01*
X160660000Y-125984453D01*
X160660000Y-122150000D01*
X164861928Y-122150000D01*
X164865000Y-122714250D01*
X165023750Y-122873000D01*
X166873000Y-122873000D01*
X166873000Y-121673750D01*
X167127000Y-121673750D01*
X167127000Y-122873000D01*
X168976250Y-122873000D01*
X169135000Y-122714250D01*
X169138072Y-122150000D01*
X169125812Y-122025518D01*
X169089502Y-121905820D01*
X169030537Y-121795506D01*
X168951185Y-121698815D01*
X168854494Y-121619463D01*
X168744180Y-121560498D01*
X168624482Y-121524188D01*
X168500000Y-121511928D01*
X167285750Y-121515000D01*
X167127000Y-121673750D01*
X166873000Y-121673750D01*
X166714250Y-121515000D01*
X165500000Y-121511928D01*
X165375518Y-121524188D01*
X165255820Y-121560498D01*
X165145506Y-121619463D01*
X165048815Y-121698815D01*
X164969463Y-121795506D01*
X164910498Y-121905820D01*
X164874188Y-122025518D01*
X164861928Y-122150000D01*
X160660000Y-122150000D01*
X160660000Y-108900000D01*
X190133762Y-108900000D01*
X190138769Y-108950838D01*
X190138769Y-109001939D01*
X190148738Y-109052057D01*
X190153745Y-109102895D01*
X190168573Y-109151777D01*
X190178543Y-109201898D01*
X190198100Y-109249113D01*
X190212928Y-109297993D01*
X190237007Y-109343042D01*
X190256564Y-109390256D01*
X190284955Y-109432746D01*
X190309035Y-109477797D01*
X190341441Y-109517284D01*
X190369832Y-109559774D01*
X190405965Y-109595907D01*
X190438373Y-109635396D01*
X190477861Y-109667803D01*
X190513995Y-109703937D01*
X190556485Y-109732328D01*
X190595972Y-109764734D01*
X190641023Y-109788814D01*
X190683513Y-109817205D01*
X190730727Y-109836762D01*
X190775776Y-109860841D01*
X190824656Y-109875669D01*
X190871871Y-109895226D01*
X190921992Y-109905196D01*
X190970874Y-109920024D01*
X191021712Y-109925031D01*
X191071830Y-109935000D01*
X206471290Y-109935000D01*
X208696063Y-112159774D01*
X208840226Y-112303937D01*
X208882712Y-112332325D01*
X208922202Y-112364734D01*
X208967256Y-112388816D01*
X209009744Y-112417205D01*
X209056959Y-112436762D01*
X209102006Y-112460840D01*
X209150881Y-112475666D01*
X209198102Y-112495226D01*
X209248229Y-112505197D01*
X209297104Y-112520023D01*
X209347934Y-112525029D01*
X209398061Y-112535000D01*
X209449171Y-112535000D01*
X209499999Y-112540006D01*
X209550827Y-112535000D01*
X209601939Y-112535000D01*
X209652068Y-112525029D01*
X209702894Y-112520023D01*
X209751766Y-112505198D01*
X209801898Y-112495226D01*
X209849123Y-112475665D01*
X209897993Y-112460840D01*
X209943036Y-112436764D01*
X209990256Y-112417205D01*
X210032748Y-112388813D01*
X210077797Y-112364734D01*
X210117281Y-112332330D01*
X210159774Y-112303937D01*
X210195916Y-112267795D01*
X210235395Y-112235395D01*
X210267795Y-112195916D01*
X210303937Y-112159774D01*
X210332330Y-112117281D01*
X210364734Y-112077797D01*
X210388813Y-112032748D01*
X210417205Y-111990256D01*
X210436764Y-111943036D01*
X210460840Y-111897993D01*
X210475665Y-111849123D01*
X210495226Y-111801898D01*
X210505198Y-111751766D01*
X210520023Y-111702894D01*
X210525029Y-111652068D01*
X210535000Y-111601939D01*
X210535000Y-111550827D01*
X210540006Y-111499999D01*
X210535000Y-111449171D01*
X210535000Y-111398061D01*
X210525029Y-111347934D01*
X210520023Y-111297104D01*
X210505197Y-111248229D01*
X210495226Y-111198102D01*
X210475666Y-111150881D01*
X210460840Y-111102006D01*
X210436762Y-111056959D01*
X210417205Y-111009744D01*
X210388816Y-110967256D01*
X210364734Y-110922202D01*
X210332325Y-110882712D01*
X210303937Y-110840226D01*
X210159774Y-110696063D01*
X207667807Y-108204097D01*
X207635396Y-108164604D01*
X207477797Y-108035266D01*
X207297993Y-107939159D01*
X207102895Y-107879976D01*
X206950838Y-107865000D01*
X206950828Y-107865000D01*
X206900000Y-107859994D01*
X206849172Y-107865000D01*
X191071830Y-107865000D01*
X191021712Y-107874969D01*
X190970874Y-107879976D01*
X190921992Y-107894804D01*
X190871871Y-107904774D01*
X190824656Y-107924331D01*
X190775776Y-107939159D01*
X190730727Y-107963238D01*
X190683513Y-107982795D01*
X190641023Y-108011186D01*
X190595972Y-108035266D01*
X190556485Y-108067672D01*
X190513995Y-108096063D01*
X190477861Y-108132197D01*
X190438373Y-108164604D01*
X190405966Y-108204092D01*
X190369832Y-108240226D01*
X190341441Y-108282716D01*
X190309035Y-108322203D01*
X190284955Y-108367254D01*
X190256564Y-108409744D01*
X190237007Y-108456958D01*
X190212928Y-108502007D01*
X190198100Y-108550887D01*
X190178543Y-108598102D01*
X190168573Y-108648223D01*
X190153745Y-108697105D01*
X190148738Y-108747943D01*
X190138769Y-108798061D01*
X190138769Y-108849162D01*
X190133762Y-108900000D01*
X160660000Y-108900000D01*
X160660000Y-79540000D01*
X164357815Y-79540000D01*
X164386487Y-79831111D01*
X164471401Y-80111034D01*
X164609294Y-80369014D01*
X164794866Y-80595134D01*
X165020986Y-80780706D01*
X165065000Y-80804232D01*
X165065001Y-85389498D01*
X165058057Y-85460000D01*
X165085764Y-85741308D01*
X165167818Y-86011807D01*
X165167819Y-86011808D01*
X165301069Y-86261101D01*
X165480393Y-86479608D01*
X165535155Y-86524550D01*
X168708690Y-89698086D01*
X168749701Y-89797095D01*
X168917688Y-90048505D01*
X169131495Y-90262312D01*
X169382905Y-90430299D01*
X169662257Y-90546011D01*
X169958816Y-90605000D01*
X170261184Y-90605000D01*
X170557743Y-90546011D01*
X170837095Y-90430299D01*
X171088505Y-90262312D01*
X171302312Y-90048505D01*
X171380000Y-89932237D01*
X171457688Y-90048505D01*
X171671495Y-90262312D01*
X171922905Y-90430299D01*
X172202257Y-90546011D01*
X172498816Y-90605000D01*
X172801184Y-90605000D01*
X173097743Y-90546011D01*
X173377095Y-90430299D01*
X173628505Y-90262312D01*
X173842312Y-90048505D01*
X173920000Y-89932237D01*
X173997688Y-90048505D01*
X174211495Y-90262312D01*
X174462905Y-90430299D01*
X174742257Y-90546011D01*
X175038816Y-90605000D01*
X175191740Y-90605000D01*
X175219752Y-90605786D01*
X175231026Y-90606995D01*
X175239767Y-90608662D01*
X175247042Y-90610691D01*
X175253948Y-90613262D01*
X175261530Y-90616834D01*
X175270600Y-90622058D01*
X175281809Y-90629765D01*
X175295475Y-90640785D01*
X175319443Y-90663154D01*
X175394091Y-90737802D01*
X175394096Y-90737806D01*
X178302197Y-93645908D01*
X178334605Y-93685397D01*
X178374093Y-93717804D01*
X178492203Y-93814735D01*
X178588310Y-93866105D01*
X178672008Y-93910842D01*
X178867106Y-93970025D01*
X179019163Y-93985001D01*
X179019172Y-93985001D01*
X179070000Y-93990007D01*
X179120828Y-93985001D01*
X202283632Y-93985001D01*
X202320147Y-94168574D01*
X202428320Y-94429727D01*
X202585363Y-94664759D01*
X202785241Y-94864637D01*
X203020273Y-95021680D01*
X203281426Y-95129853D01*
X203558665Y-95185000D01*
X203841335Y-95185000D01*
X204118574Y-95129853D01*
X204379727Y-95021680D01*
X204614759Y-94864637D01*
X204814637Y-94664759D01*
X204971680Y-94429727D01*
X205079853Y-94168574D01*
X205135000Y-93891335D01*
X205135000Y-93608665D01*
X205079853Y-93331426D01*
X204971680Y-93070273D01*
X204814637Y-92835241D01*
X204614759Y-92635363D01*
X204379727Y-92478320D01*
X204118574Y-92370147D01*
X203841335Y-92315000D01*
X203732838Y-92315000D01*
X203730923Y-92313574D01*
X203715580Y-92300586D01*
X203690547Y-92276836D01*
X203667808Y-92254098D01*
X203635397Y-92214605D01*
X203477798Y-92085267D01*
X203297994Y-91989160D01*
X203102896Y-91929977D01*
X202950839Y-91915001D01*
X202950829Y-91915001D01*
X202900001Y-91909995D01*
X202849173Y-91915001D01*
X179498712Y-91915001D01*
X178137689Y-90553978D01*
X178177743Y-90546011D01*
X178457095Y-90430299D01*
X178708505Y-90262312D01*
X178922312Y-90048505D01*
X179000000Y-89932237D01*
X179077688Y-90048505D01*
X179291495Y-90262312D01*
X179542905Y-90430299D01*
X179822257Y-90546011D01*
X180118816Y-90605000D01*
X180271740Y-90605000D01*
X180299752Y-90605786D01*
X180311026Y-90606995D01*
X180319767Y-90608662D01*
X180327042Y-90610691D01*
X180333948Y-90613262D01*
X180341530Y-90616834D01*
X180350600Y-90622058D01*
X180361809Y-90629765D01*
X180375475Y-90640785D01*
X180399443Y-90663154D01*
X180474091Y-90737802D01*
X180474097Y-90737807D01*
X181002194Y-91265904D01*
X181034605Y-91305397D01*
X181130314Y-91383943D01*
X181192203Y-91434735D01*
X181211657Y-91445133D01*
X181372008Y-91530842D01*
X181567106Y-91590025D01*
X181719163Y-91605001D01*
X181719165Y-91605001D01*
X181770001Y-91610008D01*
X181820836Y-91605001D01*
X202779171Y-91605001D01*
X202829999Y-91610007D01*
X202880827Y-91605001D01*
X202880837Y-91605001D01*
X203032894Y-91590025D01*
X203227992Y-91530842D01*
X203407796Y-91434735D01*
X203565395Y-91305397D01*
X203597806Y-91265904D01*
X203690539Y-91173171D01*
X203715590Y-91149404D01*
X203730923Y-91136425D01*
X203732837Y-91135000D01*
X203841335Y-91135000D01*
X204118574Y-91079853D01*
X204379727Y-90971680D01*
X204614759Y-90814637D01*
X204814637Y-90614759D01*
X204971680Y-90379727D01*
X205079853Y-90118574D01*
X205135000Y-89841335D01*
X205135000Y-89558665D01*
X205079853Y-89281426D01*
X204971680Y-89020273D01*
X204814637Y-88785241D01*
X204614759Y-88585363D01*
X204379727Y-88428320D01*
X204118574Y-88320147D01*
X203841335Y-88265000D01*
X203558665Y-88265000D01*
X203281426Y-88320147D01*
X203020273Y-88428320D01*
X202785241Y-88585363D01*
X202585363Y-88785241D01*
X202428320Y-89020273D01*
X202320147Y-89281426D01*
X202269707Y-89535001D01*
X189358862Y-89535001D01*
X189366011Y-89517743D01*
X189425000Y-89221184D01*
X189425000Y-88918816D01*
X189366011Y-88622257D01*
X189250299Y-88342905D01*
X189082312Y-88091495D01*
X188868505Y-87877688D01*
X188617095Y-87709701D01*
X188337743Y-87593989D01*
X188041184Y-87535000D01*
X187738816Y-87535000D01*
X187442257Y-87593989D01*
X187162905Y-87709701D01*
X186911495Y-87877688D01*
X186753124Y-88036059D01*
X186743799Y-88005322D01*
X186682182Y-87802194D01*
X186548932Y-87552901D01*
X186369607Y-87334394D01*
X186314856Y-87289461D01*
X183325394Y-84300000D01*
X187759994Y-84300000D01*
X187779977Y-84502895D01*
X187839160Y-84697993D01*
X187935266Y-84877797D01*
X187993835Y-84949163D01*
X188064605Y-85035396D01*
X188104092Y-85067802D01*
X189296063Y-86259774D01*
X189440226Y-86403937D01*
X189482712Y-86432325D01*
X189522202Y-86464734D01*
X189567256Y-86488816D01*
X189609744Y-86517205D01*
X189656959Y-86536762D01*
X189702006Y-86560840D01*
X189750880Y-86575666D01*
X189798102Y-86595226D01*
X189848232Y-86605197D01*
X189897105Y-86620023D01*
X189947936Y-86625030D01*
X189998061Y-86635000D01*
X190049165Y-86635000D01*
X190100000Y-86640007D01*
X190150835Y-86635000D01*
X190201939Y-86635000D01*
X190252064Y-86625030D01*
X190302895Y-86620023D01*
X190351768Y-86605197D01*
X190401898Y-86595226D01*
X190449122Y-86575665D01*
X190497993Y-86560840D01*
X190543036Y-86536764D01*
X190590256Y-86517205D01*
X190632748Y-86488813D01*
X190677797Y-86464734D01*
X190717284Y-86432328D01*
X190759774Y-86403937D01*
X190795908Y-86367803D01*
X190835396Y-86335396D01*
X190867803Y-86295908D01*
X190903937Y-86259774D01*
X190932328Y-86217284D01*
X190964734Y-86177797D01*
X190988813Y-86132748D01*
X191017205Y-86090256D01*
X191036764Y-86043036D01*
X191060840Y-85997993D01*
X191062445Y-85992702D01*
X236186903Y-85992702D01*
X236258486Y-86236671D01*
X236513996Y-86357571D01*
X236788184Y-86426300D01*
X237070512Y-86440217D01*
X237350130Y-86398787D01*
X237616292Y-86303603D01*
X237741514Y-86236671D01*
X237813097Y-85992702D01*
X237000000Y-85179605D01*
X236186903Y-85992702D01*
X191062445Y-85992702D01*
X191075665Y-85949122D01*
X191095226Y-85901898D01*
X191105197Y-85851768D01*
X191120023Y-85802895D01*
X191125030Y-85752064D01*
X191135000Y-85701939D01*
X191135000Y-85650835D01*
X191140007Y-85600000D01*
X191135000Y-85549165D01*
X191135000Y-85498061D01*
X191125030Y-85447936D01*
X191120023Y-85397105D01*
X191105197Y-85348232D01*
X191095226Y-85298102D01*
X191075666Y-85250880D01*
X191060840Y-85202006D01*
X191036762Y-85156959D01*
X191017205Y-85109744D01*
X190990992Y-85070512D01*
X235559783Y-85070512D01*
X235601213Y-85350130D01*
X235696397Y-85616292D01*
X235763329Y-85741514D01*
X236007298Y-85813097D01*
X236820395Y-85000000D01*
X237179605Y-85000000D01*
X237992702Y-85813097D01*
X238236671Y-85741514D01*
X238357571Y-85486004D01*
X238426300Y-85211816D01*
X238440217Y-84929488D01*
X238398787Y-84649870D01*
X238303603Y-84383708D01*
X238236671Y-84258486D01*
X237992702Y-84186903D01*
X237179605Y-85000000D01*
X236820395Y-85000000D01*
X236007298Y-84186903D01*
X235763329Y-84258486D01*
X235642429Y-84513996D01*
X235573700Y-84788184D01*
X235559783Y-85070512D01*
X190990992Y-85070512D01*
X190988816Y-85067256D01*
X190964734Y-85022202D01*
X190932325Y-84982712D01*
X190903937Y-84940226D01*
X190759774Y-84796063D01*
X189971009Y-84007298D01*
X236186903Y-84007298D01*
X237000000Y-84820395D01*
X237813097Y-84007298D01*
X237741514Y-83763329D01*
X237486004Y-83642429D01*
X237211816Y-83573700D01*
X236929488Y-83559783D01*
X236649870Y-83601213D01*
X236383708Y-83696397D01*
X236258486Y-83763329D01*
X236186903Y-84007298D01*
X189971009Y-84007298D01*
X189835000Y-83871290D01*
X189835000Y-82798061D01*
X189825031Y-82747943D01*
X189820024Y-82697105D01*
X189805196Y-82648223D01*
X189795226Y-82598102D01*
X189775669Y-82550887D01*
X189760841Y-82502007D01*
X189736762Y-82456958D01*
X189717205Y-82409744D01*
X189688814Y-82367254D01*
X189664734Y-82322203D01*
X189632328Y-82282716D01*
X189603937Y-82240226D01*
X189567803Y-82204092D01*
X189535396Y-82164604D01*
X189495908Y-82132197D01*
X189459774Y-82096063D01*
X189417284Y-82067672D01*
X189377797Y-82035266D01*
X189332747Y-82011186D01*
X189290256Y-81982795D01*
X189243039Y-81963237D01*
X189197992Y-81939159D01*
X189149116Y-81924332D01*
X189101898Y-81904774D01*
X189051774Y-81894804D01*
X189002894Y-81879976D01*
X188952058Y-81874969D01*
X188901939Y-81865000D01*
X188850838Y-81865000D01*
X188800000Y-81859993D01*
X188749162Y-81865000D01*
X188698061Y-81865000D01*
X188647943Y-81874969D01*
X188597105Y-81879976D01*
X188548223Y-81894804D01*
X188498102Y-81904774D01*
X188450887Y-81924331D01*
X188402007Y-81939159D01*
X188356958Y-81963238D01*
X188309744Y-81982795D01*
X188267254Y-82011186D01*
X188222203Y-82035266D01*
X188182716Y-82067672D01*
X188140226Y-82096063D01*
X188104092Y-82132197D01*
X188064604Y-82164604D01*
X188032197Y-82204092D01*
X187996063Y-82240226D01*
X187967672Y-82282716D01*
X187935266Y-82322203D01*
X187911186Y-82367253D01*
X187882795Y-82409744D01*
X187863237Y-82456961D01*
X187839159Y-82502008D01*
X187824332Y-82550884D01*
X187804774Y-82598102D01*
X187794804Y-82648226D01*
X187779976Y-82697106D01*
X187774969Y-82747942D01*
X187765000Y-82798061D01*
X187765000Y-82849163D01*
X187765001Y-84249163D01*
X187759994Y-84300000D01*
X183325394Y-84300000D01*
X183304250Y-84278857D01*
X183515131Y-84152385D01*
X183723519Y-83963414D01*
X183891037Y-83737420D01*
X184011246Y-83483087D01*
X184051904Y-83349039D01*
X183929915Y-83127000D01*
X182787000Y-83127000D01*
X182787000Y-83147000D01*
X182533000Y-83147000D01*
X182533000Y-83127000D01*
X182513000Y-83127000D01*
X182513000Y-82873000D01*
X182533000Y-82873000D01*
X182533000Y-81729376D01*
X182787000Y-81729376D01*
X182787000Y-82873000D01*
X183929915Y-82873000D01*
X184051904Y-82650961D01*
X184011246Y-82516913D01*
X183891037Y-82262580D01*
X183723519Y-82036586D01*
X183515131Y-81847615D01*
X183273881Y-81702930D01*
X183009040Y-81608091D01*
X182787000Y-81729376D01*
X182533000Y-81729376D01*
X182310960Y-81608091D01*
X182046119Y-81702930D01*
X181804869Y-81847615D01*
X181596481Y-82036586D01*
X181428963Y-82262580D01*
X181383712Y-82358319D01*
X181060552Y-82035159D01*
X181015606Y-81980392D01*
X180797099Y-81801068D01*
X180547806Y-81667818D01*
X180277307Y-81585764D01*
X180066490Y-81565000D01*
X179995998Y-81558057D01*
X179925506Y-81565000D01*
X172358665Y-81565000D01*
X172289183Y-81578821D01*
X172218691Y-81585764D01*
X172150903Y-81606327D01*
X172081426Y-81620147D01*
X172015986Y-81647253D01*
X171948192Y-81667818D01*
X171885712Y-81701214D01*
X171820273Y-81728320D01*
X171761378Y-81767672D01*
X171698899Y-81801068D01*
X171644137Y-81846010D01*
X171585241Y-81885363D01*
X171535154Y-81935450D01*
X171480392Y-81980392D01*
X171435450Y-82035154D01*
X171385363Y-82085241D01*
X171346010Y-82144137D01*
X171301068Y-82198899D01*
X171267672Y-82261378D01*
X171228320Y-82320273D01*
X171201214Y-82385712D01*
X171167818Y-82448192D01*
X171147253Y-82515986D01*
X171120147Y-82581426D01*
X171106327Y-82650903D01*
X171085764Y-82718691D01*
X171078821Y-82789183D01*
X171065000Y-82858665D01*
X171065000Y-82929508D01*
X171058057Y-83000000D01*
X171065000Y-83070492D01*
X171065000Y-83141335D01*
X171078821Y-83210817D01*
X171085764Y-83281309D01*
X171106327Y-83349097D01*
X171120147Y-83418574D01*
X171147253Y-83484014D01*
X171167818Y-83551808D01*
X171201214Y-83614288D01*
X171228320Y-83679727D01*
X171267672Y-83738622D01*
X171301068Y-83801101D01*
X171346010Y-83855863D01*
X171385363Y-83914759D01*
X171435450Y-83964846D01*
X171480392Y-84019608D01*
X171535154Y-84064550D01*
X171585241Y-84114637D01*
X171644137Y-84153990D01*
X171698899Y-84198932D01*
X171761378Y-84232328D01*
X171820273Y-84271680D01*
X171885712Y-84298786D01*
X171948192Y-84332182D01*
X172015986Y-84352747D01*
X172081426Y-84379853D01*
X172150903Y-84393673D01*
X172218691Y-84414236D01*
X172289183Y-84421179D01*
X172358665Y-84435000D01*
X178528426Y-84435000D01*
X178511186Y-84467253D01*
X178482795Y-84509744D01*
X178463237Y-84556961D01*
X178439159Y-84602008D01*
X178424332Y-84650884D01*
X178404774Y-84698102D01*
X178394804Y-84748226D01*
X178379976Y-84797106D01*
X178374969Y-84847942D01*
X178365000Y-84898061D01*
X178365000Y-85609172D01*
X178359994Y-85660000D01*
X178365000Y-85710828D01*
X178365000Y-85710838D01*
X178379976Y-85862895D01*
X178420959Y-85997993D01*
X178439160Y-86057993D01*
X178535266Y-86237797D01*
X178615364Y-86335396D01*
X178664605Y-86395396D01*
X178704092Y-86427802D01*
X179862311Y-87586022D01*
X179822257Y-87593989D01*
X179542905Y-87709701D01*
X179291495Y-87877688D01*
X179077688Y-88091495D01*
X179000000Y-88207763D01*
X178922312Y-88091495D01*
X178708505Y-87877688D01*
X178457095Y-87709701D01*
X178177743Y-87593989D01*
X177881184Y-87535000D01*
X177578816Y-87535000D01*
X177282257Y-87593989D01*
X177002905Y-87709701D01*
X176751495Y-87877688D01*
X176537688Y-88091495D01*
X176460000Y-88207763D01*
X176382312Y-88091495D01*
X176168505Y-87877688D01*
X175917095Y-87709701D01*
X175637743Y-87593989D01*
X175341184Y-87535000D01*
X175038816Y-87535000D01*
X174742257Y-87593989D01*
X174462905Y-87709701D01*
X174211495Y-87877688D01*
X173997688Y-88091495D01*
X173920000Y-88207763D01*
X173842312Y-88091495D01*
X173628505Y-87877688D01*
X173377095Y-87709701D01*
X173097743Y-87593989D01*
X172801184Y-87535000D01*
X172498816Y-87535000D01*
X172202257Y-87593989D01*
X171922905Y-87709701D01*
X171671495Y-87877688D01*
X171457688Y-88091495D01*
X171380000Y-88207763D01*
X171302312Y-88091495D01*
X171088505Y-87877688D01*
X170837095Y-87709701D01*
X170738086Y-87668690D01*
X167935000Y-84865605D01*
X167935000Y-80975000D01*
X176695817Y-80975000D01*
X176766309Y-80981943D01*
X176836801Y-80975000D01*
X188234119Y-80975000D01*
X188304611Y-80981943D01*
X188375103Y-80975000D01*
X199695817Y-80975000D01*
X199766309Y-80981943D01*
X199836801Y-80975000D01*
X211244776Y-80975000D01*
X211315268Y-80981943D01*
X211385760Y-80975000D01*
X226564895Y-80975000D01*
X226658889Y-81003513D01*
X226877050Y-81025000D01*
X228322950Y-81025000D01*
X228541111Y-81003513D01*
X228821034Y-80918599D01*
X229079014Y-80780706D01*
X229305134Y-80595134D01*
X229490706Y-80369014D01*
X229628599Y-80111034D01*
X229713513Y-79831111D01*
X229742185Y-79540000D01*
X229713513Y-79248889D01*
X229628599Y-78968966D01*
X229490706Y-78710986D01*
X229305134Y-78484866D01*
X229275313Y-78460393D01*
X229344180Y-78439502D01*
X229454494Y-78380537D01*
X229551185Y-78301185D01*
X229630537Y-78204494D01*
X229689502Y-78094180D01*
X229725812Y-77974482D01*
X229738072Y-77850000D01*
X229735000Y-77285750D01*
X229576250Y-77127000D01*
X227727000Y-77127000D01*
X227727000Y-77147000D01*
X227473000Y-77147000D01*
X227473000Y-77127000D01*
X225623750Y-77127000D01*
X225465000Y-77285750D01*
X225461928Y-77850000D01*
X225474188Y-77974482D01*
X225510498Y-78094180D01*
X225516282Y-78105000D01*
X221913798Y-78105000D01*
X221963513Y-77941111D01*
X221985000Y-77722950D01*
X221985000Y-76277050D01*
X221972487Y-76150000D01*
X225461928Y-76150000D01*
X225465000Y-76714250D01*
X225623750Y-76873000D01*
X227473000Y-76873000D01*
X227473000Y-75673750D01*
X227727000Y-75673750D01*
X227727000Y-76873000D01*
X229576250Y-76873000D01*
X229672200Y-76777050D01*
X233475000Y-76777050D01*
X233475000Y-78222949D01*
X233496487Y-78441110D01*
X233581401Y-78721033D01*
X233719294Y-78979013D01*
X233904866Y-79205134D01*
X234130986Y-79390706D01*
X234388966Y-79528599D01*
X234668889Y-79613513D01*
X234960000Y-79642185D01*
X235251110Y-79613513D01*
X235531033Y-79528599D01*
X235789013Y-79390706D01*
X236015134Y-79205134D01*
X236134482Y-79059708D01*
X236191088Y-79165611D01*
X236323295Y-79326705D01*
X236484389Y-79458912D01*
X236668180Y-79557150D01*
X236867605Y-79617645D01*
X237075000Y-79638072D01*
X237925000Y-79638072D01*
X238132395Y-79617645D01*
X238331820Y-79557150D01*
X238515611Y-79458912D01*
X238676705Y-79326705D01*
X238808912Y-79165611D01*
X238907150Y-78981820D01*
X238967645Y-78782395D01*
X238988072Y-78575000D01*
X238988072Y-76425000D01*
X238967645Y-76217605D01*
X238907150Y-76018180D01*
X238808912Y-75834389D01*
X238676705Y-75673295D01*
X238515611Y-75541088D01*
X238331820Y-75442850D01*
X238132395Y-75382355D01*
X237925000Y-75361928D01*
X237075000Y-75361928D01*
X236867605Y-75382355D01*
X236668180Y-75442850D01*
X236484389Y-75541088D01*
X236323295Y-75673295D01*
X236191088Y-75834389D01*
X236134482Y-75940292D01*
X236015134Y-75794866D01*
X235789014Y-75609294D01*
X235531034Y-75471401D01*
X235251111Y-75386487D01*
X234960000Y-75357815D01*
X234668890Y-75386487D01*
X234388967Y-75471401D01*
X234130987Y-75609294D01*
X233904867Y-75794866D01*
X233719295Y-76020986D01*
X233581401Y-76278966D01*
X233496487Y-76558889D01*
X233475000Y-76777050D01*
X229672200Y-76777050D01*
X229735000Y-76714250D01*
X229738072Y-76150000D01*
X229725812Y-76025518D01*
X229689502Y-75905820D01*
X229630537Y-75795506D01*
X229551185Y-75698815D01*
X229454494Y-75619463D01*
X229344180Y-75560498D01*
X229224482Y-75524188D01*
X229100000Y-75511928D01*
X227885750Y-75515000D01*
X227727000Y-75673750D01*
X227473000Y-75673750D01*
X227314250Y-75515000D01*
X226100000Y-75511928D01*
X225975518Y-75524188D01*
X225855820Y-75560498D01*
X225745506Y-75619463D01*
X225648815Y-75698815D01*
X225569463Y-75795506D01*
X225510498Y-75905820D01*
X225474188Y-76025518D01*
X225461928Y-76150000D01*
X221972487Y-76150000D01*
X221963513Y-76058889D01*
X221878599Y-75778966D01*
X221740706Y-75520986D01*
X221555134Y-75294866D01*
X221329013Y-75109294D01*
X221071033Y-74971401D01*
X220791110Y-74886487D01*
X220500000Y-74857815D01*
X220208889Y-74886487D01*
X219928966Y-74971401D01*
X219670986Y-75109294D01*
X219444866Y-75294866D01*
X219259294Y-75520987D01*
X219230000Y-75575792D01*
X219200706Y-75520986D01*
X219015134Y-75294866D01*
X218789013Y-75109294D01*
X218531033Y-74971401D01*
X218251110Y-74886487D01*
X217960000Y-74857815D01*
X217668889Y-74886487D01*
X217388966Y-74971401D01*
X217130986Y-75109294D01*
X216904866Y-75294866D01*
X216719294Y-75520987D01*
X216690000Y-75575792D01*
X216660706Y-75520986D01*
X216475134Y-75294866D01*
X216249013Y-75109294D01*
X215991033Y-74971401D01*
X215711110Y-74886487D01*
X215420000Y-74857815D01*
X215128889Y-74886487D01*
X214848966Y-74971401D01*
X214590986Y-75109294D01*
X214364866Y-75294866D01*
X214179294Y-75520987D01*
X214150000Y-75575792D01*
X214120706Y-75520986D01*
X213935134Y-75294866D01*
X213709013Y-75109294D01*
X213451033Y-74971401D01*
X213171110Y-74886487D01*
X212880000Y-74857815D01*
X212588889Y-74886487D01*
X212308966Y-74971401D01*
X212050986Y-75109294D01*
X211824866Y-75294866D01*
X211800393Y-75324687D01*
X211779502Y-75255820D01*
X211720537Y-75145506D01*
X211641185Y-75048815D01*
X211544494Y-74969463D01*
X211434180Y-74910498D01*
X211314482Y-74874188D01*
X211190000Y-74861928D01*
X210625750Y-74865000D01*
X210467000Y-75023750D01*
X210467000Y-76873000D01*
X210487000Y-76873000D01*
X210487000Y-77127000D01*
X210467000Y-77127000D01*
X210467000Y-77147000D01*
X210213000Y-77147000D01*
X210213000Y-77127000D01*
X209013750Y-77127000D01*
X208855000Y-77285750D01*
X208852927Y-78105000D01*
X202993798Y-78105000D01*
X203043513Y-77941111D01*
X203065000Y-77722950D01*
X203065000Y-76277050D01*
X203043513Y-76058889D01*
X202958599Y-75778966D01*
X202820706Y-75520986D01*
X202803484Y-75500000D01*
X208851928Y-75500000D01*
X208855000Y-76714250D01*
X209013750Y-76873000D01*
X210213000Y-76873000D01*
X210213000Y-75023750D01*
X210054250Y-74865000D01*
X209490000Y-74861928D01*
X209365518Y-74874188D01*
X209245820Y-74910498D01*
X209135506Y-74969463D01*
X209038815Y-75048815D01*
X208959463Y-75145506D01*
X208900498Y-75255820D01*
X208864188Y-75375518D01*
X208851928Y-75500000D01*
X202803484Y-75500000D01*
X202635134Y-75294866D01*
X202409013Y-75109294D01*
X202151033Y-74971401D01*
X201871110Y-74886487D01*
X201580000Y-74857815D01*
X201288889Y-74886487D01*
X201008966Y-74971401D01*
X200750986Y-75109294D01*
X200524866Y-75294866D01*
X200339294Y-75520987D01*
X200310000Y-75575792D01*
X200280706Y-75520986D01*
X200095134Y-75294866D01*
X199869013Y-75109294D01*
X199611033Y-74971401D01*
X199331110Y-74886487D01*
X199040000Y-74857815D01*
X198748889Y-74886487D01*
X198468966Y-74971401D01*
X198210986Y-75109294D01*
X197984866Y-75294866D01*
X197960393Y-75324687D01*
X197939502Y-75255820D01*
X197880537Y-75145506D01*
X197801185Y-75048815D01*
X197704494Y-74969463D01*
X197594180Y-74910498D01*
X197474482Y-74874188D01*
X197350000Y-74861928D01*
X196785750Y-74865000D01*
X196627000Y-75023750D01*
X196627000Y-76873000D01*
X196647000Y-76873000D01*
X196647000Y-77127000D01*
X196627000Y-77127000D01*
X196627000Y-77147000D01*
X196373000Y-77147000D01*
X196373000Y-77127000D01*
X195173750Y-77127000D01*
X195015000Y-77285750D01*
X195012927Y-78105000D01*
X191532100Y-78105000D01*
X191581815Y-77941111D01*
X191603302Y-77722950D01*
X191603302Y-76277050D01*
X191581815Y-76058889D01*
X191496901Y-75778966D01*
X191359008Y-75520986D01*
X191341786Y-75500000D01*
X195011928Y-75500000D01*
X195015000Y-76714250D01*
X195173750Y-76873000D01*
X196373000Y-76873000D01*
X196373000Y-75023750D01*
X196214250Y-74865000D01*
X195650000Y-74861928D01*
X195525518Y-74874188D01*
X195405820Y-74910498D01*
X195295506Y-74969463D01*
X195198815Y-75048815D01*
X195119463Y-75145506D01*
X195060498Y-75255820D01*
X195024188Y-75375518D01*
X195011928Y-75500000D01*
X191341786Y-75500000D01*
X191173436Y-75294866D01*
X190947315Y-75109294D01*
X190689335Y-74971401D01*
X190409412Y-74886487D01*
X190118302Y-74857815D01*
X189827191Y-74886487D01*
X189547268Y-74971401D01*
X189289288Y-75109294D01*
X189063168Y-75294866D01*
X188877596Y-75520987D01*
X188848302Y-75575792D01*
X188819008Y-75520986D01*
X188633436Y-75294866D01*
X188407315Y-75109294D01*
X188149335Y-74971401D01*
X187869412Y-74886487D01*
X187578302Y-74857815D01*
X187287191Y-74886487D01*
X187007268Y-74971401D01*
X186749288Y-75109294D01*
X186523168Y-75294866D01*
X186498695Y-75324687D01*
X186477804Y-75255820D01*
X186418839Y-75145506D01*
X186339487Y-75048815D01*
X186242796Y-74969463D01*
X186132482Y-74910498D01*
X186012784Y-74874188D01*
X185888302Y-74861928D01*
X185324052Y-74865000D01*
X185165302Y-75023750D01*
X185165302Y-76873000D01*
X185185302Y-76873000D01*
X185185302Y-77127000D01*
X185165302Y-77127000D01*
X185165302Y-77147000D01*
X184911302Y-77147000D01*
X184911302Y-77127000D01*
X183712052Y-77127000D01*
X183553302Y-77285750D01*
X183551229Y-78105000D01*
X179993798Y-78105000D01*
X180043513Y-77941111D01*
X180065000Y-77722950D01*
X180065000Y-76277050D01*
X180043513Y-76058889D01*
X179958599Y-75778966D01*
X179820706Y-75520986D01*
X179803484Y-75500000D01*
X183550230Y-75500000D01*
X183553302Y-76714250D01*
X183712052Y-76873000D01*
X184911302Y-76873000D01*
X184911302Y-75023750D01*
X184752552Y-74865000D01*
X184188302Y-74861928D01*
X184063820Y-74874188D01*
X183944122Y-74910498D01*
X183833808Y-74969463D01*
X183737117Y-75048815D01*
X183657765Y-75145506D01*
X183598800Y-75255820D01*
X183562490Y-75375518D01*
X183550230Y-75500000D01*
X179803484Y-75500000D01*
X179635134Y-75294866D01*
X179409013Y-75109294D01*
X179151033Y-74971401D01*
X178871110Y-74886487D01*
X178580000Y-74857815D01*
X178288889Y-74886487D01*
X178008966Y-74971401D01*
X177750986Y-75109294D01*
X177524866Y-75294866D01*
X177339294Y-75520987D01*
X177310000Y-75575792D01*
X177280706Y-75520986D01*
X177095134Y-75294866D01*
X176869013Y-75109294D01*
X176611033Y-74971401D01*
X176331110Y-74886487D01*
X176040000Y-74857815D01*
X175748889Y-74886487D01*
X175468966Y-74971401D01*
X175210986Y-75109294D01*
X174984866Y-75294866D01*
X174960393Y-75324687D01*
X174939502Y-75255820D01*
X174880537Y-75145506D01*
X174801185Y-75048815D01*
X174704494Y-74969463D01*
X174594180Y-74910498D01*
X174474482Y-74874188D01*
X174350000Y-74861928D01*
X173785750Y-74865000D01*
X173627000Y-75023750D01*
X173627000Y-76873000D01*
X173647000Y-76873000D01*
X173647000Y-77127000D01*
X173627000Y-77127000D01*
X173627000Y-77147000D01*
X173373000Y-77147000D01*
X173373000Y-77127000D01*
X172173750Y-77127000D01*
X172015000Y-77285750D01*
X172012927Y-78105000D01*
X168385552Y-78105000D01*
X168458912Y-78015611D01*
X168557150Y-77831820D01*
X168617645Y-77632395D01*
X168638072Y-77425000D01*
X168638072Y-76575000D01*
X168617645Y-76367605D01*
X168557150Y-76168180D01*
X168458912Y-75984389D01*
X168326705Y-75823295D01*
X168165611Y-75691088D01*
X167981820Y-75592850D01*
X167782395Y-75532355D01*
X167575000Y-75511928D01*
X165425000Y-75511928D01*
X165217605Y-75532355D01*
X165018180Y-75592850D01*
X164834389Y-75691088D01*
X164673295Y-75823295D01*
X164541088Y-75984389D01*
X164442850Y-76168180D01*
X164382355Y-76367605D01*
X164361928Y-76575000D01*
X164361928Y-77425000D01*
X164382355Y-77632395D01*
X164442850Y-77831820D01*
X164541088Y-78015611D01*
X164673295Y-78176705D01*
X164834389Y-78308912D01*
X164940292Y-78365518D01*
X164794866Y-78484866D01*
X164609294Y-78710986D01*
X164471401Y-78968966D01*
X164386487Y-79248889D01*
X164357815Y-79540000D01*
X160660000Y-79540000D01*
X160660000Y-75500000D01*
X172011928Y-75500000D01*
X172015000Y-76714250D01*
X172173750Y-76873000D01*
X173373000Y-76873000D01*
X173373000Y-75023750D01*
X173214250Y-74865000D01*
X172650000Y-74861928D01*
X172525518Y-74874188D01*
X172405820Y-74910498D01*
X172295506Y-74969463D01*
X172198815Y-75048815D01*
X172119463Y-75145506D01*
X172060498Y-75255820D01*
X172024188Y-75375518D01*
X172011928Y-75500000D01*
X160660000Y-75500000D01*
X160660000Y-75027089D01*
X160733902Y-74128203D01*
X160947001Y-73279818D01*
X161295803Y-72477629D01*
X161770938Y-71743182D01*
X162359646Y-71096202D01*
X163046125Y-70554054D01*
X163811928Y-70131308D01*
X164636491Y-69839316D01*
X165509076Y-69683884D01*
X166015547Y-69660000D01*
X237972911Y-69660000D01*
X238871797Y-69733902D01*
G36*
X225041020Y-90294344D02*
G01*
X224974040Y-90534435D01*
X225760000Y-91320395D01*
X226545960Y-90534435D01*
X226478980Y-90294344D01*
X226352777Y-90235000D01*
X227703444Y-90235000D01*
X227638273Y-90261995D01*
X227409465Y-90414880D01*
X227214880Y-90609465D01*
X227061995Y-90838273D01*
X227032308Y-90909943D01*
X227027636Y-90896977D01*
X226965656Y-90781020D01*
X226725565Y-90714040D01*
X225939605Y-91500000D01*
X225953748Y-91514143D01*
X225774143Y-91693748D01*
X225760000Y-91679605D01*
X225745858Y-91693748D01*
X225566253Y-91514143D01*
X225580395Y-91500000D01*
X224794435Y-90714040D01*
X224554344Y-90781020D01*
X224490515Y-90916760D01*
X224458005Y-90838273D01*
X224305120Y-90609465D01*
X224110535Y-90414880D01*
X223881727Y-90261995D01*
X223816556Y-90235000D01*
X225152045Y-90235000D01*
X225041020Y-90294344D01*
X225041020Y-90294344D01*
G37*
X225041020Y-90294344D02*
X224974040Y-90534435D01*
X225760000Y-91320395D01*
X226545960Y-90534435D01*
X226478980Y-90294344D01*
X226352777Y-90235000D01*
X227703444Y-90235000D01*
X227638273Y-90261995D01*
X227409465Y-90414880D01*
X227214880Y-90609465D01*
X227061995Y-90838273D01*
X227032308Y-90909943D01*
X227027636Y-90896977D01*
X226965656Y-90781020D01*
X226725565Y-90714040D01*
X225939605Y-91500000D01*
X225953748Y-91514143D01*
X225774143Y-91693748D01*
X225760000Y-91679605D01*
X225745858Y-91693748D01*
X225566253Y-91514143D01*
X225580395Y-91500000D01*
X224794435Y-90714040D01*
X224554344Y-90781020D01*
X224490515Y-90916760D01*
X224458005Y-90838273D01*
X224305120Y-90609465D01*
X224110535Y-90414880D01*
X223881727Y-90261995D01*
X223816556Y-90235000D01*
X225152045Y-90235000D01*
X225041020Y-90294344D01*
D22*
G36*
X238077877Y-90568263D02*
G01*
X238078324Y-90568670D01*
X238121873Y-90606559D01*
X238122400Y-90606993D01*
X238165221Y-90640381D01*
X238165844Y-90640837D01*
X238207936Y-90669723D01*
X238208672Y-90670192D01*
X238250036Y-90694577D01*
X238250904Y-90695045D01*
X238291540Y-90714929D01*
X238292555Y-90715371D01*
X238332462Y-90730752D01*
X238333630Y-90731139D01*
X238372808Y-90742020D01*
X238374129Y-90742312D01*
X238412580Y-90748690D01*
X238414027Y-90748845D01*
X238442514Y-90750263D01*
X238711428Y-91751428D01*
X237710263Y-91482514D01*
X237708845Y-91454027D01*
X237708690Y-91452580D01*
X237702312Y-91414129D01*
X237702020Y-91412808D01*
X237691139Y-91373630D01*
X237690752Y-91372462D01*
X237675371Y-91332555D01*
X237674929Y-91331540D01*
X237655045Y-91290904D01*
X237654577Y-91290036D01*
X237630192Y-91248672D01*
X237629723Y-91247936D01*
X237600837Y-91205844D01*
X237600381Y-91205221D01*
X237566993Y-91162400D01*
X237566559Y-91161873D01*
X237528670Y-91118324D01*
X237528263Y-91117877D01*
X237494465Y-91082576D01*
X238042576Y-90534465D01*
X238077877Y-90568263D01*
X238077877Y-90568263D01*
G37*
X238077877Y-90568263D02*
X238078324Y-90568670D01*
X238121873Y-90606559D01*
X238122400Y-90606993D01*
X238165221Y-90640381D01*
X238165844Y-90640837D01*
X238207936Y-90669723D01*
X238208672Y-90670192D01*
X238250036Y-90694577D01*
X238250904Y-90695045D01*
X238291540Y-90714929D01*
X238292555Y-90715371D01*
X238332462Y-90730752D01*
X238333630Y-90731139D01*
X238372808Y-90742020D01*
X238374129Y-90742312D01*
X238412580Y-90748690D01*
X238414027Y-90748845D01*
X238442514Y-90750263D01*
X238711428Y-91751428D01*
X237710263Y-91482514D01*
X237708845Y-91454027D01*
X237708690Y-91452580D01*
X237702312Y-91414129D01*
X237702020Y-91412808D01*
X237691139Y-91373630D01*
X237690752Y-91372462D01*
X237675371Y-91332555D01*
X237674929Y-91331540D01*
X237655045Y-91290904D01*
X237654577Y-91290036D01*
X237630192Y-91248672D01*
X237629723Y-91247936D01*
X237600837Y-91205844D01*
X237600381Y-91205221D01*
X237566993Y-91162400D01*
X237566559Y-91161873D01*
X237528670Y-91118324D01*
X237528263Y-91117877D01*
X237494465Y-91082576D01*
X238042576Y-90534465D01*
X238077877Y-90568263D01*
G36*
X235902514Y-92249737D02*
G01*
X235874027Y-92251154D01*
X235872580Y-92251309D01*
X235834129Y-92257687D01*
X235832808Y-92257979D01*
X235793630Y-92268860D01*
X235792462Y-92269247D01*
X235752555Y-92284628D01*
X235751540Y-92285070D01*
X235710904Y-92304954D01*
X235710036Y-92305422D01*
X235668672Y-92329807D01*
X235667936Y-92330276D01*
X235625844Y-92359162D01*
X235625221Y-92359618D01*
X235582400Y-92393006D01*
X235581873Y-92393440D01*
X235538324Y-92431329D01*
X235537877Y-92431737D01*
X235502576Y-92465535D01*
X234954465Y-91917424D01*
X234988263Y-91882122D01*
X234988670Y-91881675D01*
X235026559Y-91838126D01*
X235026993Y-91837599D01*
X235060381Y-91794778D01*
X235060837Y-91794155D01*
X235089723Y-91752063D01*
X235090192Y-91751327D01*
X235114577Y-91709963D01*
X235115045Y-91709095D01*
X235134929Y-91668459D01*
X235135371Y-91667444D01*
X235150752Y-91627537D01*
X235151139Y-91626369D01*
X235162020Y-91587191D01*
X235162312Y-91585870D01*
X235168690Y-91547419D01*
X235168845Y-91545973D01*
X235170263Y-91517486D01*
X236171428Y-91248572D01*
X235902514Y-92249737D01*
X235902514Y-92249737D01*
G37*
X235902514Y-92249737D02*
X235874027Y-92251154D01*
X235872580Y-92251309D01*
X235834129Y-92257687D01*
X235832808Y-92257979D01*
X235793630Y-92268860D01*
X235792462Y-92269247D01*
X235752555Y-92284628D01*
X235751540Y-92285070D01*
X235710904Y-92304954D01*
X235710036Y-92305422D01*
X235668672Y-92329807D01*
X235667936Y-92330276D01*
X235625844Y-92359162D01*
X235625221Y-92359618D01*
X235582400Y-92393006D01*
X235581873Y-92393440D01*
X235538324Y-92431329D01*
X235537877Y-92431737D01*
X235502576Y-92465535D01*
X234954465Y-91917424D01*
X234988263Y-91882122D01*
X234988670Y-91881675D01*
X235026559Y-91838126D01*
X235026993Y-91837599D01*
X235060381Y-91794778D01*
X235060837Y-91794155D01*
X235089723Y-91752063D01*
X235090192Y-91751327D01*
X235114577Y-91709963D01*
X235115045Y-91709095D01*
X235134929Y-91668459D01*
X235135371Y-91667444D01*
X235150752Y-91627537D01*
X235151139Y-91626369D01*
X235162020Y-91587191D01*
X235162312Y-91585870D01*
X235168690Y-91547419D01*
X235168845Y-91545973D01*
X235170263Y-91517486D01*
X236171428Y-91248572D01*
X235902514Y-92249737D01*
D24*
X191173769Y-108900000D03*
X209500000Y-111500000D03*
X179400000Y-85000000D03*
X188800000Y-82900000D03*
X190100000Y-85600000D03*
X241000000Y-91500000D03*
X238460000Y-91500000D03*
X235920000Y-91500000D03*
X233380000Y-91500000D03*
X230840000Y-91500000D03*
X228300000Y-91500000D03*
X225760000Y-91500000D03*
X223220000Y-91500000D03*
X241000000Y-109530000D03*
X238460000Y-109530000D03*
X235920000Y-109530000D03*
X233380000Y-109530000D03*
X230840000Y-109530000D03*
X228300000Y-109530000D03*
X225760000Y-109530000D03*
X223220000Y-109530000D03*
X186000000Y-120500000D03*
X186000000Y-123040000D03*
X186000000Y-125580000D03*
X182660000Y-83000000D03*
X172500000Y-83000000D03*
X213860000Y-93750000D03*
X203700000Y-93750000D03*
X213860000Y-89700000D03*
X203700000Y-89700000D03*
X194500000Y-125500000D03*
X197040000Y-125500000D03*
X199580000Y-125500000D03*
X210340000Y-77000000D03*
X212880000Y-77000000D03*
X215420000Y-77000000D03*
X217960000Y-77000000D03*
X220500000Y-77000000D03*
X206000000Y-125500000D03*
X208540000Y-125500000D03*
X211080000Y-125500000D03*
X213620000Y-125500000D03*
X196500000Y-77000000D03*
X199040000Y-77000000D03*
X201580000Y-77000000D03*
X185038302Y-77000000D03*
X187578302Y-77000000D03*
X190118302Y-77000000D03*
X173500000Y-77000000D03*
X176040000Y-77000000D03*
X178580000Y-77000000D03*
X187890000Y-111930000D03*
X187890000Y-89070000D03*
X185350000Y-111930000D03*
X185350000Y-89070000D03*
X182810000Y-111930000D03*
X182810000Y-89070000D03*
X180270000Y-111930000D03*
X180270000Y-89070000D03*
X177730000Y-111930000D03*
X177730000Y-89070000D03*
X175190000Y-111930000D03*
X175190000Y-89070000D03*
X172650000Y-111930000D03*
X172650000Y-89070000D03*
X170110000Y-111930000D03*
X170110000Y-89070000D03*
X223300000Y-122960000D03*
X223300000Y-125500000D03*
X227600000Y-77000000D03*
X227600000Y-79540000D03*
X234500000Y-120460000D03*
X234500000Y-123000000D03*
X234500000Y-125540000D03*
X234500000Y-128080000D03*
X167000000Y-123000000D03*
X167000000Y-125540000D03*
X166500000Y-77000000D03*
X166500000Y-79540000D03*
X237500000Y-77500000D03*
X234960000Y-77500000D03*
X237000000Y-85000000D03*
X242000000Y-85000000D03*
X179000000Y-124000000D03*
X174000000Y-124000000D03*
M02*
